<svg width="270" height="270" xmlns="http://www.w3.org/2000/svg">
 <style type="text/css">.st0{fill:#ECB32D;}
	.st1{fill:#63C1A0;}
	.st2{fill:#E01A59;}
	.st3{fill:#331433;}
	.st4{fill:#D62027;}
	.st5{fill:#89D3DF;}
	.st6{fill:#258B74;}
	.st7{fill:#819C3C;}</style>

 <g>
  <title>background</title>
  <rect fill="none" id="canvas_background" height="402" width="582" y="-1" x="-1"/>
 </g>
 <g>
  <title>Layer 1</title>
  <g stroke="null" id="svg_1">
   <g stroke="null" id="svg_2">
    <path stroke="null" id="svg_3" d="m172.678451,22.040396c-3.977171,-12.068787 -16.745981,-18.632513 -28.677493,-14.821317c-11.931512,4.022929 -18.42058,16.938648 -14.652734,29.007435l58.82026,182.937403c3.977171,11.221855 16.118007,17.573848 27.630869,14.186118c12.140837,-3.599463 19.467203,-16.515182 15.490033,-28.372236c0,-0.423466 -58.610935,-182.937403 -58.610935,-182.937403z" class="st0"/>
    <path stroke="null" id="svg_4" d="m81.622177,51.894764c-3.977171,-12.068787 -16.745981,-18.632513 -28.677493,-14.821317c-11.931512,4.022929 -18.42058,16.938648 -14.652734,29.007435l58.82026,182.937403c3.977171,11.221855 16.118007,17.573848 27.630869,14.186118c12.140837,-3.599463 19.467203,-16.515182 15.490033,-28.372236c0,-0.423466 -58.610935,-182.937403 -58.610935,-182.937403z" class="st1"/>
    <path stroke="null" id="svg_5" d="m246.779419,173.429566c11.931512,-4.022929 18.42058,-16.938648 14.652734,-29.007435c-3.977171,-12.068787 -16.745981,-18.632513 -28.677493,-14.821317l-181.065924,59.708736c-11.094213,4.022929 -17.373956,16.303449 -14.024759,27.94877c3.558521,12.28052 16.327332,19.691179 28.049519,15.66825c0.41865,0 181.065924,-59.497003 181.065924,-59.497003z" class="st2"/>
    <path stroke="null" id="svg_6" d="m89.367194,225.304177c11.722187,-3.811196 27.002895,-8.89279 43.330227,-14.186118c-3.767846,-11.857054 -8.79164,-27.313571 -14.024759,-43.828753l-43.330227,14.186118l14.024759,43.828753z" class="st3"/>
    <path stroke="null" id="svg_7" d="m180.632792,195.238076c16.327332,-5.293328 31.60804,-10.374922 43.330227,-14.186118c-3.767846,-11.857054 -8.79164,-27.313571 -14.024759,-43.828753l-43.330227,14.186118l14.024759,43.828753z" class="st4"/>
    <path stroke="null" id="svg_8" d="m217.055302,81.325665c11.931512,-4.022929 18.42058,-16.938648 14.652734,-29.007435c-3.977171,-12.068787 -16.745981,-18.632513 -28.677493,-14.821317l-180.856599,59.497003c-11.094213,4.022929 -17.373956,16.303449 -14.024759,27.94877c3.558521,12.28052 16.327332,19.691179 28.049519,15.66825c0.41865,0 180.856599,-59.285269 180.856599,-59.285269z" class="st5"/>
    <path stroke="null" id="svg_9" d="m59.852401,132.988543c11.722187,-3.811196 27.002895,-8.89279 43.330227,-14.186118c-5.233119,-16.515182 -10.256914,-31.971699 -14.024759,-43.828753l-43.330227,14.186118l14.024759,43.828753z" class="st6"/>
    <path stroke="null" id="svg_10" d="m150.908675,103.134175c16.327332,-5.293328 31.60804,-10.374922 43.330227,-14.186118c-5.233119,-16.515182 -10.256914,-31.971699 -14.024759,-43.828753l-43.330227,14.186118l14.024759,43.828753z" class="st7"/>
   </g>
  </g>
 </g>
</svg>