<svg width="1283" height="622" viewBox="0 0 1283 622" fill="none" xmlns="http://www.w3.org/2000/svg">
<path d="M305.84 312.29L514.051 192.078C563.052 163.79 579.841 101.13 551.549 52.1313C523.259 3.134 460.608 -13.662 411.604 14.6327L51.8239 222.354L305.84 312.29Z" fill="#EA4335"/>
<path d="M462.73 621.259C498.14 621.259 532.572 602.881 551.55 570.016C579.84 521.017 563.052 458.357 514.051 430.069L154.271 222.353C105.267 194.048 42.6165 210.855 14.3245 259.852C-13.9662 308.857 2.82184 371.511 51.8232 399.799L411.603 607.515C427.735 616.832 445.354 621.259 462.73 621.259Z" fill="#4285F4"/>
<path d="M820.618 621.259C837.998 621.259 855.61 616.832 871.746 607.515L1231.52 399.799L980.735 307.997L769.298 430.069C720.296 458.357 703.507 521.017 731.799 570.016C750.774 602.881 785.211 621.259 820.618 621.259Z" fill="#FBBC04"/>
<path d="M1180.2 413.544C1215.61 413.544 1250.04 395.173 1269.02 362.3C1297.31 313.302 1280.52 250.649 1231.52 222.353L871.745 14.6331C822.744 -13.6549 760.093 3.12781 731.798 52.1305C703.506 101.129 720.296 163.784 769.297 192.077L1129.07 399.798C1145.21 409.11 1162.83 413.544 1180.2 413.544Z" fill="#0F9D58"/>
</svg>
