<?xml version="1.0" encoding="UTF-8"?>
<svg width="79px" height="59px" viewBox="0 0 79 59" version="1.1" xmlns="http://www.w3.org/2000/svg" xmlns:xlink="http://www.w3.org/1999/xlink">
    <!-- Generator: Sketch 42 (36781) - http://www.bohemiancoding.com/sketch -->
    <title>Badger-transparent</title>
    <desc>Created with Sketch.</desc>
    <defs></defs>
    <g id="Page-1" stroke="none" stroke-width="1" fill="none" fill-rule="evenodd">
        <g id="Home" transform="translate(-274.000000, -21.000000)">
            <g id="Navigation" transform="translate(235.000000, 0.000000)">
                <g id="Badger-transparent" transform="translate(78.482880, 50.500000) rotate(-1.000000) translate(-78.482880, -50.500000) translate(40.482880, 22.500000)">
                    <polygon id="Path" stroke="#FFFFFF" stroke-width="2" points="13.6156913 8.27782287e-13 23.8328448 3.94997213 52.2891659 3.94997213 62.4989523 0.528816991 75.5971353 38.3893133 71.9250344 41.522904 74.4689565 43.6672515 37.1060436 55.9743631 4.73673549 43.7765691 1.11902414 43.8104952 3.17774854 40.5525087 8.95283847e-13 36.8427121"></polygon>
                    <polygon id="Path-3" stroke="#FFFFFF" stroke-width="2" points="48.7684373 4.89384814 48.2769822 10.5687811 47.0483444 10.9647067 47.5397995 15.7158134 46.3111617 15.9797638 46.8026168 20.3349449 45.9425704 20.5988953 45.8197066 25.7459275 44.7139326 25.2180268 45.0825239 29.0453072 44.0996137 28.5174064 44.5910688 33.7964139 49.8742113 50.5572625 50.4885302 49.6334362 52.7000782 43.4306025 59.3347222 31.024935 64.8635922 20.8628457 67.6894591 18.7512427 63.0206355 0.802617371 58.3732602 3.05254109 53.8058522 4.89384814"></polygon>
                    <path d="M7.19453682,17.4207246 L16.9448614,32.3064543 L21.6718801,38.1378564 L23.2281432,43.7057403 L25.5095466,49.7546452 L32.8782927,32.3611768 L32.1548199,25.30144 L31.210702,25.3956072 L30.96905,23.3780363 L31.128006,20.3257687 L30.4336066,20.7250729 L30.438089,15.5646469 L29.6167737,15.6461512 L29.2646431,9.95089279 L28.5899169,9.56575199 L28.5148837,6.23605394 L28.7845449,4.88308189 C26.6289782,4.90830727 24.2793388,4.78742105 23.5991309,4.61913151 C21.9772241,4.2178572 13.8809916,4.46220838e-12 13.8809916,4.46220838e-12 L7.19453682,17.4207246 Z" id="Path-2" stroke="#FFFFFF" stroke-width="2"></path>
                    <ellipse id="Oval" fill="#FFFFFF" cx="25.0149081" cy="30.7669992" rx="3.07669992" ry="3.21046949"></ellipse>
                    <ellipse id="Oval" fill="#FFFFFF" cx="52.3038987" cy="30.7669992" rx="3.07669992" ry="3.21046949"></ellipse>
                    <g id="Group-2" transform="translate(33.241289, 41.497967)" fill="#FFFFFF">
                        <ellipse id="Oval-2" cx="4.48172763" cy="3.85329164" rx="4.01308686" ry="3.21046949"></ellipse>
                    </g>
                </g>
            </g>
        </g>
    </g>
</svg>