<?xml version="1.0" encoding="UTF-8"?>
<svg width="112px" height="85px" viewBox="0 0 743 535" version="1.1" xmlns="http://www.w3.org/2000/svg" xmlns:xlink="http://www.w3.org/1999/xlink">
    <!-- Generator: Sketch 43.1 (39012) - http://www.bohemiancoding.com/sketch -->
    <title>Badger</title>
    <desc>Created with Sketch.</desc>
    <defs>
        <polygon id="path-1" points="0 180.343341 71.0364031 0 176.536403 34.5 221.536403 34.5 210.036403 108 226.536403 113 216.036403 155.5 234.036403 158.5 224.036403 196 239.536403 201.5 234.036403 248 248.536403 243 239.536403 277.5 256.036403 275.5 252.036403 323.5 203 474 59.5364031 205.5"></polygon>
        <polygon id="path-3" points="0 180.343341 71.0364031 0 176.536403 34.5 221.536403 34.5 210.036403 108 226.536403 113 216.036403 155.5 234.036403 158.5 224.036403 196 239.536403 201.5 234.036403 248 248.536403 243 239.536403 277.5 256.036403 275.5 252.036403 323.5 203 474 59.5364031 205.5"></polygon>
        <filter x="-5.1%" y="-6.9%" width="110.2%" height="120.0%" filterUnits="objectBoundingBox" id="filter-5">
            <feOffset dx="0" dy="6" in="SourceAlpha" result="shadowOffsetOuter1"></feOffset>
            <feGaussianBlur stdDeviation="3.5" in="shadowOffsetOuter1" result="shadowBlurOuter1"></feGaussianBlur>
            <feColorMatrix values="0 0 0 0 0   0 0 0 0 0   0 0 0 0 0  0 0 0 0.5 0" type="matrix" in="shadowBlurOuter1" result="shadowMatrixOuter1"></feColorMatrix>
            <feMerge>
                <feMergeNode in="shadowMatrixOuter1"></feMergeNode>
                <feMergeNode in="SourceGraphic"></feMergeNode>
            </feMerge>
        </filter>
    </defs>
    <g id="Page-1" stroke="none" stroke-width="1" fill="none" fill-rule="evenodd">
        <g id="Artboard" transform="translate(-129.000000, -232.000000)">
            <g id="Badger" transform="translate(135.000000, 239.000000)">
                <polygon id="Combined-Shape" stroke="#FFFFFF" stroke-width="10" points="723.501004 402.5 695.001004 376 730.501004 344 595.001004 0 489.501004 34.5 365.250502 34.5 287.750502 34.5 241 34.5 135.5 0 64.4019282 180.499902 0 344 35.5 376 7 402.5 365 522.5"></polygon>
                <g id="Right-Circuit" transform="translate(537.500000, 237.000000) scale(-1, 1) translate(-537.500000, -237.000000) translate(409.000000, 0.000000)">
                    <mask id="mask-2" fill="white">
                        <use xlink:href="#path-1"></use>
                    </mask>
                    <use id="Path-3" stroke="#FFFFFF" stroke-width="10" xlink:href="#path-1"></use>
                    <path d="M48.8095732,375.236677 C49.9294649,369.806128 55.0217533,366.097092 60.592857,366.654167 C66.1639606,367.211241 70.4039376,371.853441 70.4039376,377.395972 C70.4039376,382.938503 66.1639606,387.580704 60.592857,388.137778 C55.0217533,388.694852 49.9294649,384.985816 48.8095732,379.555267 L-47.3934214,379.555267 L-47.3934214,375.236677 L48.8095732,375.236677 Z M397.845382,478.882859 C398.965274,473.45231 404.057562,469.743275 409.628666,470.300349 C415.199769,470.857423 419.439747,475.499624 419.439747,481.042155 C419.439747,486.584685 415.199769,491.226887 409.628666,491.783961 C404.057562,492.341034 398.965274,488.631999 397.845382,483.20145 L131.48743,483.20145 L131.48743,478.882859 L397.845382,478.882859 Z M512.151285,388.137778 C506.580181,387.580704 502.340204,382.938503 502.340204,377.395972 C502.340204,371.853441 506.580181,367.211241 512.151285,366.654167 C517.722388,366.097092 522.814677,369.806128 523.934568,375.236677 L615.774616,375.236677 L615.774616,379.555267 L523.934568,379.555267 C522.814677,384.985816 517.722388,388.694852 512.151285,388.137778 Z M523.934568,414.103995 C522.814677,419.534544 517.722388,423.243579 512.151285,422.686506 C506.580181,422.129431 502.340204,417.48723 502.340204,411.9447 C502.340204,406.402169 506.580181,401.759968 512.151285,401.202894 C517.722388,400.64582 522.814677,404.354855 523.934568,409.785404 L615.774616,409.785404 L615.774616,414.103995 L523.934568,414.103995 Z M537.459706,167.944311 C538.579597,162.513762 543.671886,158.804727 549.24299,159.361801 C554.814093,159.918875 559.05407,164.561076 559.05407,170.103607 C559.05407,175.646137 554.814093,180.288339 549.24299,180.845413 C543.671886,181.402486 538.579597,177.693451 537.459706,172.262902 L349.416664,172.262902 C348.296772,177.693451 343.204483,181.402486 337.63338,180.845413 C332.062276,180.288339 327.822299,175.646137 327.822299,170.103607 C327.822299,164.561076 332.062276,159.918875 337.63338,159.361801 C343.204483,158.804727 348.296772,162.513762 349.416664,167.944311 L537.459706,167.944311 Z M-9.2143046,55.7156187 C-3.64320112,56.2726926 0.59677566,60.9148935 0.59677566,66.4574241 C0.59677566,71.9999548 -3.64320112,76.6421556 -9.2143046,77.1992301 C-14.7854086,77.756304 -19.8776971,74.0472683 -20.9975885,68.6167194 L-47.3934214,68.6167194 L-47.3934214,64.2981288 L-20.9975885,64.2981288 C-19.8776971,58.8675799 -14.7854086,55.1585443 -9.2143046,55.7156187 Z M372.536961,146.296685 C366.965857,145.739611 362.72588,141.09741 362.72588,135.554879 C362.72588,130.012348 366.965857,125.370148 372.536961,124.813074 C378.108064,124.256 383.200353,127.965035 384.320245,133.395584 L572.363287,133.395584 C573.483178,127.965035 578.575467,124.256 584.14657,124.813074 C589.717674,125.370148 593.957653,130.012348 593.957653,135.554879 C593.957653,141.09741 589.717674,145.739611 584.14657,146.296685 C578.575467,146.853759 573.483178,143.144723 572.363287,137.714175 L384.320245,137.714175 C383.200353,143.144723 378.108064,146.853759 372.536961,146.296685 Z M515.42682,-82.318034 C520.913147,-81.2095277 524.660278,-76.1690111 524.097482,-70.654547 C523.534687,-65.140083 518.844805,-60.9432122 513.245347,-60.9432122 C507.645888,-60.9432122 502.956007,-65.140083 502.393211,-70.654547 C501.830415,-76.1690111 505.577546,-81.2095277 511.063872,-82.318034 L511.063872,-108.445509 L515.42682,-108.445509 L515.42682,-82.318034 Z M384.483159,378.478911 C383.920363,383.993375 379.230481,388.190246 373.631023,388.190246 C368.031564,388.190246 363.341683,383.993375 362.778887,378.478911 C362.216091,372.964447 365.963223,367.92393 371.449549,366.815424 L371.449549,249.78161 C365.963223,248.673103 362.216091,243.632587 362.778887,238.118123 C363.341683,232.603659 368.031564,228.406788 373.631023,228.406788 C379.230481,228.406788 383.920363,232.603659 384.483159,238.118123 C385.045954,243.632587 381.298823,248.673103 375.812497,249.78161 L375.812497,366.815424 C381.298823,367.92393 385.045954,372.964447 384.483159,378.478911 Z M480.523239,64.2981288 L615.774616,64.2981288 L615.774616,68.6167194 L476.160292,68.6167194 L476.160292,-61.1569383 C470.673965,-62.2654446 466.926834,-67.3059612 467.48963,-72.8204252 C468.052426,-78.3348893 472.742307,-82.5317598 478.341766,-82.5317598 C483.941224,-82.5317598 488.631106,-78.3348893 489.193901,-72.8204252 C489.756697,-67.3059612 486.009566,-62.2654446 480.523239,-61.1569383 L480.523239,64.2981288 Z M515.42682,29.7494011 L615.774616,29.7494011 L615.774616,34.0679921 L511.063872,34.0679921 L511.063872,-26.6082107 C505.577546,-27.7167168 501.830415,-32.7572336 502.393211,-38.2716976 C502.956007,-43.7861616 507.645888,-47.9830323 513.245347,-47.9830323 C518.844805,-47.9830323 523.534687,-43.7861616 524.097482,-38.2716976 C524.660278,-32.7572336 520.913147,-27.7167168 515.42682,-26.6082107 L515.42682,29.7494011 Z M236.198173,180.684155 L236.198173,340.687949 L271.101754,340.687949 L271.101754,366.815424 C276.58808,367.92393 280.335212,372.964447 279.772416,378.478911 C279.20962,383.993375 274.519739,388.190246 268.92028,388.190246 C263.320822,388.190246 258.63094,383.993375 258.068145,378.478911 C257.505349,372.964447 261.25248,367.92393 266.738806,366.815424 L266.738806,345.00654 L231.835226,345.00654 L231.835226,180.684155 C226.348899,179.575648 222.601768,174.535132 223.164564,169.020668 C223.727359,163.506204 228.417241,159.309333 234.016699,159.309333 C239.616158,159.309333 244.30604,163.506204 244.868835,169.020668 C245.431631,174.535132 241.684499,179.575648 236.198173,180.684155 Z M223.327478,133.395584 C224.447369,127.965035 229.539658,124.256 235.110762,124.813074 C240.681865,125.370148 244.921842,130.012348 244.921842,135.554879 C244.921842,141.09741 240.681865,145.739611 235.110762,146.296685 C229.539658,146.853759 224.447369,143.144723 223.327478,137.714175 L201.294592,137.714175 L201.294592,241.360357 L139.995178,241.360357 C138.875287,246.790906 133.782998,250.499941 128.211895,249.942868 C122.640791,249.385794 118.400814,244.743592 118.400814,239.201062 C118.400814,233.658531 122.640791,229.01633 128.211895,228.459256 C133.782998,227.902182 138.875287,231.611218 139.995178,237.041766 L196.931645,237.041766 L196.931645,133.395584 L223.327478,133.395584 Z M198.019056,422.686506 C192.447952,422.129431 188.207976,417.48723 188.207976,411.9447 C188.207976,406.402169 192.447952,401.759968 198.019056,401.202894 C203.59016,400.64582 208.682448,404.354855 209.80234,409.785404 L336.545968,409.785404 L336.545968,249.78161 C331.059642,248.673103 327.31251,243.632587 327.875306,238.118123 C328.438102,232.603659 333.127984,228.406788 338.727442,228.406788 C344.3269,228.406788 349.016782,232.603659 349.579578,238.118123 C350.142373,243.632587 346.395242,248.673103 340.908916,249.78161 L340.908916,414.103995 L209.80234,414.103995 C208.682448,419.534544 203.59016,423.243579 198.019056,422.686506 Z M163.115475,284.491595 C157.544372,283.934521 153.304395,279.29232 153.304395,273.74979 C153.304395,268.207259 157.544372,263.565058 163.115475,263.007984 C168.686579,262.45091 173.778867,266.159945 174.898759,271.590494 L201.294592,271.590494 L201.294592,375.236677 L223.327478,375.236677 C224.447369,369.806128 229.539658,366.097092 235.110762,366.654167 C240.681865,367.211241 244.921842,371.853441 244.921842,377.395972 C244.921842,382.938503 240.681865,387.580704 235.110762,388.137778 C229.539658,388.694852 224.447369,384.985816 223.327478,379.555267 L196.931645,379.555267 L196.931645,275.909085 L174.898759,275.909085 C173.778867,281.339634 168.686579,285.048669 163.115475,284.491595 Z M96.5838495,505.010334 C102.070176,506.118841 105.817307,511.159357 105.254512,516.673819 C104.691716,522.188284 100.001834,526.385158 94.4023757,526.385158 C88.8029173,526.385158 84.1130357,522.188284 83.5502399,516.673819 C82.9874442,511.159357 86.7345755,506.118841 92.2209019,505.010334 L92.2209019,483.20145 L61.6802687,483.20145 L61.6802687,547.980315 L57.317321,547.980315 L57.317321,478.882859 L96.5838495,478.882859 L96.5838495,505.010334 Z M467.652544,271.590494 C468.772436,266.159945 473.864724,262.45091 479.435828,263.007984 C485.006931,263.565058 489.246909,268.207259 489.246909,273.74979 C489.246909,279.29232 485.006931,283.934521 479.435828,284.491595 C473.864724,285.048669 468.772436,281.339634 467.652544,275.909085 L445.619658,275.909085 L445.619658,478.882859 L550.330401,478.882859 L550.330401,547.980315 L545.967453,547.980315 L545.967453,483.20145 L441.256711,483.20145 L441.256711,271.590494 L467.652544,271.590494 Z M523.934568,206.81163 C522.814677,212.242178 517.722388,215.951214 512.151285,215.39414 C506.580181,214.837066 502.340204,210.194865 502.340204,204.652334 C502.340204,199.109804 506.580181,194.467603 512.151285,193.910529 C517.722388,193.353455 522.814677,197.06249 523.934568,202.493039 L550.330401,202.493039 L550.330401,297.717969 C555.816728,298.826475 559.563859,303.866992 559.001063,309.381456 C558.438267,314.89592 553.748386,319.092791 548.148927,319.092791 C542.549469,319.092791 537.859588,314.89592 537.296792,309.381456 C536.733996,303.866992 540.481127,298.826475 545.967453,297.717969 L545.967453,206.81163 L523.934568,206.81163 Z M372.536961,422.686506 C366.965857,422.129431 362.72588,417.48723 362.72588,411.9447 C362.72588,406.402169 366.965857,401.759968 372.536961,401.202894 C378.108064,400.64582 383.200353,404.354855 384.320245,409.785404 L406.35313,409.785404 L406.35313,237.041766 L441.256711,237.041766 L441.256711,206.81163 L349.416664,206.81163 C348.296772,212.242178 343.204483,215.951214 337.63338,215.39414 C332.062276,214.837066 327.822299,210.194865 327.822299,204.652334 C327.822299,199.109804 332.062276,194.467603 337.63338,193.910529 C343.204483,193.353455 348.296772,197.06249 349.416664,202.493039 L445.619658,202.493039 L445.619658,241.360357 L410.716077,241.360357 L410.716077,414.103995 L384.320245,414.103995 C383.200353,419.534544 378.108064,423.243579 372.536961,422.686506 Z M584.14657,-47.9305642 C589.717674,-47.3734902 593.957653,-42.731289 593.957653,-37.1887585 C593.957653,-31.6462279 589.717674,-27.0040268 584.14657,-26.4469529 C578.575467,-25.8898789 573.483178,-29.5989143 572.363287,-35.029463 L545.967453,-35.029463 L545.967453,-108.445509 L550.330401,-108.445509 L550.330401,-39.348054 L572.363287,-39.348054 C573.483178,-44.7786027 578.575467,-48.4876381 584.14657,-47.9305642 Z M166.391011,111.5867 L166.391011,206.81163 L70.1880165,206.81163 C69.0681248,212.242178 63.9758363,215.951214 58.4047327,215.39414 C52.8336291,214.837066 48.593652,210.194865 48.593652,204.652334 C48.593652,199.109804 52.8336291,194.467603 58.4047327,193.910529 C63.9758363,193.353455 69.0681248,197.06249 70.1880165,202.493039 L162.028064,202.493039 L162.028064,111.5867 C156.541737,110.478193 152.794606,105.437677 153.357402,99.9232128 C153.920198,94.4087487 158.610079,90.2118777 164.209538,90.2118777 C169.808996,90.2118777 174.498878,94.4087487 175.061673,99.9232128 C175.624469,105.437677 171.877338,110.478193 166.391011,111.5867 Z M70.1880165,-35.029463 C69.0681248,-29.5989143 63.9758363,-25.8898789 58.4047327,-26.4469529 C52.8336291,-27.0040268 48.593652,-31.6462279 48.593652,-37.1887585 C48.593652,-42.731289 52.8336291,-47.3734902 58.4047327,-47.9305642 C63.9758363,-48.4876381 69.0681248,-44.7786027 70.1880165,-39.348054 L127.124483,-39.348054 L127.124483,-108.445509 L131.48743,-108.445509 L131.48743,-35.029463 L70.1880165,-35.029463 Z M201.294592,-26.6082107 L201.294592,34.0679921 L131.48743,34.0679921 L131.48743,172.262902 L105.091597,172.262902 C103.971706,177.693451 98.8794173,181.402486 93.3083136,180.845413 C87.73721,180.288339 83.4972329,175.646137 83.4972329,170.103607 C83.4972329,164.561076 87.73721,159.918875 93.3083136,159.361801 C98.8794173,158.804727 103.971706,162.513762 105.091597,167.944311 L127.124483,167.944311 L127.124483,29.7494011 L196.931645,29.7494011 L196.931645,-26.6082107 C191.445318,-27.7167168 187.698187,-32.7572336 188.260983,-38.2716976 C188.823778,-43.7861616 193.51366,-47.9830323 199.113119,-47.9830323 C204.712577,-47.9830323 209.402459,-43.7861616 209.965254,-38.2716976 C210.52805,-32.7572336 206.780918,-27.7167168 201.294592,-26.6082107 Z M174.898759,68.6167194 C173.778867,74.0472683 168.686579,77.756304 163.115475,77.1992301 C157.544372,76.6421556 153.304395,71.9999548 153.304395,66.4574241 C153.304395,60.9148935 157.544372,56.2726926 163.115475,55.7156187 C168.686579,55.1585443 173.778867,58.8675799 174.898759,64.2981288 L231.835226,64.2981288 L231.835226,-26.6082107 C226.348899,-27.7167168 222.601768,-32.7572336 223.164564,-38.2716976 C223.727359,-43.7861616 228.417241,-47.9830323 234.016699,-47.9830323 C239.616158,-47.9830323 244.30604,-43.7861616 244.868835,-38.2716976 C245.431631,-32.7572336 241.684499,-27.7167168 236.198173,-26.6082107 L236.198173,68.6167194 L174.898759,68.6167194 Z M209.80234,-69.5781906 C208.682448,-64.1476417 203.59016,-60.4386064 198.019056,-60.9956804 C192.447952,-61.5527544 188.207976,-66.1949557 188.207976,-71.7374859 C188.207976,-77.2800165 192.447952,-81.9222179 198.019056,-82.4792918 C203.59016,-83.0363657 208.682448,-79.3273301 209.80234,-73.8967817 L271.101754,-73.8967817 L271.101754,21.3281488 C276.58808,22.4366549 280.335211,27.4771717 279.772416,32.9916358 C279.20962,38.5060998 274.519739,42.7029704 268.92028,42.7029704 C263.320822,42.7029704 258.63094,38.5060998 258.068145,32.9916358 C257.505349,27.4771717 261.25248,22.4366549 266.738806,21.3281488 L266.738806,-69.5781906 L209.80234,-69.5781906 Z M444.532247,504.849077 C450.10335,505.406151 454.343328,510.048352 454.343328,515.590884 C454.343328,521.133415 450.10335,525.775616 444.532247,526.332689 C438.961143,526.889762 433.868855,523.180728 432.748963,517.750176 L166.391011,517.750176 L166.391011,547.980315 L162.028064,547.980315 L162.028064,513.431586 L432.748963,513.431586 C433.868855,508.001038 438.961143,504.292003 444.532247,504.849077 Z M480.523239,237.041766 L515.42682,237.041766 L515.42682,310.457812 L480.523239,310.457812 L480.523239,444.334132 L585.233982,444.334132 L585.233982,547.980315 L580.871034,547.980315 L580.871034,448.652723 L476.160292,448.652723 L476.160292,306.139221 L511.063872,306.139221 L511.063872,241.360357 L476.160292,241.360357 L476.160292,215.232882 C470.673965,214.124376 466.926834,209.083859 467.48963,203.569395 C468.052426,198.054931 472.742307,193.858061 478.341766,193.858061 C483.941224,193.858061 488.631106,198.054931 489.193901,203.569395 C489.756697,209.083859 486.009566,214.124376 480.523239,215.232882 L480.523239,237.041766 Z M70.1880165,-69.5781906 C69.0681248,-64.1476417 63.9758363,-60.4386064 58.4047327,-60.9956804 C52.8336291,-61.5527544 48.593652,-66.1949557 48.593652,-71.7374859 C48.593652,-77.2800165 52.8336291,-81.9222179 58.4047327,-82.4792918 C63.9758363,-83.0363657 69.0681248,-79.3273301 70.1880165,-73.8967817 L92.2209019,-73.8967817 L92.2209019,-104.126918 L57.317321,-104.126918 L57.317321,-108.445509 L96.5838495,-108.445509 L96.5838495,-69.5781906 L70.1880165,-69.5781906 Z M314.513083,-0.480735452 C313.393191,4.94981325 308.300903,8.6588487 302.729799,8.10177469 C297.158695,7.54470074 292.918719,2.90249961 292.918719,-2.64003093 C292.918719,-8.18256149 297.158695,-12.8247626 302.729799,-13.3818366 C308.300903,-13.9389106 313.393191,-10.2298751 314.513083,-4.79932642 L371.449549,-4.79932642 L371.449549,-108.445509 L480.523239,-108.445509 L480.523239,-104.126918 L375.812497,-104.126918 L375.812497,-0.480735452 L314.513083,-0.480735452 Z M209.80234,-104.126918 C209.022974,-100.346853 206.265457,-97.265487 202.568518,-96.0435429 C198.871578,-94.8215983 194.79687,-95.6447168 191.879296,-98.2028382 C188.961722,-100.76096 187.644531,-104.665443 188.423897,-108.445509 L192.939548,-108.445509 C191.985815,-105.761916 192.912511,-102.776448 195.223994,-101.085882 C197.535476,-99.395316 200.690761,-99.395316 203.002243,-101.085882 C205.313726,-102.776448 206.240422,-105.761916 205.28669,-108.445509 L340.908916,-108.445509 L340.908916,-35.029463 L301.642387,-35.029463 L301.642387,-61.1569383 C296.156061,-62.2654446 292.408929,-67.3059612 292.971725,-72.8204252 C293.534521,-78.3348893 298.224403,-82.5317598 303.823861,-82.5317598 C309.42332,-82.5317598 314.113201,-78.3348893 314.675997,-72.8204252 C315.238792,-67.3059612 311.491661,-62.2654446 306.005335,-61.1569383 L306.005335,-39.348054 L336.545968,-39.348054 L336.545968,-104.126918 L209.80234,-104.126918 Z M209.80234,103.165447 C208.682448,108.595996 203.59016,112.305031 198.019056,111.747958 C192.447952,111.190883 188.207976,106.548682 188.207976,101.006152 C188.207976,95.463621 192.447952,90.8214201 198.019056,90.2643462 C203.59016,89.7072723 208.682448,93.4163074 209.80234,98.8468563 L251.46849,98.8468563 L321.275651,29.7494011 L406.35313,29.7494011 L406.35313,-61.1569383 C400.866803,-62.2654446 397.119672,-67.3059612 397.682468,-72.8204252 C398.245264,-78.3348893 402.935145,-82.5317598 408.534604,-82.5317598 C414.134062,-82.5317598 418.823944,-78.3348893 419.38674,-72.8204252 C419.949535,-67.3059612 416.202404,-62.2654446 410.716077,-61.1569383 L410.716077,34.0679921 L323.086275,34.0679921 L253.279113,103.165447 L209.80234,103.165447 Z M271.101754,297.717969 C276.58808,298.826475 280.335211,303.866992 279.772416,309.381456 C279.20962,314.89592 274.519739,319.092791 268.92028,319.092791 C263.320822,319.092791 258.63094,314.89592 258.068145,309.381456 C257.505349,303.866992 261.25248,298.826475 266.738806,297.717969 L266.738806,132.510273 L335.651564,64.2981288 L441.256711,64.2981288 L441.256711,-61.1569383 C435.770384,-62.2654446 432.023253,-67.3059612 432.586049,-72.8204252 C433.148845,-78.3348893 437.838726,-82.5317598 443.438185,-82.5317598 C449.037643,-82.5317598 453.727525,-78.3348893 454.290321,-72.8204252 C454.853116,-67.3059612 451.105985,-62.2654446 445.619658,-61.1569383 L445.619658,68.6167194 L337.440372,68.6167194 L271.101754,134.280895 L271.101754,297.717969 Z M306.005335,366.815424 C311.491661,367.92393 315.238792,372.964447 314.675997,378.478911 C314.113201,383.993375 309.42332,388.190246 303.823861,388.190246 C298.224403,388.190246 293.534521,383.993375 292.971725,378.478911 C292.408929,372.964447 296.156061,367.92393 301.642387,366.815424 L301.642387,151.943932 L355.284828,98.8468563 L607.266866,98.8468563 C608.140776,94.6053765 611.489571,91.2906279 615.774616,90.425604 L615.774616,94.8953454 C613.15479,95.8075811 611.40194,98.2571853 611.40194,101.006152 C611.40194,103.755118 613.15479,106.204723 615.774616,107.116958 L615.774616,111.5867 C611.489571,110.721675 608.140776,107.406927 607.266866,103.165447 L357.073637,103.165447 L306.005335,153.714554 L306.005335,366.815424 Z M-8.12689295,228.620514 C-2.64056677,229.72902 1.10656436,234.769537 0.543768606,240.284001 C-0.0190271489,245.798465 -4.70890837,249.995335 -10.3083667,249.995335 C-15.9078255,249.995335 -20.5977068,245.798465 -21.1605025,240.284001 C-21.7232983,234.769537 -17.9761671,229.72902 -12.489841,228.620514 L-12.489841,221.041387 L92.2209019,117.395204 L92.2209019,-4.79932642 L162.028064,-4.79932642 L162.028064,-108.445509 L166.391011,-108.445509 L166.391011,-0.480735452 L96.5838495,-0.480735452 L96.5838495,119.165827 L-8.12689295,222.812009 L-8.12689295,228.620514 Z M61.6802687,101.891463 L-43.0304739,205.537645 L-43.0304739,340.687949 L13.9059925,340.687949 C15.0258839,335.2574 20.1181724,331.548365 25.689276,332.105439 C31.2603797,332.662513 35.5003568,337.304714 35.5003568,342.847245 C35.5003568,348.389775 31.2603797,353.031976 25.689276,353.58905 C20.1181724,354.146124 15.0258839,350.437089 13.9059925,345.00654 L-47.3934214,345.00654 L-47.3934214,203.767023 L57.317321,100.12084 L57.317321,7.9405169 C51.8309946,6.83201076 48.0838633,1.79149392 48.646659,-3.72297009 C49.2094548,-9.2374341 53.8993364,-13.4343047 59.4987949,-13.4343047 C65.0982533,-13.4343047 69.7881349,-9.2374341 70.3509306,-3.72297009 C70.9137264,1.79149392 67.166595,6.83201076 61.6802687,7.9405169 L61.6802687,101.891463 Z M26.7766878,42.4892444 L26.7766878,84.6170991 L-47.3934214,158.033145 L-47.3934214,151.943932 L22.4137402,82.8464766 L22.4137402,42.4892444 C16.9274138,41.3807383 13.1802822,36.3402215 13.7430779,30.8257575 C14.3058737,25.3112935 18.9957555,21.1144228 24.595214,21.1144228 C30.1946724,21.1144228 34.884554,25.3112935 35.4473497,30.8257575 C36.0101455,36.3402215 32.2630141,41.3807383 26.7766878,42.4892444 Z M-20.9975885,-39.348054 C-19.8776971,-44.7786027 -14.7854086,-48.4876381 -9.2143046,-47.9305642 C-3.64320112,-47.3734902 0.59677566,-42.731289 0.59677566,-37.1887585 C0.59677566,-31.6462279 -3.64320112,-27.0040268 -9.2143046,-26.4469529 C-14.7854086,-25.8898789 -19.8776971,-29.5989143 -20.9975885,-35.029463 L-26.8657529,-35.029463 L-47.3934214,-14.7104926 L-47.3934214,-20.7781129 L-28.6545615,-39.348054 L-20.9975885,-39.348054 Z M547.054865,8.10177469 C541.483761,7.54470074 537.243785,2.90249961 537.243785,-2.64003093 C537.243785,-8.18256149 541.483761,-12.8247626 547.054865,-13.3818366 C552.625969,-13.9389106 557.718257,-10.2298751 558.838149,-4.79932642 L599.609897,-4.79932642 L615.774616,-20.7997059 L615.774616,-14.7104926 L601.398704,-0.480735452 L558.838149,-0.480735452 C557.718257,4.94981325 552.625969,8.6588487 547.054865,8.10177469 Z M512.151285,353.58905 C506.580181,353.031976 502.340204,348.389775 502.340204,342.847245 C502.340204,337.304714 506.580181,332.662513 512.151285,332.105439 C517.722388,331.548365 522.814677,335.2574 523.934568,340.687949 L580.871034,340.687949 L580.871034,186.49266 L615.774616,151.943932 L615.774616,158.033145 L585.233982,188.263282 L585.233982,345.00654 L523.934568,345.00654 C522.814677,350.437089 517.722388,354.146124 512.151285,353.58905 Z M58.4047327,422.686506 C52.8336291,422.129431 48.593652,417.48723 48.593652,411.9447 C48.593652,406.402169 52.8336291,401.759968 58.4047327,401.202894 C63.9758363,400.64582 69.0681248,404.354855 70.1880165,409.785404 L92.2209019,409.785404 L92.2209019,361.00692 L41.1526001,310.457812 L0.380854553,310.457812 C-0.739036798,315.888361 -5.83132531,319.597396 -11.4024293,319.040323 C-16.9735328,318.483249 -21.2135096,313.841048 -21.2135096,308.298517 C-21.2135096,302.755986 -16.9735328,298.113786 -11.4024293,297.556711 C-5.83132531,296.999637 -0.739036798,300.708673 0.380854553,306.139221 L42.9414086,306.139221 L96.5838495,359.236297 L96.5838495,414.103995 L70.1880165,414.103995 C69.0681248,419.534544 63.9758363,423.243579 58.4047327,422.686506 Z M409.628666,435.751622 C415.199769,436.308696 419.439747,440.950896 419.439747,446.493427 C419.439747,452.035958 415.199769,456.678159 409.628666,457.235233 C404.057562,457.792307 398.965274,454.083271 397.845382,448.652723 L162.028064,448.652723 L162.028064,326.436599 L76.0779957,241.360357 L35.2844356,241.360357 C34.1645439,246.790906 29.0722554,250.499941 23.5011518,249.942868 C17.9300482,249.385794 13.6900714,244.743592 13.6900714,239.201062 C13.6900714,233.658531 17.9300482,229.01633 23.5011518,228.459256 C29.0722554,227.902182 34.1645439,231.611218 35.2844356,237.041766 L77.8231748,237.041766 L166.391011,324.709163 L166.391011,444.334132 L397.845382,444.334132 C398.965274,438.903583 404.057562,435.194548 409.628666,435.751622 Z M58.4047327,457.235233 C52.8336291,456.678159 48.593652,452.035958 48.593652,446.493427 C48.593652,440.950896 52.8336291,436.308696 58.4047327,435.751622 C63.9758363,435.194548 69.0681248,438.903583 70.1880165,444.334132 L127.124483,444.334132 L127.124483,343.732556 L58.6043906,275.909085 L0.380854553,275.909085 C-0.739036798,281.339634 -5.83132531,285.048669 -11.4024293,284.491595 C-16.9735328,283.934521 -21.2135096,279.29232 -21.2135096,273.74979 C-21.2135096,268.207259 -16.9735328,263.565058 -11.4024293,263.007984 C-5.83132531,262.45091 -0.739036798,266.159945 0.380854553,271.590494 L60.3931991,271.590494 L131.48743,341.961933 L131.48743,448.652723 L70.1880165,448.652723 C69.0681248,454.083271 63.9758363,457.792307 58.4047327,457.235233 Z M26.7766878,-22.5055493 L26.7766878,-19.0290836 L-26.8657529,34.0679921 L-47.3934214,34.0679921 L-47.3934214,29.7494011 L-28.6545615,29.7494011 L22.4137402,-20.7997059 L22.4137402,-108.445509 L26.7766878,-108.445509 L26.7766878,-22.5055493 Z M-43.0304739,539.55906 C-38.7454296,540.424084 -35.3966351,543.738835 -34.5227264,547.980315 L-39.0383772,547.980315 C-39.616218,546.3591 -40.8214184,545.031733 -42.3885306,544.290565 C-43.9556429,543.549401 -45.7561271,543.455234 -47.3934214,544.028806 L-47.3934214,444.334132 L-8.12689295,444.334132 L-8.12689295,547.980315 L-12.489841,547.980315 L-12.489841,448.652723 L-43.0304739,448.652723 L-43.0304739,539.55906 Z M26.7766878,411.9447 L26.7766878,547.980315 L22.4137402,547.980315 L22.4137402,414.103995 L-47.3934214,414.103995 L-47.3934214,409.785404 L26.7766878,409.785404 L26.7766878,411.9447 Z M-10.3083667,-69.5781906 L-47.3934214,-69.5781906 L-47.3934214,-73.8967817 L-12.489841,-73.8967817 L-12.489841,-108.445509 L-8.12689295,-108.445509 L-8.12689295,-69.5781906 L-10.3083667,-69.5781906 Z M585.233982,-73.8967817 L615.774616,-73.8967817 L615.774616,-69.5781906 L580.871034,-69.5781906 L580.871034,-108.445509 L585.233982,-108.445509 L585.233982,-73.8967817 Z M515.42682,515.590884 L515.42682,547.980315 L511.063872,547.980315 L511.063872,517.750176 L480.523239,517.750176 L480.523239,547.980315 L476.160292,547.980315 L476.160292,513.431586 L515.42682,513.431586 L515.42682,515.590884 Z M-38.3285731,92.6610174 C-35.7957177,94.7084863 -34.3198242,97.7692587 -34.3045789,101.006152 C-34.3039101,104.248579 -35.7755011,107.319626 -38.3126596,109.370574 C-40.849818,111.421521 -44.1838745,112.235185 -47.3934214,111.5867 L-47.3934214,107.116958 C-44.6822655,108.060995 -41.666133,107.14372 -39.9582031,104.855737 C-38.2502732,102.567755 -38.2502732,99.4445486 -39.9582031,97.1565661 C-41.666133,94.8685837 -44.6822655,93.9513086 -47.3934214,94.8953454 L-47.3934214,90.425604 C-44.1861733,89.7936584 -40.861429,90.6135485 -38.3285731,92.6610174 Z M127.124483,478.882859 L131.48743,478.882859 L131.48743,547.980315 L127.124483,547.980315 L127.124483,478.882859 Z M205.28669,547.980315 C204.365084,545.387122 201.89032,543.652091 199.113119,543.652091 C196.335917,543.652091 193.861153,545.387122 192.939548,547.980315 L188.423897,547.980315 C189.456154,542.948456 193.925832,539.332307 199.113119,539.332307 C204.300405,539.332307 208.770083,542.948456 209.80234,547.980315 L205.28669,547.980315 Z M-37.5213434,-98.6737971 C-40.1055341,-96.1158795 -43.8085246,-95.0025413 -47.3934214,-95.7056658 L-47.3934214,-100.175407 C-45.0148988,-99.3407409 -42.3634671,-99.9341044 -40.5790315,-101.700399 C-38.7945954,-103.466693 -38.1951377,-106.091168 -39.0383772,-108.445509 L-34.5227264,-108.445509 C-33.8123797,-104.897059 -34.9371533,-101.231715 -37.5213434,-98.6737971 Z M611.782519,-108.445509 C611.203057,-106.82486 611.298195,-105.042681 612.046973,-103.491501 C612.795745,-101.940321 614.13675,-100.747374 615.774616,-100.175407 L615.774616,-95.7056658 C612.939367,-96.2778202 610.44999,-97.9416651 608.854378,-100.330995 C607.258771,-102.720326 606.687702,-105.639316 607.266866,-108.445509 L611.782519,-108.445509 Z M615.774616,544.028806 C613.908847,544.68089 612.441303,546.133519 611.782519,547.980315 L607.266866,547.980315 C608.140776,543.738835 611.489571,540.424084 615.774616,539.55906 L615.774616,544.028806 Z M169.877173,104.245095 C171.046221,102.24083 171.046221,99.7714733 169.877173,97.7672084 C168.708125,95.7629436 166.547634,94.5282653 164.209538,94.5282653 C160.595153,94.5282653 157.665116,97.4285139 157.665116,101.006152 C157.665116,104.583789 160.595153,107.484038 164.209538,107.484038 C166.547634,107.484038 168.708125,106.24936 169.877173,104.245095 Z M170.753959,66.4574241 C170.753959,62.8797864 167.823921,59.9795378 164.209538,59.9795378 C160.595153,59.9795378 157.665116,62.8797864 157.665116,66.4574241 C157.665116,70.0350618 160.595153,72.9353105 164.209538,72.9353105 C167.823921,72.9353105 170.753959,70.0350618 170.753959,66.4574241 Z M204.780754,104.245095 C205.949802,102.24083 205.949802,99.7714733 204.780754,97.7672084 C203.611705,95.7629436 201.451215,94.5282653 199.113119,94.5282653 C195.498734,94.5282653 192.568697,97.4285139 192.568697,101.006152 C192.568697,104.583789 195.498734,107.484038 199.113119,107.484038 C201.451215,107.484038 203.611705,106.24936 204.780754,104.245095 Z M234.016699,142.032765 C237.631083,142.032765 240.561121,139.132517 240.561121,135.554879 C240.561121,131.977241 237.631083,129.076993 234.016699,129.076993 C230.402315,129.076993 227.472278,131.977241 227.472278,135.554879 C227.472278,139.132517 230.402315,142.032765 234.016699,142.032765 Z M234.016699,176.581493 C237.631083,176.581493 240.561121,173.681245 240.561121,170.103607 C240.561121,166.525969 237.631083,163.62572 234.016699,163.62572 C230.402315,163.62572 227.472278,166.525969 227.472278,170.103607 C227.472278,173.681245 230.402315,176.581493 234.016699,176.581493 Z M129.305957,245.678948 C132.920341,245.678948 135.850378,242.7787 135.850378,239.201062 C135.850378,235.623424 132.920341,232.723175 129.305957,232.723175 C125.691572,232.723175 122.761535,235.623424 122.761535,239.201062 C122.761535,242.7787 125.691572,245.678948 129.305957,245.678948 Z M170.753959,273.74979 C170.753959,270.172151 167.823921,267.271903 164.209538,267.271903 C160.595153,267.271903 157.665116,270.172151 157.665116,273.74979 C157.665116,277.327427 160.595153,280.227676 164.209538,280.227676 C167.823921,280.227676 170.753959,277.327427 170.753959,273.74979 Z M234.016699,383.873858 C237.631083,383.873858 240.561121,380.97361 240.561121,377.395972 C240.561121,373.818334 237.631083,370.918086 234.016699,370.918086 C230.402315,370.918086 227.472278,373.818334 227.472278,377.395972 C227.472278,380.97361 230.402315,383.873858 234.016699,383.873858 Z M199.113119,418.422586 C202.727502,418.422586 205.65754,415.522337 205.65754,411.9447 C205.65754,408.367062 202.727502,405.466813 199.113119,405.466813 C195.498734,405.466813 192.568697,408.367062 192.568697,411.9447 C192.568697,415.522337 195.498734,418.422586 199.113119,418.422586 Z M268.92028,383.873858 C272.534664,383.873858 275.464702,380.97361 275.464702,377.395972 C275.464702,373.818334 272.534664,370.918086 268.92028,370.918086 C265.305896,370.918086 262.375859,373.818334 262.375859,377.395972 C262.375859,380.97361 265.305896,383.873858 268.92028,383.873858 Z M268.92028,314.776403 C272.534664,314.776403 275.464702,311.876155 275.464702,308.298517 C275.464702,304.720879 272.534664,301.820631 268.92028,301.820631 C265.305896,301.820631 262.375859,304.720879 262.375859,308.298517 C262.375859,311.876155 265.305896,314.776403 268.92028,314.776403 Z M303.823861,383.873858 C307.438245,383.873858 310.368283,380.97361 310.368283,377.395972 C310.368283,373.818334 307.438245,370.918086 303.823861,370.918086 C300.209477,370.918086 297.27944,373.818334 297.27944,377.395972 C297.27944,380.97361 300.209477,383.873858 303.823861,383.873858 Z M373.631023,418.422586 C377.245407,418.422586 380.175444,415.522337 380.175444,411.9447 C380.175444,408.367062 377.245407,405.466813 373.631023,405.466813 C370.016639,405.466813 367.086602,408.367062 367.086602,411.9447 C367.086602,415.522337 370.016639,418.422586 373.631023,418.422586 Z M373.631023,383.873858 C377.245407,383.873858 380.175444,380.97361 380.175444,377.395972 C380.175444,373.818334 377.245407,370.918086 373.631023,370.918086 C370.016639,370.918086 367.086602,373.818334 367.086602,377.395972 C367.086602,380.97361 370.016639,383.873858 373.631023,383.873858 Z M338.727442,245.678948 C342.341826,245.678948 345.271864,242.7787 345.271864,239.201062 C345.271864,235.623424 342.341826,232.723175 338.727442,232.723175 C335.113058,232.723175 332.183021,235.623424 332.183021,239.201062 C332.183021,242.7787 335.113058,245.678948 338.727442,245.678948 Z M373.631023,245.678948 C377.245407,245.678948 380.175444,242.7787 380.175444,239.201062 C380.175444,235.623424 377.245407,232.723175 373.631023,232.723175 C370.016639,232.723175 367.086602,235.623424 367.086602,239.201062 C367.086602,242.7787 370.016639,245.678948 373.631023,245.678948 Z M415.079025,446.493427 C415.079025,442.915789 412.148988,440.015541 408.534604,440.015541 C404.920219,440.015541 401.990183,442.915789 401.990183,446.493427 C401.990183,450.071065 404.920219,452.971313 408.534604,452.971313 C412.148988,452.971313 415.079025,450.071065 415.079025,446.493427 Z M415.079025,481.042155 C415.079025,477.464517 412.148988,474.564268 408.534604,474.564268 C404.920219,474.564268 401.990183,477.464517 401.990183,481.042155 C401.990183,484.619793 404.920219,487.520041 408.534604,487.520041 C412.148988,487.520041 415.079025,484.619793 415.079025,481.042155 Z M443.438185,522.068767 C447.052569,522.068767 449.982606,519.168519 449.982606,515.590884 C449.982606,512.013244 447.052569,509.112996 443.438185,509.112996 C439.8238,509.112996 436.893763,512.013244 436.893763,515.590884 C436.893763,519.168519 439.8238,522.068767 443.438185,522.068767 Z M478.341766,211.130221 C481.95615,211.130221 484.886187,208.229972 484.886187,204.652334 C484.886187,201.074696 481.95615,198.174448 478.341766,198.174448 C474.727381,198.174448 471.797344,201.074696 471.797344,204.652334 C471.797344,208.229972 474.727381,211.130221 478.341766,211.130221 Z M478.341766,280.227676 C481.95615,280.227676 484.886187,277.327427 484.886187,273.74979 C484.886187,270.172151 481.95615,267.271903 478.341766,267.271903 C474.727381,267.271903 471.797344,270.172151 471.797344,273.74979 C471.797344,277.327427 474.727381,280.227676 478.341766,280.227676 Z M513.245347,211.130221 C516.85973,211.130221 519.789768,208.229972 519.789768,204.652334 C519.789768,201.074696 516.85973,198.174448 513.245347,198.174448 C509.630962,198.174448 506.700925,201.074696 506.700925,204.652334 C506.700925,208.229972 509.630962,211.130221 513.245347,211.130221 Z M548.148927,176.581493 C551.763311,176.581493 554.693349,173.681245 554.693349,170.103607 C554.693349,166.525969 551.763311,163.62572 548.148927,163.62572 C544.534543,163.62572 541.604506,166.525969 541.604506,170.103607 C541.604506,173.681245 544.534543,176.581493 548.148927,176.581493 Z M338.727442,176.581493 C342.341826,176.581493 345.271864,173.681245 345.271864,170.103607 C345.271864,166.525969 342.341826,163.62572 338.727442,163.62572 C335.113058,163.62572 332.183021,166.525969 332.183021,170.103607 C332.183021,173.681245 335.113058,176.581493 338.727442,176.581493 Z M338.727442,211.130221 C342.341826,211.130221 345.271864,208.229972 345.271864,204.652334 C345.271864,201.074696 342.341826,198.174448 338.727442,198.174448 C335.113058,198.174448 332.183021,201.074696 332.183021,204.652334 C332.183021,208.229972 335.113058,211.130221 338.727442,211.130221 Z M373.631023,142.032765 C377.245407,142.032765 380.175444,139.132517 380.175444,135.554879 C380.175444,131.977241 377.245407,129.076993 373.631023,129.076993 C370.016639,129.076993 367.086602,131.977241 367.086602,135.554879 C367.086602,139.132517 370.016639,142.032765 373.631023,142.032765 Z M583.052508,142.032765 C586.666892,142.032765 589.59693,139.132517 589.59693,135.554879 C589.59693,131.977241 586.666892,129.076993 583.052508,129.076993 C579.438124,129.076993 576.508087,131.977241 576.508087,135.554879 C576.508087,139.132517 579.438124,142.032765 583.052508,142.032765 Z M548.148927,3.83785546 C551.763311,3.83785546 554.693349,0.937606938 554.693349,-2.64003093 C554.693349,-6.21766882 551.763311,-9.11791736 548.148927,-9.11791736 C544.534543,-9.11791736 541.604506,-6.21766882 541.604506,-2.64003093 C541.604506,0.937606938 544.534543,3.83785546 548.148927,3.83785546 Z M583.052508,-30.7108721 C586.666892,-30.7108721 589.59693,-33.6111206 589.59693,-37.1887585 C589.59693,-40.7663964 586.666892,-43.6666449 583.052508,-43.6666449 C579.438124,-43.6666449 576.508087,-40.7663964 576.508087,-37.1887585 C576.508087,-33.6111206 579.438124,-30.7108721 583.052508,-30.7108721 Z M513.245347,-30.7108721 C516.85973,-30.7108721 519.789768,-33.6111206 519.789768,-37.1887585 C519.789768,-40.7663964 516.85973,-43.6666449 513.245347,-43.6666449 C509.630962,-43.6666449 506.700925,-40.7663964 506.700925,-37.1887585 C506.700925,-33.6111206 509.630962,-30.7108721 513.245347,-30.7108721 Z M513.245347,-65.2595995 C516.85973,-65.2595995 519.789768,-68.1598482 519.789768,-71.7374859 C519.789768,-75.3151241 516.85973,-78.2153722 513.245347,-78.2153722 C509.630962,-78.2153722 506.700925,-75.3151241 506.700925,-71.7374859 C506.700925,-68.1598482 509.630962,-65.2595995 513.245347,-65.2595995 Z M484.886187,-71.7374859 C484.886187,-75.3151241 481.95615,-78.2153722 478.341766,-78.2153722 C474.727381,-78.2153722 471.797344,-75.3151241 471.797344,-71.7374859 C471.797344,-68.1598482 474.727381,-65.2595995 478.341766,-65.2595995 C481.95615,-65.2595995 484.886187,-68.1598482 484.886187,-71.7374859 Z M449.982606,-71.7374859 C449.982606,-75.3151241 447.052569,-78.2153722 443.438185,-78.2153722 C439.8238,-78.2153722 436.893763,-75.3151241 436.893763,-71.7374859 C436.893763,-68.1598482 439.8238,-65.2595995 443.438185,-65.2595995 C447.052569,-65.2595995 449.982606,-68.1598482 449.982606,-71.7374859 Z M408.534604,-65.2595995 C412.148988,-65.2595995 415.079025,-68.1598482 415.079025,-71.7374859 C415.079025,-75.3151241 412.148988,-78.2153722 408.534604,-78.2153722 C404.920219,-78.2153722 401.990183,-75.3151241 401.990183,-71.7374859 C401.990183,-68.1598482 404.920219,-65.2595995 408.534604,-65.2595995 Z M59.4987949,-30.7108721 C63.113179,-30.7108721 66.0432163,-33.6111206 66.0432163,-37.1887585 C66.0432163,-40.7663964 63.113179,-43.6666449 59.4987949,-43.6666449 C55.8844107,-43.6666449 52.9543734,-40.7663964 52.9543734,-37.1887585 C52.9543734,-33.6111206 55.8844107,-30.7108721 59.4987949,-30.7108721 Z M-10.3083667,-30.7108721 C-6.69398282,-30.7108721 -3.76394546,-33.6111206 -3.76394546,-37.1887585 C-3.76394546,-40.7663964 -6.69398282,-43.6666449 -10.3083667,-43.6666449 C-13.9227511,-43.6666449 -16.8527884,-40.7663964 -16.8527884,-37.1887585 C-16.8527884,-33.6111206 -13.9227511,-30.7108721 -10.3083667,-30.7108721 Z M59.4987949,3.83785546 C63.113179,3.83785546 66.0432163,0.937606938 66.0432163,-2.64003093 C66.0432163,-6.21766882 63.113179,-9.11791736 59.4987949,-9.11791736 C55.8844107,-9.11791736 52.9543734,-6.21766882 52.9543734,-2.64003093 C52.9543734,0.937606938 55.8844107,3.83785546 59.4987949,3.83785546 Z M31.1396353,31.9086966 C31.1396353,28.3310587 28.2095981,25.4308102 24.595214,25.4308102 C20.9808298,25.4308102 18.0507925,28.3310587 18.0507925,31.9086966 C18.0507925,35.4863345 20.9808298,38.386583 24.595214,38.386583 C28.2095981,38.386583 31.1396353,35.4863345 31.1396353,31.9086966 Z M59.4987949,-65.2595995 C63.113179,-65.2595995 66.0432163,-68.1598482 66.0432163,-71.7374859 C66.0432163,-75.3151241 63.113179,-78.2153722 59.4987949,-78.2153722 C55.8844107,-78.2153722 52.9543734,-75.3151241 52.9543734,-71.7374859 C52.9543734,-68.1598482 55.8844107,-65.2595995 59.4987949,-65.2595995 Z M66.0432163,446.493427 C66.0432163,442.915789 63.113179,440.015541 59.4987949,440.015541 C55.8844107,440.015541 52.9543734,442.915789 52.9543734,446.493427 C52.9543734,450.071065 55.8844107,452.971313 59.4987949,452.971313 C63.113179,452.971313 66.0432163,450.071065 66.0432163,446.493427 Z M94.4023757,522.068767 C98.0167599,522.068767 100.946797,519.168519 100.946797,515.590884 C100.946797,512.013244 98.0167599,509.112996 94.4023757,509.112996 C90.7879916,509.112996 87.8579543,512.013244 87.8579543,515.590884 C87.8579543,519.168519 90.7879916,522.068767 94.4023757,522.068767 Z M59.4987949,383.873858 C63.113179,383.873858 66.0432163,380.97361 66.0432163,377.395972 C66.0432163,373.818334 63.113179,370.918086 59.4987949,370.918086 C55.8844107,370.918086 52.9543734,373.818334 52.9543734,377.395972 C52.9543734,380.97361 55.8844107,383.873858 59.4987949,383.873858 Z M59.4987949,418.422586 C63.113179,418.422586 66.0432163,415.522337 66.0432163,411.9447 C66.0432163,408.367062 63.113179,405.466813 59.4987949,405.466813 C55.8844107,405.466813 52.9543734,408.367062 52.9543734,411.9447 C52.9543734,415.522337 55.8844107,418.422586 59.4987949,418.422586 Z M31.1396353,342.847245 C31.1396353,339.269607 28.2095981,336.369358 24.595214,336.369358 C20.9808298,336.369358 18.0507925,339.269607 18.0507925,342.847245 C18.0507925,346.424882 20.9808298,349.325131 24.595214,349.325131 C28.2095981,349.325131 31.1396353,346.424882 31.1396353,342.847245 Z M199.113119,-30.7108721 C202.727502,-30.7108721 205.65754,-33.6111206 205.65754,-37.1887585 C205.65754,-40.7663964 202.727502,-43.6666449 199.113119,-43.6666449 C195.498734,-43.6666449 192.568697,-40.7663964 192.568697,-37.1887585 C192.568697,-33.6111206 195.498734,-30.7108721 199.113119,-30.7108721 Z M234.016699,-30.7108721 C237.631083,-30.7108721 240.561121,-33.6111206 240.561121,-37.1887585 C240.561121,-40.7663964 237.631083,-43.6666449 234.016699,-43.6666449 C230.402315,-43.6666449 227.472278,-40.7663964 227.472278,-37.1887585 C227.472278,-33.6111206 230.402315,-30.7108721 234.016699,-30.7108721 Z M199.113119,-65.2595995 C202.727502,-65.2595995 205.65754,-68.1598482 205.65754,-71.7374859 C205.65754,-75.3151241 202.727502,-78.2153722 199.113119,-78.2153722 C195.498734,-78.2153722 192.568697,-75.3151241 192.568697,-71.7374859 C192.568697,-68.1598482 195.498734,-65.2595995 199.113119,-65.2595995 Z M268.92028,38.386583 C272.534664,38.386583 275.464702,35.4863345 275.464702,31.9086966 C275.464702,28.3310587 272.534664,25.4308102 268.92028,25.4308102 C265.305896,25.4308102 262.375859,28.3310587 262.375859,31.9086966 C262.375859,35.4863345 265.305896,38.386583 268.92028,38.386583 Z M303.823861,3.83785546 C307.438245,3.83785546 310.368283,0.937606938 310.368283,-2.64003093 C310.368283,-6.21766882 307.438245,-9.11791736 303.823861,-9.11791736 C300.209477,-9.11791736 297.27944,-6.21766882 297.27944,-2.64003093 C297.27944,0.937606938 300.209477,3.83785546 303.823861,3.83785546 Z M310.368283,-71.7374859 C310.368283,-75.3151241 307.438245,-78.2153722 303.823861,-78.2153722 C300.209477,-78.2153722 297.27944,-75.3151241 297.27944,-71.7374859 C297.27944,-68.1598482 300.209477,-65.2595995 303.823861,-65.2595995 C307.438245,-65.2595995 310.368283,-68.1598482 310.368283,-71.7374859 Z M548.148927,314.776403 C551.763311,314.776403 554.693349,311.876155 554.693349,308.298517 C554.693349,304.720879 551.763311,301.820631 548.148927,301.820631 C544.534543,301.820631 541.604506,304.720879 541.604506,308.298517 C541.604506,311.876155 544.534543,314.776403 548.148927,314.776403 Z M519.789768,342.847245 C519.789768,339.269607 516.85973,336.369358 513.245347,336.369358 C509.630962,336.369358 506.700925,339.269607 506.700925,342.847245 C506.700925,346.424882 509.630962,349.325131 513.245347,349.325131 C516.85973,349.325131 519.789768,346.424882 519.789768,342.847245 Z M513.245347,383.873858 C516.85973,383.873858 519.789768,380.97361 519.789768,377.395972 C519.789768,373.818334 516.85973,370.918086 513.245347,370.918086 C509.630962,370.918086 506.700925,373.818334 506.700925,377.395972 C506.700925,380.97361 509.630962,383.873858 513.245347,383.873858 Z M513.245347,418.422586 C516.85973,418.422586 519.789768,415.522337 519.789768,411.9447 C519.789768,408.367062 516.85973,405.466813 513.245347,405.466813 C509.630962,405.466813 506.700925,408.367062 506.700925,411.9447 C506.700925,415.522337 509.630962,418.422586 513.245347,418.422586 Z M-10.3083667,280.227676 C-6.69398282,280.227676 -3.76394546,277.327427 -3.76394546,273.74979 C-3.76394546,270.172151 -6.69398282,267.271903 -10.3083667,267.271903 C-13.9227511,267.271903 -16.8527884,270.172151 -16.8527884,273.74979 C-16.8527884,277.327427 -13.9227511,280.227676 -10.3083667,280.227676 Z M-10.3083667,314.776403 C-6.69398282,314.776403 -3.76394546,311.876155 -3.76394546,308.298517 C-3.76394546,304.720879 -6.69398282,301.820631 -10.3083667,301.820631 C-13.9227511,301.820631 -16.8527884,304.720879 -16.8527884,308.298517 C-16.8527884,311.876155 -13.9227511,314.776403 -10.3083667,314.776403 Z M-10.3083667,245.678948 C-6.69398282,245.678948 -3.76394546,242.7787 -3.76394546,239.201062 C-3.76394546,235.623424 -6.69398282,232.723175 -10.3083667,232.723175 C-13.9227511,232.723175 -16.8527884,235.623424 -16.8527884,239.201062 C-16.8527884,242.7787 -13.9227511,245.678948 -10.3083667,245.678948 Z M24.595214,245.678948 C28.2095981,245.678948 31.1396353,242.7787 31.1396353,239.201062 C31.1396353,235.623424 28.2095981,232.723175 24.595214,232.723175 C20.9808298,232.723175 18.0507925,235.623424 18.0507925,239.201062 C18.0507925,242.7787 20.9808298,245.678948 24.595214,245.678948 Z M-10.3083667,72.9353105 C-6.69398282,72.9353105 -3.76394546,70.0350618 -3.76394546,66.4574241 C-3.76394546,62.8797864 -6.69398282,59.9795378 -10.3083667,59.9795378 C-13.9227511,59.9795378 -16.8527884,62.8797864 -16.8527884,66.4574241 C-16.8527884,70.0350618 -13.9227511,72.9353105 -10.3083667,72.9353105 Z M59.4987949,211.130221 C63.113179,211.130221 66.0432163,208.229972 66.0432163,204.652334 C66.0432163,201.074696 63.113179,198.174448 59.4987949,198.174448 C55.8844107,198.174448 52.9543734,201.074696 52.9543734,204.652334 C52.9543734,208.229972 55.8844107,211.130221 59.4987949,211.130221 Z M94.4023757,176.581493 C98.0167599,176.581493 100.946797,173.681245 100.946797,170.103607 C100.946797,166.525969 98.0167599,163.62572 94.4023757,163.62572 C90.7879916,163.62572 87.8579543,166.525969 87.8579543,170.103607 C87.8579543,173.681245 90.7879916,176.581493 94.4023757,176.581493 Z" id="Shape" fill="#FFFFFF" fill-rule="nonzero" opacity="0.34" mask="url(#mask-2)"></path>
                </g>
                <g id="Left-Circuit" transform="translate(64.000000, 0.000000)">
                    <mask id="mask-4" fill="white">
                        <use xlink:href="#path-3"></use>
                    </mask>
                    <use id="Path-3" stroke="#FFFFFF" stroke-width="10" xlink:href="#path-3"></use>
                    <path d="M48.8095732,375.236677 C49.9294649,369.806128 55.0217533,366.097092 60.592857,366.654167 C66.1639606,367.211241 70.4039376,371.853441 70.4039376,377.395972 C70.4039376,382.938503 66.1639606,387.580704 60.592857,388.137778 C55.0217533,388.694852 49.9294649,384.985816 48.8095732,379.555267 L-47.3934214,379.555267 L-47.3934214,375.236677 L48.8095732,375.236677 Z M397.845382,478.882859 C398.965274,473.45231 404.057562,469.743275 409.628666,470.300349 C415.199769,470.857423 419.439747,475.499624 419.439747,481.042155 C419.439747,486.584685 415.199769,491.226887 409.628666,491.783961 C404.057562,492.341034 398.965274,488.631999 397.845382,483.20145 L131.48743,483.20145 L131.48743,478.882859 L397.845382,478.882859 Z M512.151285,388.137778 C506.580181,387.580704 502.340204,382.938503 502.340204,377.395972 C502.340204,371.853441 506.580181,367.211241 512.151285,366.654167 C517.722388,366.097092 522.814677,369.806128 523.934568,375.236677 L615.774616,375.236677 L615.774616,379.555267 L523.934568,379.555267 C522.814677,384.985816 517.722388,388.694852 512.151285,388.137778 Z M523.934568,414.103995 C522.814677,419.534544 517.722388,423.243579 512.151285,422.686506 C506.580181,422.129431 502.340204,417.48723 502.340204,411.9447 C502.340204,406.402169 506.580181,401.759968 512.151285,401.202894 C517.722388,400.64582 522.814677,404.354855 523.934568,409.785404 L615.774616,409.785404 L615.774616,414.103995 L523.934568,414.103995 Z M537.459706,167.944311 C538.579597,162.513762 543.671886,158.804727 549.24299,159.361801 C554.814093,159.918875 559.05407,164.561076 559.05407,170.103607 C559.05407,175.646137 554.814093,180.288339 549.24299,180.845413 C543.671886,181.402486 538.579597,177.693451 537.459706,172.262902 L349.416664,172.262902 C348.296772,177.693451 343.204483,181.402486 337.63338,180.845413 C332.062276,180.288339 327.822299,175.646137 327.822299,170.103607 C327.822299,164.561076 332.062276,159.918875 337.63338,159.361801 C343.204483,158.804727 348.296772,162.513762 349.416664,167.944311 L537.459706,167.944311 Z M-9.2143046,55.7156187 C-3.64320112,56.2726926 0.59677566,60.9148935 0.59677566,66.4574241 C0.59677566,71.9999548 -3.64320112,76.6421556 -9.2143046,77.1992301 C-14.7854086,77.756304 -19.8776971,74.0472683 -20.9975885,68.6167194 L-47.3934214,68.6167194 L-47.3934214,64.2981288 L-20.9975885,64.2981288 C-19.8776971,58.8675799 -14.7854086,55.1585443 -9.2143046,55.7156187 Z M372.536961,146.296685 C366.965857,145.739611 362.72588,141.09741 362.72588,135.554879 C362.72588,130.012348 366.965857,125.370148 372.536961,124.813074 C378.108064,124.256 383.200353,127.965035 384.320245,133.395584 L572.363287,133.395584 C573.483178,127.965035 578.575467,124.256 584.14657,124.813074 C589.717674,125.370148 593.957653,130.012348 593.957653,135.554879 C593.957653,141.09741 589.717674,145.739611 584.14657,146.296685 C578.575467,146.853759 573.483178,143.144723 572.363287,137.714175 L384.320245,137.714175 C383.200353,143.144723 378.108064,146.853759 372.536961,146.296685 Z M515.42682,-82.318034 C520.913147,-81.2095277 524.660278,-76.1690111 524.097482,-70.654547 C523.534687,-65.140083 518.844805,-60.9432122 513.245347,-60.9432122 C507.645888,-60.9432122 502.956007,-65.140083 502.393211,-70.654547 C501.830415,-76.1690111 505.577546,-81.2095277 511.063872,-82.318034 L511.063872,-108.445509 L515.42682,-108.445509 L515.42682,-82.318034 Z M384.483159,378.478911 C383.920363,383.993375 379.230481,388.190246 373.631023,388.190246 C368.031564,388.190246 363.341683,383.993375 362.778887,378.478911 C362.216091,372.964447 365.963223,367.92393 371.449549,366.815424 L371.449549,249.78161 C365.963223,248.673103 362.216091,243.632587 362.778887,238.118123 C363.341683,232.603659 368.031564,228.406788 373.631023,228.406788 C379.230481,228.406788 383.920363,232.603659 384.483159,238.118123 C385.045954,243.632587 381.298823,248.673103 375.812497,249.78161 L375.812497,366.815424 C381.298823,367.92393 385.045954,372.964447 384.483159,378.478911 Z M480.523239,64.2981288 L615.774616,64.2981288 L615.774616,68.6167194 L476.160292,68.6167194 L476.160292,-61.1569383 C470.673965,-62.2654446 466.926834,-67.3059612 467.48963,-72.8204252 C468.052426,-78.3348893 472.742307,-82.5317598 478.341766,-82.5317598 C483.941224,-82.5317598 488.631106,-78.3348893 489.193901,-72.8204252 C489.756697,-67.3059612 486.009566,-62.2654446 480.523239,-61.1569383 L480.523239,64.2981288 Z M515.42682,29.7494011 L615.774616,29.7494011 L615.774616,34.0679921 L511.063872,34.0679921 L511.063872,-26.6082107 C505.577546,-27.7167168 501.830415,-32.7572336 502.393211,-38.2716976 C502.956007,-43.7861616 507.645888,-47.9830323 513.245347,-47.9830323 C518.844805,-47.9830323 523.534687,-43.7861616 524.097482,-38.2716976 C524.660278,-32.7572336 520.913147,-27.7167168 515.42682,-26.6082107 L515.42682,29.7494011 Z M236.198173,180.684155 L236.198173,340.687949 L271.101754,340.687949 L271.101754,366.815424 C276.58808,367.92393 280.335211,372.964447 279.772416,378.478911 C279.20962,383.993375 274.519739,388.190246 268.92028,388.190246 C263.320822,388.190246 258.63094,383.993375 258.068145,378.478911 C257.505349,372.964447 261.25248,367.92393 266.738806,366.815424 L266.738806,345.00654 L231.835226,345.00654 L231.835226,180.684155 C226.348899,179.575648 222.601768,174.535132 223.164564,169.020668 C223.727359,163.506204 228.417241,159.309333 234.016699,159.309333 C239.616158,159.309333 244.30604,163.506204 244.868835,169.020668 C245.431631,174.535132 241.684499,179.575648 236.198173,180.684155 Z M223.327478,133.395584 C224.447369,127.965035 229.539658,124.256 235.110762,124.813074 C240.681865,125.370148 244.921842,130.012348 244.921842,135.554879 C244.921842,141.09741 240.681865,145.739611 235.110762,146.296685 C229.539658,146.853759 224.447369,143.144723 223.327478,137.714175 L201.294592,137.714175 L201.294592,241.360357 L139.995178,241.360357 C138.875287,246.790906 133.782998,250.499941 128.211895,249.942868 C122.640791,249.385794 118.400814,244.743592 118.400814,239.201062 C118.400814,233.658531 122.640791,229.01633 128.211895,228.459256 C133.782998,227.902182 138.875287,231.611218 139.995178,237.041766 L196.931645,237.041766 L196.931645,133.395584 L223.327478,133.395584 Z M198.019056,422.686506 C192.447952,422.129431 188.207976,417.48723 188.207976,411.9447 C188.207976,406.402169 192.447952,401.759968 198.019056,401.202894 C203.59016,400.64582 208.682448,404.354855 209.80234,409.785404 L336.545968,409.785404 L336.545968,249.78161 C331.059642,248.673103 327.31251,243.632587 327.875306,238.118123 C328.438102,232.603659 333.127984,228.406788 338.727442,228.406788 C344.3269,228.406788 349.016782,232.603659 349.579578,238.118123 C350.142373,243.632587 346.395242,248.673103 340.908916,249.78161 L340.908916,414.103995 L209.80234,414.103995 C208.682448,419.534544 203.59016,423.243579 198.019056,422.686506 Z M163.115475,284.491595 C157.544372,283.934521 153.304395,279.29232 153.304395,273.74979 C153.304395,268.207259 157.544372,263.565058 163.115475,263.007984 C168.686579,262.45091 173.778867,266.159945 174.898759,271.590494 L201.294592,271.590494 L201.294592,375.236677 L223.327478,375.236677 C224.447369,369.806128 229.539658,366.097092 235.110762,366.654167 C240.681865,367.211241 244.921842,371.853441 244.921842,377.395972 C244.921842,382.938503 240.681865,387.580704 235.110762,388.137778 C229.539658,388.694852 224.447369,384.985816 223.327478,379.555267 L196.931645,379.555267 L196.931645,275.909085 L174.898759,275.909085 C173.778867,281.339634 168.686579,285.048669 163.115475,284.491595 Z M96.5838495,505.010334 C102.070176,506.118841 105.817307,511.159357 105.254512,516.673819 C104.691716,522.188284 100.001834,526.385158 94.4023757,526.385158 C88.8029173,526.385158 84.1130357,522.188284 83.5502399,516.673819 C82.9874442,511.159357 86.7345755,506.118841 92.2209019,505.010334 L92.2209019,483.20145 L61.6802687,483.20145 L61.6802687,547.980315 L57.317321,547.980315 L57.317321,478.882859 L96.5838495,478.882859 L96.5838495,505.010334 Z M467.652544,271.590494 C468.772436,266.159945 473.864724,262.45091 479.435828,263.007984 C485.006931,263.565058 489.246909,268.207259 489.246909,273.74979 C489.246909,279.29232 485.006931,283.934521 479.435828,284.491595 C473.864724,285.048669 468.772436,281.339634 467.652544,275.909085 L445.619658,275.909085 L445.619658,478.882859 L550.330401,478.882859 L550.330401,547.980315 L545.967453,547.980315 L545.967453,483.20145 L441.256711,483.20145 L441.256711,271.590494 L467.652544,271.590494 Z M523.934568,206.81163 C522.814677,212.242178 517.722388,215.951214 512.151285,215.39414 C506.580181,214.837066 502.340204,210.194865 502.340204,204.652334 C502.340204,199.109804 506.580181,194.467603 512.151285,193.910529 C517.722388,193.353455 522.814677,197.06249 523.934568,202.493039 L550.330401,202.493039 L550.330401,297.717969 C555.816728,298.826475 559.563859,303.866992 559.001063,309.381456 C558.438267,314.89592 553.748386,319.092791 548.148927,319.092791 C542.549469,319.092791 537.859588,314.89592 537.296792,309.381456 C536.733996,303.866992 540.481127,298.826475 545.967453,297.717969 L545.967453,206.81163 L523.934568,206.81163 Z M372.536961,422.686506 C366.965857,422.129431 362.72588,417.48723 362.72588,411.9447 C362.72588,406.402169 366.965857,401.759968 372.536961,401.202894 C378.108064,400.64582 383.200353,404.354855 384.320245,409.785404 L406.35313,409.785404 L406.35313,237.041766 L441.256711,237.041766 L441.256711,206.81163 L349.416664,206.81163 C348.296772,212.242178 343.204483,215.951214 337.63338,215.39414 C332.062276,214.837066 327.822299,210.194865 327.822299,204.652334 C327.822299,199.109804 332.062276,194.467603 337.63338,193.910529 C343.204483,193.353455 348.296772,197.06249 349.416664,202.493039 L445.619658,202.493039 L445.619658,241.360357 L410.716077,241.360357 L410.716077,414.103995 L384.320245,414.103995 C383.200353,419.534544 378.108064,423.243579 372.536961,422.686506 Z M584.14657,-47.9305642 C589.717674,-47.3734902 593.957653,-42.731289 593.957653,-37.1887585 C593.957653,-31.6462279 589.717674,-27.0040268 584.14657,-26.4469529 C578.575467,-25.8898789 573.483178,-29.5989143 572.363287,-35.029463 L545.967453,-35.029463 L545.967453,-108.445509 L550.330401,-108.445509 L550.330401,-39.348054 L572.363287,-39.348054 C573.483178,-44.7786027 578.575467,-48.4876381 584.14657,-47.9305642 Z M166.391011,111.5867 L166.391011,206.81163 L70.1880165,206.81163 C69.0681248,212.242178 63.9758363,215.951214 58.4047327,215.39414 C52.8336291,214.837066 48.593652,210.194865 48.593652,204.652334 C48.593652,199.109804 52.8336291,194.467603 58.4047327,193.910529 C63.9758363,193.353455 69.0681248,197.06249 70.1880165,202.493039 L162.028064,202.493039 L162.028064,111.5867 C156.541737,110.478193 152.794606,105.437677 153.357402,99.9232128 C153.920198,94.4087487 158.610079,90.2118777 164.209538,90.2118777 C169.808996,90.2118777 174.498878,94.4087487 175.061673,99.9232128 C175.624469,105.437677 171.877338,110.478193 166.391011,111.5867 Z M70.1880165,-35.029463 C69.0681248,-29.5989143 63.9758363,-25.8898789 58.4047327,-26.4469529 C52.8336291,-27.0040268 48.593652,-31.6462279 48.593652,-37.1887585 C48.593652,-42.731289 52.8336291,-47.3734902 58.4047327,-47.9305642 C63.9758363,-48.4876381 69.0681248,-44.7786027 70.1880165,-39.348054 L127.124483,-39.348054 L127.124483,-108.445509 L131.48743,-108.445509 L131.48743,-35.029463 L70.1880165,-35.029463 Z M201.294592,-26.6082107 L201.294592,34.0679921 L131.48743,34.0679921 L131.48743,172.262902 L105.091597,172.262902 C103.971706,177.693451 98.8794173,181.402486 93.3083136,180.845413 C87.73721,180.288339 83.4972329,175.646137 83.4972329,170.103607 C83.4972329,164.561076 87.73721,159.918875 93.3083136,159.361801 C98.8794173,158.804727 103.971706,162.513762 105.091597,167.944311 L127.124483,167.944311 L127.124483,29.7494011 L196.931645,29.7494011 L196.931645,-26.6082107 C191.445318,-27.7167168 187.698187,-32.7572336 188.260983,-38.2716976 C188.823778,-43.7861616 193.51366,-47.9830323 199.113119,-47.9830323 C204.712577,-47.9830323 209.402459,-43.7861616 209.965254,-38.2716976 C210.52805,-32.7572336 206.780918,-27.7167168 201.294592,-26.6082107 Z M174.898759,68.6167194 C173.778867,74.0472683 168.686579,77.756304 163.115475,77.1992301 C157.544372,76.6421556 153.304395,71.9999548 153.304395,66.4574241 C153.304395,60.9148935 157.544372,56.2726926 163.115475,55.7156187 C168.686579,55.1585443 173.778867,58.8675799 174.898759,64.2981288 L231.835226,64.2981288 L231.835226,-26.6082107 C226.348899,-27.7167168 222.601768,-32.7572336 223.164564,-38.2716976 C223.727359,-43.7861616 228.417241,-47.9830323 234.016699,-47.9830323 C239.616158,-47.9830323 244.30604,-43.7861616 244.868835,-38.2716976 C245.431631,-32.7572336 241.684499,-27.7167168 236.198173,-26.6082107 L236.198173,68.6167194 L174.898759,68.6167194 Z M209.80234,-69.5781906 C208.682448,-64.1476417 203.59016,-60.4386064 198.019056,-60.9956804 C192.447952,-61.5527544 188.207976,-66.1949557 188.207976,-71.7374859 C188.207976,-77.2800165 192.447952,-81.9222179 198.019056,-82.4792918 C203.59016,-83.0363657 208.682448,-79.3273301 209.80234,-73.8967817 L271.101754,-73.8967817 L271.101754,21.3281488 C276.58808,22.4366549 280.335211,27.4771717 279.772416,32.9916358 C279.20962,38.5060998 274.519739,42.7029704 268.92028,42.7029704 C263.320822,42.7029704 258.63094,38.5060998 258.068145,32.9916358 C257.505349,27.4771717 261.25248,22.4366549 266.738806,21.3281488 L266.738806,-69.5781906 L209.80234,-69.5781906 Z M444.532247,504.849077 C450.10335,505.406151 454.343328,510.048352 454.343328,515.590884 C454.343328,521.133415 450.10335,525.775616 444.532247,526.332689 C438.961143,526.889762 433.868855,523.180728 432.748963,517.750176 L166.391011,517.750176 L166.391011,547.980315 L162.028064,547.980315 L162.028064,513.431586 L432.748963,513.431586 C433.868855,508.001038 438.961143,504.292003 444.532247,504.849077 Z M480.523239,237.041766 L515.42682,237.041766 L515.42682,310.457812 L480.523239,310.457812 L480.523239,444.334132 L585.233982,444.334132 L585.233982,547.980315 L580.871034,547.980315 L580.871034,448.652723 L476.160292,448.652723 L476.160292,306.139221 L511.063872,306.139221 L511.063872,241.360357 L476.160292,241.360357 L476.160292,215.232882 C470.673965,214.124376 466.926834,209.083859 467.48963,203.569395 C468.052426,198.054931 472.742307,193.858061 478.341766,193.858061 C483.941224,193.858061 488.631106,198.054931 489.193901,203.569395 C489.756697,209.083859 486.009566,214.124376 480.523239,215.232882 L480.523239,237.041766 Z M70.1880165,-69.5781906 C69.0681248,-64.1476417 63.9758363,-60.4386064 58.4047327,-60.9956804 C52.8336291,-61.5527544 48.593652,-66.1949557 48.593652,-71.7374859 C48.593652,-77.2800165 52.8336291,-81.9222179 58.4047327,-82.4792918 C63.9758363,-83.0363657 69.0681248,-79.3273301 70.1880165,-73.8967817 L92.2209019,-73.8967817 L92.2209019,-104.126918 L57.317321,-104.126918 L57.317321,-108.445509 L96.5838495,-108.445509 L96.5838495,-69.5781906 L70.1880165,-69.5781906 Z M314.513083,-0.480735452 C313.393191,4.94981325 308.300903,8.6588487 302.729799,8.10177469 C297.158695,7.54470074 292.918719,2.90249961 292.918719,-2.64003093 C292.918719,-8.18256149 297.158695,-12.8247626 302.729799,-13.3818366 C308.300903,-13.9389106 313.393191,-10.2298751 314.513083,-4.79932642 L371.449549,-4.79932642 L371.449549,-108.445509 L480.523239,-108.445509 L480.523239,-104.126918 L375.812497,-104.126918 L375.812497,-0.480735452 L314.513083,-0.480735452 Z M209.80234,-104.126918 C209.022974,-100.346853 206.265457,-97.265487 202.568518,-96.0435429 C198.871578,-94.8215983 194.79687,-95.6447168 191.879296,-98.2028382 C188.961722,-100.76096 187.644531,-104.665443 188.423897,-108.445509 L192.939548,-108.445509 C191.985815,-105.761916 192.912511,-102.776448 195.223994,-101.085882 C197.535476,-99.395316 200.690761,-99.395316 203.002243,-101.085882 C205.313726,-102.776448 206.240422,-105.761916 205.28669,-108.445509 L340.908916,-108.445509 L340.908916,-35.029463 L301.642387,-35.029463 L301.642387,-61.1569383 C296.156061,-62.2654446 292.408929,-67.3059612 292.971725,-72.8204252 C293.534521,-78.3348893 298.224403,-82.5317598 303.823861,-82.5317598 C309.42332,-82.5317598 314.113201,-78.3348893 314.675997,-72.8204252 C315.238792,-67.3059612 311.491661,-62.2654446 306.005335,-61.1569383 L306.005335,-39.348054 L336.545968,-39.348054 L336.545968,-104.126918 L209.80234,-104.126918 Z M209.80234,103.165447 C208.682448,108.595996 203.59016,112.305031 198.019056,111.747958 C192.447952,111.190883 188.207976,106.548682 188.207976,101.006152 C188.207976,95.463621 192.447952,90.8214201 198.019056,90.2643462 C203.59016,89.7072723 208.682448,93.4163074 209.80234,98.8468563 L251.46849,98.8468563 L321.275651,29.7494011 L406.35313,29.7494011 L406.35313,-61.1569383 C400.866803,-62.2654446 397.119672,-67.3059612 397.682468,-72.8204252 C398.245264,-78.3348893 402.935145,-82.5317598 408.534604,-82.5317598 C414.134062,-82.5317598 418.823944,-78.3348893 419.38674,-72.8204252 C419.949535,-67.3059612 416.202404,-62.2654446 410.716077,-61.1569383 L410.716077,34.0679921 L323.086275,34.0679921 L253.279113,103.165447 L209.80234,103.165447 Z M271.101754,297.717969 C276.58808,298.826475 280.335212,303.866992 279.772416,309.381456 C279.20962,314.89592 274.519739,319.092791 268.92028,319.092791 C263.320822,319.092791 258.63094,314.89592 258.068145,309.381456 C257.505349,303.866992 261.25248,298.826475 266.738806,297.717969 L266.738806,132.510273 L335.651564,64.2981288 L441.256711,64.2981288 L441.256711,-61.1569383 C435.770384,-62.2654446 432.023253,-67.3059612 432.586049,-72.8204252 C433.148845,-78.3348893 437.838726,-82.5317598 443.438185,-82.5317598 C449.037643,-82.5317598 453.727525,-78.3348893 454.290321,-72.8204252 C454.853116,-67.3059612 451.105985,-62.2654446 445.619658,-61.1569383 L445.619658,68.6167194 L337.440372,68.6167194 L271.101754,134.280895 L271.101754,297.717969 Z M306.005335,366.815424 C311.491661,367.92393 315.238792,372.964447 314.675997,378.478911 C314.113201,383.993375 309.42332,388.190246 303.823861,388.190246 C298.224403,388.190246 293.534521,383.993375 292.971725,378.478911 C292.408929,372.964447 296.156061,367.92393 301.642387,366.815424 L301.642387,151.943932 L355.284828,98.8468563 L607.266866,98.8468563 C608.140776,94.6053765 611.489571,91.2906279 615.774616,90.425604 L615.774616,94.8953454 C613.15479,95.8075811 611.40194,98.2571853 611.40194,101.006152 C611.40194,103.755118 613.15479,106.204723 615.774616,107.116958 L615.774616,111.5867 C611.489571,110.721675 608.140776,107.406927 607.266866,103.165447 L357.073637,103.165447 L306.005335,153.714554 L306.005335,366.815424 Z M-8.12689295,228.620514 C-2.64056677,229.72902 1.10656436,234.769537 0.543768606,240.284001 C-0.0190271489,245.798465 -4.70890837,249.995335 -10.3083667,249.995335 C-15.9078255,249.995335 -20.5977068,245.798465 -21.1605025,240.284001 C-21.7232983,234.769537 -17.9761671,229.72902 -12.489841,228.620514 L-12.489841,221.041387 L92.2209019,117.395204 L92.2209019,-4.79932642 L162.028064,-4.79932642 L162.028064,-108.445509 L166.391011,-108.445509 L166.391011,-0.480735452 L96.5838495,-0.480735452 L96.5838495,119.165827 L-8.12689295,222.812009 L-8.12689295,228.620514 Z M61.6802687,101.891463 L-43.0304739,205.537645 L-43.0304739,340.687949 L13.9059925,340.687949 C15.0258839,335.2574 20.1181724,331.548365 25.689276,332.105439 C31.2603797,332.662513 35.5003568,337.304714 35.5003568,342.847245 C35.5003568,348.389775 31.2603797,353.031976 25.689276,353.58905 C20.1181724,354.146124 15.0258839,350.437089 13.9059925,345.00654 L-47.3934214,345.00654 L-47.3934214,203.767023 L57.317321,100.12084 L57.317321,7.9405169 C51.8309946,6.83201076 48.0838633,1.79149392 48.646659,-3.72297009 C49.2094548,-9.2374341 53.8993364,-13.4343047 59.4987949,-13.4343047 C65.0982533,-13.4343047 69.7881349,-9.2374341 70.3509306,-3.72297009 C70.9137264,1.79149392 67.166595,6.83201076 61.6802687,7.9405169 L61.6802687,101.891463 Z M26.7766878,42.4892444 L26.7766878,84.6170991 L-47.3934214,158.033145 L-47.3934214,151.943932 L22.4137402,82.8464766 L22.4137402,42.4892444 C16.9274138,41.3807383 13.1802822,36.3402215 13.7430779,30.8257575 C14.3058737,25.3112935 18.9957555,21.1144228 24.595214,21.1144228 C30.1946724,21.1144228 34.884554,25.3112935 35.4473497,30.8257575 C36.0101455,36.3402215 32.2630141,41.3807383 26.7766878,42.4892444 Z M-20.9975885,-39.348054 C-19.8776971,-44.7786027 -14.7854086,-48.4876381 -9.2143046,-47.9305642 C-3.64320112,-47.3734902 0.59677566,-42.731289 0.59677566,-37.1887585 C0.59677566,-31.6462279 -3.64320112,-27.0040268 -9.2143046,-26.4469529 C-14.7854086,-25.8898789 -19.8776971,-29.5989143 -20.9975885,-35.029463 L-26.8657529,-35.029463 L-47.3934214,-14.7104926 L-47.3934214,-20.7781129 L-28.6545615,-39.348054 L-20.9975885,-39.348054 Z M547.054865,8.10177469 C541.483761,7.54470074 537.243785,2.90249961 537.243785,-2.64003093 C537.243785,-8.18256149 541.483761,-12.8247626 547.054865,-13.3818366 C552.625969,-13.9389106 557.718257,-10.2298751 558.838149,-4.79932642 L599.609897,-4.79932642 L615.774616,-20.7997059 L615.774616,-14.7104926 L601.398704,-0.480735452 L558.838149,-0.480735452 C557.718257,4.94981325 552.625969,8.6588487 547.054865,8.10177469 Z M512.151285,353.58905 C506.580181,353.031976 502.340204,348.389775 502.340204,342.847245 C502.340204,337.304714 506.580181,332.662513 512.151285,332.105439 C517.722388,331.548365 522.814677,335.2574 523.934568,340.687949 L580.871034,340.687949 L580.871034,186.49266 L615.774616,151.943932 L615.774616,158.033145 L585.233982,188.263282 L585.233982,345.00654 L523.934568,345.00654 C522.814677,350.437089 517.722388,354.146124 512.151285,353.58905 Z M58.4047327,422.686506 C52.8336291,422.129431 48.593652,417.48723 48.593652,411.9447 C48.593652,406.402169 52.8336291,401.759968 58.4047327,401.202894 C63.9758363,400.64582 69.0681248,404.354855 70.1880165,409.785404 L92.2209019,409.785404 L92.2209019,361.00692 L41.1526001,310.457812 L0.380854553,310.457812 C-0.739036798,315.888361 -5.83132531,319.597396 -11.4024293,319.040323 C-16.9735328,318.483249 -21.2135096,313.841048 -21.2135096,308.298517 C-21.2135096,302.755986 -16.9735328,298.113786 -11.4024293,297.556711 C-5.83132531,296.999637 -0.739036798,300.708673 0.380854553,306.139221 L42.9414086,306.139221 L96.5838495,359.236297 L96.5838495,414.103995 L70.1880165,414.103995 C69.0681248,419.534544 63.9758363,423.243579 58.4047327,422.686506 Z M409.628666,435.751622 C415.199769,436.308696 419.439747,440.950896 419.439747,446.493427 C419.439747,452.035958 415.199769,456.678159 409.628666,457.235233 C404.057562,457.792307 398.965274,454.083271 397.845382,448.652723 L162.028064,448.652723 L162.028064,326.436599 L76.0779957,241.360357 L35.2844356,241.360357 C34.1645439,246.790906 29.0722554,250.499941 23.5011518,249.942868 C17.9300482,249.385794 13.6900714,244.743592 13.6900714,239.201062 C13.6900714,233.658531 17.9300482,229.01633 23.5011518,228.459256 C29.0722554,227.902182 34.1645439,231.611218 35.2844356,237.041766 L77.8231748,237.041766 L166.391011,324.709163 L166.391011,444.334132 L397.845382,444.334132 C398.965274,438.903583 404.057562,435.194548 409.628666,435.751622 Z M58.4047327,457.235233 C52.8336291,456.678159 48.593652,452.035958 48.593652,446.493427 C48.593652,440.950896 52.8336291,436.308696 58.4047327,435.751622 C63.9758363,435.194548 69.0681248,438.903583 70.1880165,444.334132 L127.124483,444.334132 L127.124483,343.732556 L58.6043906,275.909085 L0.380854553,275.909085 C-0.739036798,281.339634 -5.83132531,285.048669 -11.4024293,284.491595 C-16.9735328,283.934521 -21.2135096,279.29232 -21.2135096,273.74979 C-21.2135096,268.207259 -16.9735328,263.565058 -11.4024293,263.007984 C-5.83132531,262.45091 -0.739036798,266.159945 0.380854553,271.590494 L60.3931991,271.590494 L131.48743,341.961933 L131.48743,448.652723 L70.1880165,448.652723 C69.0681248,454.083271 63.9758363,457.792307 58.4047327,457.235233 Z M26.7766878,-22.5055493 L26.7766878,-19.0290836 L-26.8657529,34.0679921 L-47.3934214,34.0679921 L-47.3934214,29.7494011 L-28.6545615,29.7494011 L22.4137402,-20.7997059 L22.4137402,-108.445509 L26.7766878,-108.445509 L26.7766878,-22.5055493 Z M-43.0304739,539.55906 C-38.7454296,540.424084 -35.3966351,543.738835 -34.5227264,547.980315 L-39.0383772,547.980315 C-39.616218,546.3591 -40.8214184,545.031733 -42.3885306,544.290565 C-43.9556429,543.549401 -45.7561271,543.455234 -47.3934214,544.028806 L-47.3934214,444.334132 L-8.12689295,444.334132 L-8.12689295,547.980315 L-12.489841,547.980315 L-12.489841,448.652723 L-43.0304739,448.652723 L-43.0304739,539.55906 Z M26.7766878,411.9447 L26.7766878,547.980315 L22.4137402,547.980315 L22.4137402,414.103995 L-47.3934214,414.103995 L-47.3934214,409.785404 L26.7766878,409.785404 L26.7766878,411.9447 Z M-10.3083667,-69.5781906 L-47.3934214,-69.5781906 L-47.3934214,-73.8967817 L-12.489841,-73.8967817 L-12.489841,-108.445509 L-8.12689295,-108.445509 L-8.12689295,-69.5781906 L-10.3083667,-69.5781906 Z M585.233982,-73.8967817 L615.774616,-73.8967817 L615.774616,-69.5781906 L580.871034,-69.5781906 L580.871034,-108.445509 L585.233982,-108.445509 L585.233982,-73.8967817 Z M515.42682,515.590884 L515.42682,547.980315 L511.063872,547.980315 L511.063872,517.750176 L480.523239,517.750176 L480.523239,547.980315 L476.160292,547.980315 L476.160292,513.431586 L515.42682,513.431586 L515.42682,515.590884 Z M-38.3285731,92.6610174 C-35.7957177,94.7084863 -34.3198242,97.7692587 -34.3045789,101.006152 C-34.3039101,104.248579 -35.7755011,107.319626 -38.3126596,109.370574 C-40.849818,111.421521 -44.1838745,112.235185 -47.3934214,111.5867 L-47.3934214,107.116958 C-44.6822655,108.060995 -41.666133,107.14372 -39.9582031,104.855737 C-38.2502732,102.567755 -38.2502732,99.4445486 -39.9582031,97.1565661 C-41.666133,94.8685837 -44.6822655,93.9513086 -47.3934214,94.8953454 L-47.3934214,90.425604 C-44.1861733,89.7936584 -40.861429,90.6135485 -38.3285731,92.6610174 Z M127.124483,478.882859 L131.48743,478.882859 L131.48743,547.980315 L127.124483,547.980315 L127.124483,478.882859 Z M205.28669,547.980315 C204.365084,545.387122 201.89032,543.652091 199.113119,543.652091 C196.335917,543.652091 193.861153,545.387122 192.939548,547.980315 L188.423897,547.980315 C189.456154,542.948456 193.925832,539.332307 199.113119,539.332307 C204.300405,539.332307 208.770083,542.948456 209.80234,547.980315 L205.28669,547.980315 Z M-37.5213434,-98.6737971 C-40.1055341,-96.1158795 -43.8085246,-95.0025413 -47.3934214,-95.7056658 L-47.3934214,-100.175407 C-45.0148988,-99.3407409 -42.3634671,-99.9341044 -40.5790315,-101.700399 C-38.7945954,-103.466693 -38.1951377,-106.091168 -39.0383772,-108.445509 L-34.5227264,-108.445509 C-33.8123797,-104.897059 -34.9371533,-101.231715 -37.5213434,-98.6737971 Z M611.782519,-108.445509 C611.203057,-106.82486 611.298195,-105.042681 612.046973,-103.491501 C612.795745,-101.940321 614.13675,-100.747374 615.774616,-100.175407 L615.774616,-95.7056658 C612.939367,-96.2778202 610.44999,-97.9416651 608.854378,-100.330995 C607.258771,-102.720326 606.687702,-105.639316 607.266866,-108.445509 L611.782519,-108.445509 Z M615.774616,544.028806 C613.908847,544.68089 612.441303,546.133519 611.782519,547.980315 L607.266866,547.980315 C608.140776,543.738835 611.489571,540.424084 615.774616,539.55906 L615.774616,544.028806 Z M169.877173,104.245095 C171.046221,102.24083 171.046221,99.7714733 169.877173,97.7672084 C168.708125,95.7629436 166.547634,94.5282653 164.209538,94.5282653 C160.595153,94.5282653 157.665116,97.4285139 157.665116,101.006152 C157.665116,104.583789 160.595153,107.484038 164.209538,107.484038 C166.547634,107.484038 168.708125,106.24936 169.877173,104.245095 Z M170.753959,66.4574241 C170.753959,62.8797864 167.823921,59.9795378 164.209538,59.9795378 C160.595153,59.9795378 157.665116,62.8797864 157.665116,66.4574241 C157.665116,70.0350618 160.595153,72.9353105 164.209538,72.9353105 C167.823921,72.9353105 170.753959,70.0350618 170.753959,66.4574241 Z M204.780754,104.245095 C205.949802,102.24083 205.949802,99.7714733 204.780754,97.7672084 C203.611705,95.7629436 201.451215,94.5282653 199.113119,94.5282653 C195.498734,94.5282653 192.568697,97.4285139 192.568697,101.006152 C192.568697,104.583789 195.498734,107.484038 199.113119,107.484038 C201.451215,107.484038 203.611705,106.24936 204.780754,104.245095 Z M234.016699,142.032765 C237.631083,142.032765 240.561121,139.132517 240.561121,135.554879 C240.561121,131.977241 237.631083,129.076993 234.016699,129.076993 C230.402315,129.076993 227.472278,131.977241 227.472278,135.554879 C227.472278,139.132517 230.402315,142.032765 234.016699,142.032765 Z M234.016699,176.581493 C237.631083,176.581493 240.561121,173.681245 240.561121,170.103607 C240.561121,166.525969 237.631083,163.62572 234.016699,163.62572 C230.402315,163.62572 227.472278,166.525969 227.472278,170.103607 C227.472278,173.681245 230.402315,176.581493 234.016699,176.581493 Z M129.305957,245.678948 C132.920341,245.678948 135.850378,242.7787 135.850378,239.201062 C135.850378,235.623424 132.920341,232.723175 129.305957,232.723175 C125.691572,232.723175 122.761535,235.623424 122.761535,239.201062 C122.761535,242.7787 125.691572,245.678948 129.305957,245.678948 Z M170.753959,273.74979 C170.753959,270.172151 167.823921,267.271903 164.209538,267.271903 C160.595153,267.271903 157.665116,270.172151 157.665116,273.74979 C157.665116,277.327427 160.595153,280.227676 164.209538,280.227676 C167.823921,280.227676 170.753959,277.327427 170.753959,273.74979 Z M234.016699,383.873858 C237.631083,383.873858 240.561121,380.97361 240.561121,377.395972 C240.561121,373.818334 237.631083,370.918086 234.016699,370.918086 C230.402315,370.918086 227.472278,373.818334 227.472278,377.395972 C227.472278,380.97361 230.402315,383.873858 234.016699,383.873858 Z M199.113119,418.422586 C202.727502,418.422586 205.65754,415.522337 205.65754,411.9447 C205.65754,408.367062 202.727502,405.466813 199.113119,405.466813 C195.498734,405.466813 192.568697,408.367062 192.568697,411.9447 C192.568697,415.522337 195.498734,418.422586 199.113119,418.422586 Z M268.92028,383.873858 C272.534664,383.873858 275.464702,380.97361 275.464702,377.395972 C275.464702,373.818334 272.534664,370.918086 268.92028,370.918086 C265.305896,370.918086 262.375859,373.818334 262.375859,377.395972 C262.375859,380.97361 265.305896,383.873858 268.92028,383.873858 Z M268.92028,314.776403 C272.534664,314.776403 275.464702,311.876155 275.464702,308.298517 C275.464702,304.720879 272.534664,301.820631 268.92028,301.820631 C265.305896,301.820631 262.375859,304.720879 262.375859,308.298517 C262.375859,311.876155 265.305896,314.776403 268.92028,314.776403 Z M303.823861,383.873858 C307.438245,383.873858 310.368283,380.97361 310.368283,377.395972 C310.368283,373.818334 307.438245,370.918086 303.823861,370.918086 C300.209477,370.918086 297.27944,373.818334 297.27944,377.395972 C297.27944,380.97361 300.209477,383.873858 303.823861,383.873858 Z M373.631023,418.422586 C377.245407,418.422586 380.175444,415.522337 380.175444,411.9447 C380.175444,408.367062 377.245407,405.466813 373.631023,405.466813 C370.016639,405.466813 367.086602,408.367062 367.086602,411.9447 C367.086602,415.522337 370.016639,418.422586 373.631023,418.422586 Z M373.631023,383.873858 C377.245407,383.873858 380.175444,380.97361 380.175444,377.395972 C380.175444,373.818334 377.245407,370.918086 373.631023,370.918086 C370.016639,370.918086 367.086602,373.818334 367.086602,377.395972 C367.086602,380.97361 370.016639,383.873858 373.631023,383.873858 Z M338.727442,245.678948 C342.341826,245.678948 345.271864,242.7787 345.271864,239.201062 C345.271864,235.623424 342.341826,232.723175 338.727442,232.723175 C335.113058,232.723175 332.183021,235.623424 332.183021,239.201062 C332.183021,242.7787 335.113058,245.678948 338.727442,245.678948 Z M373.631023,245.678948 C377.245407,245.678948 380.175444,242.7787 380.175444,239.201062 C380.175444,235.623424 377.245407,232.723175 373.631023,232.723175 C370.016639,232.723175 367.086602,235.623424 367.086602,239.201062 C367.086602,242.7787 370.016639,245.678948 373.631023,245.678948 Z M415.079025,446.493427 C415.079025,442.915789 412.148988,440.015541 408.534604,440.015541 C404.920219,440.015541 401.990183,442.915789 401.990183,446.493427 C401.990183,450.071065 404.920219,452.971313 408.534604,452.971313 C412.148988,452.971313 415.079025,450.071065 415.079025,446.493427 Z M415.079025,481.042155 C415.079025,477.464517 412.148988,474.564268 408.534604,474.564268 C404.920219,474.564268 401.990183,477.464517 401.990183,481.042155 C401.990183,484.619793 404.920219,487.520041 408.534604,487.520041 C412.148988,487.520041 415.079025,484.619793 415.079025,481.042155 Z M443.438185,522.068767 C447.052569,522.068767 449.982606,519.168519 449.982606,515.590884 C449.982606,512.013244 447.052569,509.112996 443.438185,509.112996 C439.8238,509.112996 436.893763,512.013244 436.893763,515.590884 C436.893763,519.168519 439.8238,522.068767 443.438185,522.068767 Z M478.341766,211.130221 C481.95615,211.130221 484.886187,208.229972 484.886187,204.652334 C484.886187,201.074696 481.95615,198.174448 478.341766,198.174448 C474.727381,198.174448 471.797344,201.074696 471.797344,204.652334 C471.797344,208.229972 474.727381,211.130221 478.341766,211.130221 Z M478.341766,280.227676 C481.95615,280.227676 484.886187,277.327427 484.886187,273.74979 C484.886187,270.172151 481.95615,267.271903 478.341766,267.271903 C474.727381,267.271903 471.797344,270.172151 471.797344,273.74979 C471.797344,277.327427 474.727381,280.227676 478.341766,280.227676 Z M513.245347,211.130221 C516.85973,211.130221 519.789768,208.229972 519.789768,204.652334 C519.789768,201.074696 516.85973,198.174448 513.245347,198.174448 C509.630962,198.174448 506.700925,201.074696 506.700925,204.652334 C506.700925,208.229972 509.630962,211.130221 513.245347,211.130221 Z M548.148927,176.581493 C551.763311,176.581493 554.693349,173.681245 554.693349,170.103607 C554.693349,166.525969 551.763311,163.62572 548.148927,163.62572 C544.534543,163.62572 541.604506,166.525969 541.604506,170.103607 C541.604506,173.681245 544.534543,176.581493 548.148927,176.581493 Z M338.727442,176.581493 C342.341826,176.581493 345.271864,173.681245 345.271864,170.103607 C345.271864,166.525969 342.341826,163.62572 338.727442,163.62572 C335.113058,163.62572 332.183021,166.525969 332.183021,170.103607 C332.183021,173.681245 335.113058,176.581493 338.727442,176.581493 Z M338.727442,211.130221 C342.341826,211.130221 345.271864,208.229972 345.271864,204.652334 C345.271864,201.074696 342.341826,198.174448 338.727442,198.174448 C335.113058,198.174448 332.183021,201.074696 332.183021,204.652334 C332.183021,208.229972 335.113058,211.130221 338.727442,211.130221 Z M373.631023,142.032765 C377.245407,142.032765 380.175444,139.132517 380.175444,135.554879 C380.175444,131.977241 377.245407,129.076993 373.631023,129.076993 C370.016639,129.076993 367.086602,131.977241 367.086602,135.554879 C367.086602,139.132517 370.016639,142.032765 373.631023,142.032765 Z M583.052508,142.032765 C586.666892,142.032765 589.59693,139.132517 589.59693,135.554879 C589.59693,131.977241 586.666892,129.076993 583.052508,129.076993 C579.438124,129.076993 576.508087,131.977241 576.508087,135.554879 C576.508087,139.132517 579.438124,142.032765 583.052508,142.032765 Z M548.148927,3.83785546 C551.763311,3.83785546 554.693349,0.937606938 554.693349,-2.64003093 C554.693349,-6.21766882 551.763311,-9.11791736 548.148927,-9.11791736 C544.534543,-9.11791736 541.604506,-6.21766882 541.604506,-2.64003093 C541.604506,0.937606938 544.534543,3.83785546 548.148927,3.83785546 Z M583.052508,-30.7108721 C586.666892,-30.7108721 589.59693,-33.6111206 589.59693,-37.1887585 C589.59693,-40.7663964 586.666892,-43.6666449 583.052508,-43.6666449 C579.438124,-43.6666449 576.508087,-40.7663964 576.508087,-37.1887585 C576.508087,-33.6111206 579.438124,-30.7108721 583.052508,-30.7108721 Z M513.245347,-30.7108721 C516.85973,-30.7108721 519.789768,-33.6111206 519.789768,-37.1887585 C519.789768,-40.7663964 516.85973,-43.6666449 513.245347,-43.6666449 C509.630962,-43.6666449 506.700925,-40.7663964 506.700925,-37.1887585 C506.700925,-33.6111206 509.630962,-30.7108721 513.245347,-30.7108721 Z M513.245347,-65.2595995 C516.85973,-65.2595995 519.789768,-68.1598482 519.789768,-71.7374859 C519.789768,-75.3151241 516.85973,-78.2153722 513.245347,-78.2153722 C509.630962,-78.2153722 506.700925,-75.3151241 506.700925,-71.7374859 C506.700925,-68.1598482 509.630962,-65.2595995 513.245347,-65.2595995 Z M484.886187,-71.7374859 C484.886187,-75.3151241 481.95615,-78.2153722 478.341766,-78.2153722 C474.727381,-78.2153722 471.797344,-75.3151241 471.797344,-71.7374859 C471.797344,-68.1598482 474.727381,-65.2595995 478.341766,-65.2595995 C481.95615,-65.2595995 484.886187,-68.1598482 484.886187,-71.7374859 Z M449.982606,-71.7374859 C449.982606,-75.3151241 447.052569,-78.2153722 443.438185,-78.2153722 C439.8238,-78.2153722 436.893763,-75.3151241 436.893763,-71.7374859 C436.893763,-68.1598482 439.8238,-65.2595995 443.438185,-65.2595995 C447.052569,-65.2595995 449.982606,-68.1598482 449.982606,-71.7374859 Z M408.534604,-65.2595995 C412.148988,-65.2595995 415.079025,-68.1598482 415.079025,-71.7374859 C415.079025,-75.3151241 412.148988,-78.2153722 408.534604,-78.2153722 C404.920219,-78.2153722 401.990183,-75.3151241 401.990183,-71.7374859 C401.990183,-68.1598482 404.920219,-65.2595995 408.534604,-65.2595995 Z M59.4987949,-30.7108721 C63.113179,-30.7108721 66.0432163,-33.6111206 66.0432163,-37.1887585 C66.0432163,-40.7663964 63.113179,-43.6666449 59.4987949,-43.6666449 C55.8844107,-43.6666449 52.9543734,-40.7663964 52.9543734,-37.1887585 C52.9543734,-33.6111206 55.8844107,-30.7108721 59.4987949,-30.7108721 Z M-10.3083667,-30.7108721 C-6.69398282,-30.7108721 -3.76394546,-33.6111206 -3.76394546,-37.1887585 C-3.76394546,-40.7663964 -6.69398282,-43.6666449 -10.3083667,-43.6666449 C-13.9227511,-43.6666449 -16.8527884,-40.7663964 -16.8527884,-37.1887585 C-16.8527884,-33.6111206 -13.9227511,-30.7108721 -10.3083667,-30.7108721 Z M59.4987949,3.83785546 C63.113179,3.83785546 66.0432163,0.937606938 66.0432163,-2.64003093 C66.0432163,-6.21766882 63.113179,-9.11791736 59.4987949,-9.11791736 C55.8844107,-9.11791736 52.9543734,-6.21766882 52.9543734,-2.64003093 C52.9543734,0.937606938 55.8844107,3.83785546 59.4987949,3.83785546 Z M31.1396353,31.9086966 C31.1396353,28.3310587 28.2095981,25.4308102 24.595214,25.4308102 C20.9808298,25.4308102 18.0507925,28.3310587 18.0507925,31.9086966 C18.0507925,35.4863345 20.9808298,38.386583 24.595214,38.386583 C28.2095981,38.386583 31.1396353,35.4863345 31.1396353,31.9086966 Z M59.4987949,-65.2595995 C63.113179,-65.2595995 66.0432163,-68.1598482 66.0432163,-71.7374859 C66.0432163,-75.3151241 63.113179,-78.2153722 59.4987949,-78.2153722 C55.8844107,-78.2153722 52.9543734,-75.3151241 52.9543734,-71.7374859 C52.9543734,-68.1598482 55.8844107,-65.2595995 59.4987949,-65.2595995 Z M66.0432163,446.493427 C66.0432163,442.915789 63.113179,440.015541 59.4987949,440.015541 C55.8844107,440.015541 52.9543734,442.915789 52.9543734,446.493427 C52.9543734,450.071065 55.8844107,452.971313 59.4987949,452.971313 C63.113179,452.971313 66.0432163,450.071065 66.0432163,446.493427 Z M94.4023757,522.068767 C98.0167599,522.068767 100.946797,519.168519 100.946797,515.590884 C100.946797,512.013244 98.0167599,509.112996 94.4023757,509.112996 C90.7879916,509.112996 87.8579543,512.013244 87.8579543,515.590884 C87.8579543,519.168519 90.7879916,522.068767 94.4023757,522.068767 Z M59.4987949,383.873858 C63.113179,383.873858 66.0432163,380.97361 66.0432163,377.395972 C66.0432163,373.818334 63.113179,370.918086 59.4987949,370.918086 C55.8844107,370.918086 52.9543734,373.818334 52.9543734,377.395972 C52.9543734,380.97361 55.8844107,383.873858 59.4987949,383.873858 Z M59.4987949,418.422586 C63.113179,418.422586 66.0432163,415.522337 66.0432163,411.9447 C66.0432163,408.367062 63.113179,405.466813 59.4987949,405.466813 C55.8844107,405.466813 52.9543734,408.367062 52.9543734,411.9447 C52.9543734,415.522337 55.8844107,418.422586 59.4987949,418.422586 Z M31.1396353,342.847245 C31.1396353,339.269607 28.2095981,336.369358 24.595214,336.369358 C20.9808298,336.369358 18.0507925,339.269607 18.0507925,342.847245 C18.0507925,346.424882 20.9808298,349.325131 24.595214,349.325131 C28.2095981,349.325131 31.1396353,346.424882 31.1396353,342.847245 Z M199.113119,-30.7108721 C202.727502,-30.7108721 205.65754,-33.6111206 205.65754,-37.1887585 C205.65754,-40.7663964 202.727502,-43.6666449 199.113119,-43.6666449 C195.498734,-43.6666449 192.568697,-40.7663964 192.568697,-37.1887585 C192.568697,-33.6111206 195.498734,-30.7108721 199.113119,-30.7108721 Z M234.016699,-30.7108721 C237.631083,-30.7108721 240.561121,-33.6111206 240.561121,-37.1887585 C240.561121,-40.7663964 237.631083,-43.6666449 234.016699,-43.6666449 C230.402315,-43.6666449 227.472278,-40.7663964 227.472278,-37.1887585 C227.472278,-33.6111206 230.402315,-30.7108721 234.016699,-30.7108721 Z M199.113119,-65.2595995 C202.727502,-65.2595995 205.65754,-68.1598482 205.65754,-71.7374859 C205.65754,-75.3151241 202.727502,-78.2153722 199.113119,-78.2153722 C195.498734,-78.2153722 192.568697,-75.3151241 192.568697,-71.7374859 C192.568697,-68.1598482 195.498734,-65.2595995 199.113119,-65.2595995 Z M268.92028,38.386583 C272.534664,38.386583 275.464702,35.4863345 275.464702,31.9086966 C275.464702,28.3310587 272.534664,25.4308102 268.92028,25.4308102 C265.305896,25.4308102 262.375859,28.3310587 262.375859,31.9086966 C262.375859,35.4863345 265.305896,38.386583 268.92028,38.386583 Z M303.823861,3.83785546 C307.438245,3.83785546 310.368283,0.937606938 310.368283,-2.64003093 C310.368283,-6.21766882 307.438245,-9.11791736 303.823861,-9.11791736 C300.209477,-9.11791736 297.27944,-6.21766882 297.27944,-2.64003093 C297.27944,0.937606938 300.209477,3.83785546 303.823861,3.83785546 Z M310.368283,-71.7374859 C310.368283,-75.3151241 307.438245,-78.2153722 303.823861,-78.2153722 C300.209477,-78.2153722 297.27944,-75.3151241 297.27944,-71.7374859 C297.27944,-68.1598482 300.209477,-65.2595995 303.823861,-65.2595995 C307.438245,-65.2595995 310.368283,-68.1598482 310.368283,-71.7374859 Z M548.148927,314.776403 C551.763311,314.776403 554.693349,311.876155 554.693349,308.298517 C554.693349,304.720879 551.763311,301.820631 548.148927,301.820631 C544.534543,301.820631 541.604506,304.720879 541.604506,308.298517 C541.604506,311.876155 544.534543,314.776403 548.148927,314.776403 Z M519.789768,342.847245 C519.789768,339.269607 516.85973,336.369358 513.245347,336.369358 C509.630962,336.369358 506.700925,339.269607 506.700925,342.847245 C506.700925,346.424882 509.630962,349.325131 513.245347,349.325131 C516.85973,349.325131 519.789768,346.424882 519.789768,342.847245 Z M513.245347,383.873858 C516.85973,383.873858 519.789768,380.97361 519.789768,377.395972 C519.789768,373.818334 516.85973,370.918086 513.245347,370.918086 C509.630962,370.918086 506.700925,373.818334 506.700925,377.395972 C506.700925,380.97361 509.630962,383.873858 513.245347,383.873858 Z M513.245347,418.422586 C516.85973,418.422586 519.789768,415.522337 519.789768,411.9447 C519.789768,408.367062 516.85973,405.466813 513.245347,405.466813 C509.630962,405.466813 506.700925,408.367062 506.700925,411.9447 C506.700925,415.522337 509.630962,418.422586 513.245347,418.422586 Z M-10.3083667,280.227676 C-6.69398282,280.227676 -3.76394546,277.327427 -3.76394546,273.74979 C-3.76394546,270.172151 -6.69398282,267.271903 -10.3083667,267.271903 C-13.9227511,267.271903 -16.8527884,270.172151 -16.8527884,273.74979 C-16.8527884,277.327427 -13.9227511,280.227676 -10.3083667,280.227676 Z M-10.3083667,314.776403 C-6.69398282,314.776403 -3.76394546,311.876155 -3.76394546,308.298517 C-3.76394546,304.720879 -6.69398282,301.820631 -10.3083667,301.820631 C-13.9227511,301.820631 -16.8527884,304.720879 -16.8527884,308.298517 C-16.8527884,311.876155 -13.9227511,314.776403 -10.3083667,314.776403 Z M-10.3083667,245.678948 C-6.69398282,245.678948 -3.76394546,242.7787 -3.76394546,239.201062 C-3.76394546,235.623424 -6.69398282,232.723175 -10.3083667,232.723175 C-13.9227511,232.723175 -16.8527884,235.623424 -16.8527884,239.201062 C-16.8527884,242.7787 -13.9227511,245.678948 -10.3083667,245.678948 Z M24.595214,245.678948 C28.2095981,245.678948 31.1396353,242.7787 31.1396353,239.201062 C31.1396353,235.623424 28.2095981,232.723175 24.595214,232.723175 C20.9808298,232.723175 18.0507925,235.623424 18.0507925,239.201062 C18.0507925,242.7787 20.9808298,245.678948 24.595214,245.678948 Z M-10.3083667,72.9353105 C-6.69398282,72.9353105 -3.76394546,70.0350618 -3.76394546,66.4574241 C-3.76394546,62.8797864 -6.69398282,59.9795378 -10.3083667,59.9795378 C-13.9227511,59.9795378 -16.8527884,62.8797864 -16.8527884,66.4574241 C-16.8527884,70.0350618 -13.9227511,72.9353105 -10.3083667,72.9353105 Z M59.4987949,211.130221 C63.113179,211.130221 66.0432163,208.229972 66.0432163,204.652334 C66.0432163,201.074696 63.113179,198.174448 59.4987949,198.174448 C55.8844107,198.174448 52.9543734,201.074696 52.9543734,204.652334 C52.9543734,208.229972 55.8844107,211.130221 59.4987949,211.130221 Z M94.4023757,176.581493 C98.0167599,176.581493 100.946797,173.681245 100.946797,170.103607 C100.946797,166.525969 98.0167599,163.62572 94.4023757,163.62572 C90.7879916,163.62572 87.8579543,166.525969 87.8579543,170.103607 C87.8579543,173.681245 90.7879916,176.581493 94.4023757,176.581493 Z" id="Shape" fill="#FFFFFF" fill-rule="nonzero" opacity="0.34" mask="url(#mask-4)"></path>
                </g>
                <g id="Eyes-Nose" filter="url(#filter-5)" transform="translate(194.000000, 237.000000)" stroke="#FFFFFF" fill-rule="nonzero" stroke-width="8" fill="#FFFFFF">
                    <ellipse id="Oval" cx="312.041644" cy="31.0460551" rx="31.0416437" ry="31.0460551"></ellipse>
                    <ellipse id="Oval-Copy" cx="31.0416437" cy="31.0460551" rx="31.0416437" ry="31.0460551"></ellipse>
                    <ellipse id="Nose" cx="171.705258" cy="153.230831" rx="32.7052581" ry="26.2308312"></ellipse>
                </g>
            </g>
        </g>
    </g>
</svg>