<?xml version="1.0" encoding="UTF-8"?>
<svg width="112px" height="85px" viewBox="0 0 112 85" version="1.1" xmlns="http://www.w3.org/2000/svg" xmlns:xlink="http://www.w3.org/1999/xlink">
    <!-- Generator: Sketch 42 (36781) - http://www.bohemiancoding.com/sketch -->
    <title>Group 4</title>
    <desc>Created with Sketch.</desc>
    <defs>
        <polygon id="path-1" points="5.5024006 6.2091332 6.22803513 17.6706827 4.52098557 18.2520876 5.20380539 25.2289461 3.49675584 25.6165494 4.17957566 32.012003 2.98464097 32.3996063 2.81393601 39.9578697 1.27759141 39.1826632 1.78970628 44.8029104 0.424066636 44.0277039 1.10688646 51.7797689 8.44719955 76.3925754 9.30072433 75.035964 12.3734135 65.9272876 21.5914811 47.7099348 29.2732041 32.7872095 37.317864 28.9531802 25.8817523 0.419739425 18.2576778 3.42431486 11.4043635 5.99966523"></polygon>
        <polygon id="path-3" points="5.55475782 6.20867628 6.28039235 17.6702258 4.57334279 18.2516307 5.25616261 25.2284892 3.54911306 25.6160925 4.23193288 32.0115461 3.03699819 32.3991494 2.86629323 39.9574128 1.32994863 39.1822063 1.8420635 44.8024534 0.476423855 44.0272469 1.15924368 51.779312 8.49955677 76.3921185 9.35308155 75.0355071 12.4257707 65.9268307 21.6438384 47.7094778 29.3255614 32.7867526 37.3702212 28.9527233 25.9341095 0.419282511 18.3100351 3.42385794 11.4567207 5.99920832"></polygon>
    </defs>
    <g id="Page-1" stroke="none" stroke-width="1" fill="none" fill-rule="evenodd">
        <g id="256" transform="translate(-72.000000, -85.000000)">
            <g id="Group-4" transform="translate(72.000000, 84.000000)">
                <g id="Mask" transform="translate(56.198522, 43.776584) rotate(-1.000000) translate(-56.198522, -43.776584) translate(1.698522, 1.276584)">
                    <g id="Group-2" transform="translate(0.000000, 1.544400)" stroke-width="2" stroke="#FFFFFF">
                        <polyline id="Path-11" points="53.4323961 5.51286627 72.8135666 5.51286627 88.318503 2.3581137e-13 108.561059 54.704596 103.392747 59.369329 107.268981 63.1859287 53.8630888 82.2689274"></polyline>
                        <polyline id="Path-11" transform="translate(27.564331, 41.134464) scale(-1, 1) translate(-27.564331, -41.134464) " points="2.80886425e-14 5.51286627 19.3811705 5.51286627 34.8861068 -4.30766534e-14 55.1286627 54.704596 49.9603505 59.369329 53.8365846 63.1859287 0.430692677 82.2689274"></polyline>
                    </g>
                    <g id="Group" transform="translate(-0.000000, -0.000000)">
                        <g transform="translate(42.361674, 40.627976) scale(-1, 1) translate(-42.361674, -40.627976) translate(6.861674, 1.627976)">
                            <polygon id="Path-3" stroke="#FFFFFF" stroke-width="2" points="34.1231412 6.20226618 34.8783095 18.7301782 33.0757846 19.3115109 33.7967946 26.2875032 31.9942696 26.6750584 32.7152796 33.069718 31.4535122 33.4572731 31.2732597 41.0145981 29.6509872 40.2394879 30.1917447 45.8590373 28.7497248 45.083927 29.4707347 52.8350296 37.2215919 77.4447803 38.1228544 76.0883374 41.3673992 66.9807918 51.1010338 48.7657007 59.212396 33.8448283 67.706994 30.0112749 57.4079458 1.05220491 47.5807707 4.48557909 41.3673992 6.20226618"></polygon>
                            <ellipse id="Oval" fill="#FFFFFF" cx="4.82326253" cy="44.2192277" rx="4.818279" ry="4.81878161"></ellipse>
                            <ellipse id="Oval" fill="#FFFFFF" cx="42.3365911" cy="43.5904174" rx="4.818279" ry="4.81878161"></ellipse>
                        </g>
                        <g id="Group-3" transform="translate(61.782458, 1.659154)" stroke-width="2" stroke="#FFFFFF">
                            <polygon id="Path-3" points="5.51720257 6.20926237 6.24283709 17.6708119 4.53578754 18.2522168 5.21860736 25.2290753 3.5115578 25.6166786 4.19437763 32.0121322 2.99944294 32.3997355 2.82873798 39.9579989 1.29239338 39.1827924 1.80450825 44.8030395 0.438868602 44.027833 1.12168842 51.7798981 8.46200152 76.3927046 9.31552629 75.0360932 12.3882155 65.9274168 21.6062831 47.7100639 29.2880061 32.7873387 37.3326659 28.9533093 25.8965542 0.4198686 18.2724798 3.42444403 11.4191654 5.99979441"></polygon>
                        </g>
                        <g id="Group-3" transform="translate(8.227799, 0.115012)">
                            <g id="circuit-board" transform="translate(53.584263, 0.696267)">
                                <mask id="mask-2" fill="white">
                                    <use xlink:href="#path-1"></use>
                                </mask>
                                <g id="Mask"></g>
                                <g opacity="0.30321558" mask="url(#mask-2)" id="Shape" fill-rule="nonzero" fill="#FFFFFF">
                                    <g transform="translate(-28.597826, -14.285302)">
                                        <path d="M18.8101281,92.8315259 C19.0249644,91.7897865 20.0018524,91.0782842 21.0705948,91.1851474 C22.1393371,91.2920106 22.9527204,92.1825216 22.9527204,93.2457424 C22.9527204,94.3089632 22.1393371,95.1994742 21.0705948,95.3063375 C20.0018524,95.4132007 19.0249644,94.7016983 18.8101281,93.659959 L0.354859673,93.659959 L0.354859673,92.8315259 L18.8101281,92.8315259 Z M85.7680179,112.71392 C85.9828543,111.67218 86.9597423,110.960678 88.0284846,111.067541 C89.097227,111.174404 89.9106103,112.064915 89.9106103,113.128136 C89.9106103,114.191357 89.097227,115.081868 88.0284846,115.188731 C86.9597423,115.295595 85.9828543,114.584092 85.7680179,113.542353 L34.6707782,113.542353 L34.6707782,112.71392 L85.7680179,112.71392 Z M109.956556,93.659959 C109.741719,94.7016983 108.764831,95.4132007 107.696089,95.3063375 C106.627347,95.1994742 105.813963,94.3089632 105.813963,93.2457424 C105.813963,92.1825216 106.627347,91.2920106 107.696089,91.1851474 C108.764831,91.0782842 109.741719,91.7897865 109.956556,92.8315259 L127.57485,92.8315259 L127.57485,93.659959 L109.956556,93.659959 L109.956556,93.659959 Z M109.956556,100.287424 C109.741719,101.329163 108.764831,102.040665 107.696089,101.933802 C106.627347,101.826939 105.813963,100.936428 105.813963,99.873207 C105.813963,98.8099862 106.627347,97.9194752 107.696089,97.812612 C108.764831,97.7057488 109.741719,98.4172511 109.956556,99.4589905 L127.57485,99.4589905 L127.57485,100.287424 L109.956556,100.287424 Z M112.551174,53.0667382 C112.76601,52.0249989 113.742898,51.3134965 114.811641,51.4203597 C115.880383,51.5272229 116.693766,52.417734 116.693766,53.4809548 C116.693766,54.5441755 115.880383,55.4346866 114.811641,55.5415498 C113.742898,55.648413 112.76601,54.9369107 112.551174,53.8951713 L76.4776107,53.8951713 C76.2627744,54.9369107 75.2858864,55.648413 74.217144,55.5415498 C73.1484017,55.4346866 72.3350184,54.5441755 72.3350184,53.4809548 C72.3350184,52.417734 73.1484017,51.5272229 74.217144,51.4203597 C75.2858864,51.3134965 76.2627744,52.0249989 76.4776107,53.0667382 L112.551174,53.0667382 Z M5.4185501,33.1843444 C5.63338646,32.142605 6.61027445,31.4311027 7.67901678,31.5379659 C8.7477591,31.6448291 9.56114246,32.5353401 9.56114246,33.5985609 C9.56114246,34.6617817 8.7477591,35.5522928 7.67901678,35.659156 C6.61027445,35.7660192 5.63338646,35.0545168 5.4185501,34.0127775 L0.354859673,34.0127775 L0.354859673,33.1843444 L5.4185501,33.1843444 L5.4185501,33.1843444 Z M83.1733997,47.2677067 C82.9585633,48.309446 81.9816754,49.0209484 80.912933,48.9140852 C79.8441907,48.807222 79.0308073,47.9167109 79.0308073,46.8534901 C79.0308073,45.7902694 79.8441907,44.8997583 80.912933,44.7928951 C81.9816754,44.6860319 82.9585633,45.3975343 83.1733997,46.4392736 L119.246963,46.4392736 C119.461799,45.3975343 120.438687,44.6860319 121.50743,44.7928951 C122.576172,44.8997583 123.389555,45.7902694 123.389555,46.8534901 C123.389555,47.9167109 122.576172,48.807222 121.50743,48.9140852 C120.438687,49.0209484 119.461799,48.309446 119.246963,47.2677067 L83.1733997,47.2677067 L83.1733997,47.2677067 Z M108.324457,5.05904145 C109.376936,5.27168561 110.095773,6.23860535 109.987809,7.29644214 C109.879844,8.35427894 108.980152,9.15936246 107.90597,9.15936246 C106.831788,9.15936246 105.932097,8.35427894 105.824132,7.29644214 C105.716167,6.23860535 106.435005,5.27168561 107.487483,5.05904145 L107.487483,0.047021339 L108.324457,0.047021339 L108.324457,5.05904145 Z M81.5413011,91.2160814 C82.5937801,91.4287255 83.3126175,92.3956453 83.2046526,93.4534821 C83.0966877,94.5113189 82.1969962,95.3164024 81.1228143,95.3164024 C80.0486325,95.3164024 79.1489409,94.5113189 79.040976,93.4534821 C78.9330111,92.3956453 79.6518486,91.4287255 80.7043275,91.2160814 L80.7043275,68.765545 C79.6518486,68.5529009 78.9330111,67.5859811 79.040976,66.5281443 C79.1489409,65.4703075 80.0486325,64.665224 81.1228143,64.665224 C82.1969962,64.665224 83.0966877,65.4703075 83.2046526,66.5281443 C83.3126175,67.5859811 82.5937801,68.5529009 81.5413011,68.765545 L81.5413011,91.2160814 L81.5413011,91.2160814 Z M101.628668,9.11836352 L101.628668,33.1843444 L127.57485,33.1843444 L127.57485,34.0127775 L100.791694,34.0127775 L100.791694,9.11836352 C99.7392155,8.90571937 99.0203781,7.93879962 99.128343,6.88096283 C99.2363079,5.82312604 100.135999,5.01804251 101.210181,5.01804251 C102.284363,5.01804251 103.184055,5.82312604 103.29202,6.88096283 C103.399984,7.93879962 102.681147,8.90571937 101.628668,9.11836352 L101.628668,9.11836352 Z M108.324457,15.7458281 L108.324457,26.5568798 L127.57485,26.5568798 L127.57485,27.3853129 L107.487483,27.3853129 L107.487483,15.7458281 C106.435005,15.533184 105.716167,14.5662642 105.824132,13.5084274 C105.932097,12.4505906 106.831788,11.6455071 107.90597,11.6455071 C108.980152,11.6455071 109.879844,12.4505906 109.987809,13.5084274 C110.095773,14.5662642 109.376936,15.533184 108.324457,15.7458281 L108.324457,15.7458281 Z M54.7581452,55.5106158 L54.7581452,86.2040613 L61.4539342,86.2040613 L61.4539342,91.2160814 C62.5064131,91.4287255 63.2252506,92.3956453 63.1172857,93.4534821 C63.0093208,94.5113189 62.1096292,95.3164024 61.0354474,95.3164024 C59.9612656,95.3164024 59.061574,94.5113189 58.9536091,93.4534821 C58.8456442,92.3956453 59.5644816,91.4287255 60.6169606,91.2160814 L60.6169606,87.0324943 L53.9211716,87.0324943 L53.9211716,55.5106158 C52.8686926,55.2979716 52.1498552,54.3310519 52.2578201,53.2732151 C52.365785,52.2153783 53.2654766,51.4102948 54.3396584,51.4102948 C55.4138402,51.4102948 56.3135318,52.2153783 56.4214967,53.2732151 C56.5294616,54.3310519 55.8106241,55.2979716 54.7581452,55.5106158 Z M52.289073,46.4392736 C52.5039094,45.3975343 53.4807974,44.6860319 54.5495397,44.7928951 C55.618282,44.8997583 56.4316654,45.7902694 56.4316654,46.8534901 C56.4316654,47.9167109 55.618282,48.807222 54.5495397,48.9140852 C53.4807974,49.0209484 52.5039094,48.309446 52.289073,47.2677067 L48.0623562,47.2677067 L48.0623562,67.1501005 L36.3028768,67.1501005 C36.0880404,68.1918399 35.1111524,68.9033422 34.0424101,68.796479 C32.9736678,68.6896158 32.1602844,67.7991048 32.1602844,66.735884 C32.1602844,65.6726632 32.9736678,64.7821521 34.0424101,64.6752889 C35.1111524,64.5684257 36.0880404,65.2799281 36.3028768,66.3216674 L47.2253826,66.3216674 L47.2253826,46.4392736 L52.289073,46.4392736 Z M49.6944548,100.287424 C49.4796184,101.329163 48.5027304,102.040665 47.4339881,101.933802 C46.3652458,101.826939 45.5518624,100.936428 45.5518624,99.873207 C45.5518624,98.8099862 46.3652458,97.9194752 47.4339881,97.812612 C48.5027304,97.7057488 49.4796184,98.4172511 49.6944548,99.4589905 L74.0085385,99.4589905 L74.0085385,68.765545 C72.9560596,68.5529009 72.2372222,67.5859811 72.3451871,66.5281443 C72.453152,65.4703075 73.3528435,64.665224 74.4270253,64.665224 C75.5012072,64.665224 76.4008987,65.4703075 76.5088636,66.5281443 C76.6168285,67.5859811 75.8979911,68.5529009 74.8455122,68.765545 L74.8455122,100.287424 L49.6944548,100.287424 L49.6944548,100.287424 Z M42.9986658,73.7775651 C42.7838294,74.8193045 41.8069414,75.5308068 40.7381991,75.4239436 C39.6694568,75.3170804 38.8560734,74.4265694 38.8560734,73.3633486 C38.8560734,72.3001278 39.6694568,71.4096168 40.7381991,71.3027535 C41.8069414,71.1958903 42.7838294,71.9073927 42.9986658,72.949132 L48.0623562,72.949132 L48.0623562,92.8315259 L52.289073,92.8315259 C52.5039094,91.7897865 53.4807974,91.0782842 54.5495397,91.1851474 C55.618282,91.2920106 56.4316654,92.1825216 56.4316654,93.2457424 C56.4316654,94.3089632 55.618282,95.1994742 54.5495397,95.3063375 C53.4807974,95.4132007 52.5039094,94.7016983 52.289073,93.659959 L47.2253826,93.659959 L47.2253826,73.7775651 L42.9986658,73.7775651 L42.9986658,73.7775651 Z M27.9749892,117.72594 C29.0274682,117.938584 29.7463056,118.905504 29.6383407,119.963341 C29.5303758,121.021177 28.6306843,121.826261 27.5565024,121.826261 C26.4823206,121.826261 25.582629,121.021177 25.4746641,119.963341 C25.3666992,118.905504 26.0855367,117.938584 27.1380156,117.72594 L27.1380156,113.542353 L21.2792003,113.542353 L21.2792003,125.968849 L20.4422266,125.968849 L20.4422266,112.71392 L27.9749892,112.71392 L27.9749892,117.72594 Z M99.1595959,72.949132 C99.3744323,71.9073927 100.35132,71.1958903 101.420063,71.3027535 C102.488805,71.4096168 103.302188,72.3001278 103.302188,73.3633486 C103.302188,74.4265694 102.488805,75.3170804 101.420063,75.4239436 C100.35132,75.5308068 99.3744323,74.8193045 99.1595959,73.7775651 L94.9328791,73.7775651 L94.9328791,112.71392 L115.020246,112.71392 L115.020246,125.968849 L114.183272,125.968849 L114.183272,113.542353 L94.0959055,113.542353 L94.0959055,72.949132 L99.1595959,72.949132 Z M109.956556,60.5226359 C109.741719,61.5643753 108.764831,62.2758776 107.696089,62.1690144 C106.627347,62.0621512 105.813963,61.1716401 105.813963,60.1084194 C105.813963,59.0451986 106.627347,58.1546875 107.696089,58.0478243 C108.764831,57.9409611 109.741719,58.6524635 109.956556,59.6942028 L115.020246,59.6942028 L115.020246,77.9611522 C116.072725,78.1737963 116.791562,79.1407161 116.683598,80.1985529 C116.575633,81.2563896 115.675941,82.0614732 114.601759,82.0614732 C113.527577,82.0614732 112.627886,81.2563896 112.519921,80.1985529 C112.411956,79.1407161 113.130794,78.1737963 114.183272,77.9611522 L114.183272,60.5226359 L109.956556,60.5226359 Z M83.1733997,100.287424 C82.9585633,101.329163 81.9816754,102.040665 80.912933,101.933802 C79.8441907,101.826939 79.0308073,100.936428 79.0308073,99.873207 C79.0308073,98.8099862 79.8441907,97.9194752 80.912933,97.812612 C81.9816754,97.7057488 82.9585633,98.4172511 83.1733997,99.4589905 L87.4001165,99.4589905 L87.4001165,66.3216674 L94.0959055,66.3216674 L94.0959055,60.5226359 L76.4776107,60.5226359 C76.2627744,61.5643753 75.2858864,62.2758776 74.217144,62.1690144 C73.1484017,62.0621512 72.3350184,61.1716401 72.3350184,60.1084194 C72.3350184,59.0451986 73.1484017,58.1546875 74.217144,58.0478243 C75.2858864,57.9409611 76.2627744,58.6524635 76.4776107,59.6942028 L94.9328791,59.6942028 L94.9328791,67.1501005 L88.2370901,67.1501005 L88.2370901,100.287424 L83.1733997,100.287424 L83.1733997,100.287424 Z M119.246963,13.3019506 C119.461799,12.2602112 120.438687,11.5487088 121.50743,11.6555721 C122.576172,11.7624353 123.389555,12.6529463 123.389555,13.7161671 C123.389555,14.7793879 122.576172,15.6698989 121.50743,15.7767621 C120.438687,15.8836254 119.461799,15.172123 119.246963,14.1303836 L114.183272,14.1303836 L114.183272,0.047021339 L115.020246,0.047021339 L115.020246,13.3019506 L119.246963,13.3019506 L119.246963,13.3019506 Z M41.3665672,42.2556866 L41.3665672,60.5226359 L22.9112988,60.5226359 C22.6964625,61.5643753 21.7195745,62.2758776 20.6508321,62.1690144 C19.5820898,62.0621512 18.7687065,61.1716401 18.7687065,60.1084194 C18.7687065,59.0451986 19.5820898,58.1546875 20.6508321,58.0478243 C21.7195745,57.9409611 22.6964625,58.6524635 22.9112988,59.6942028 L40.5295936,59.6942028 L40.5295936,42.2556866 C39.4771147,42.0430424 38.7582772,41.0761227 38.8662421,40.0182859 C38.974207,38.9604491 39.8738986,38.1553656 40.9480804,38.1553656 C42.0222622,38.1553656 42.9219538,38.9604491 43.0299187,40.0182859 C43.1378836,41.0761227 42.4190462,42.0430424 41.3665672,42.2556866 Z M22.9112988,14.1303836 C22.6964625,15.172123 21.7195745,15.8836254 20.6508321,15.7767621 C19.5820898,15.6698989 18.7687065,14.7793879 18.7687065,13.7161671 C18.7687065,12.6529463 19.5820898,11.7624353 20.6508321,11.6555721 C21.7195745,11.5487088 22.6964625,12.2602112 22.9112988,13.3019506 L33.8338046,13.3019506 L33.8338046,0.047021339 L34.6707782,0.047021339 L34.6707782,14.1303836 L22.9112988,14.1303836 Z M48.0623562,15.7458281 L48.0623562,27.3853129 L34.6707782,27.3853129 L34.6707782,53.8951713 L29.6070878,53.8951713 C29.3922514,54.9369107 28.4153635,55.648413 27.3466211,55.5415498 C26.2778788,55.4346866 25.4644954,54.5441755 25.4644954,53.4809548 C25.4644954,52.417734 26.2778788,51.5272229 27.3466211,51.4203597 C28.4153635,51.3134965 29.3922514,52.0249989 29.6070878,53.0667382 L33.8338046,53.0667382 L33.8338046,26.5568798 L47.2253826,26.5568798 L47.2253826,15.7458281 C46.1729036,15.533184 45.4540662,14.5662642 45.5620311,13.5084274 C45.669996,12.4505906 46.5696876,11.6455071 47.6438694,11.6455071 C48.7180512,11.6455071 49.6177428,12.4505906 49.7257077,13.5084274 C49.8336726,14.5662642 49.1148351,15.533184 48.0623562,15.7458281 Z M42.9986658,34.0127775 C42.7838294,35.0545168 41.8069414,35.7660192 40.7381991,35.659156 C39.6694568,35.5522928 38.8560734,34.6617817 38.8560734,33.5985609 C38.8560734,32.5353401 39.6694568,31.6448291 40.7381991,31.5379659 C41.8069414,31.4311027 42.7838294,32.142605 42.9986658,33.1843444 L53.9211716,33.1843444 L53.9211716,15.7458281 C52.8686926,15.533184 52.1498552,14.5662642 52.2578201,13.5084274 C52.365785,12.4505906 53.2654766,11.6455071 54.3396584,11.6455071 C55.4138402,11.6455071 56.3135318,12.4505906 56.4214967,13.5084274 C56.5294616,14.5662642 55.8106241,15.533184 54.7581452,15.7458281 L54.7581452,34.0127775 L42.9986658,34.0127775 Z M49.6944548,7.50291903 C49.4796184,8.54465838 48.5027304,9.25616075 47.4339881,9.14929753 C46.3652458,9.04243431 45.5518624,8.15192327 45.5518624,7.08870249 C45.5518624,6.02548171 46.3652458,5.13497066 47.4339881,5.02810744 C48.5027304,4.92124423 49.4796184,5.63274659 49.6944548,6.67448595 L61.4539342,6.67448595 L61.4539342,24.9414353 C62.5064131,25.1540794 63.2252506,26.1209992 63.1172857,27.178836 C63.0093208,28.2366728 62.1096292,29.0417563 61.0354474,29.0417563 C59.9612656,29.0417563 59.061574,28.2366728 58.9536091,27.178836 C58.8456442,26.1209992 59.5644816,25.1540794 60.6169606,24.9414353 L60.6169606,7.50291903 L49.6944548,7.50291903 Z M92.4638069,119.341384 C92.6786433,118.299645 93.6555313,117.588143 94.7242736,117.695006 C95.7930159,117.801869 96.6063993,118.69238 96.6063993,119.755601 C96.6063993,120.818822 95.7930159,121.709333 94.7242736,121.816196 C93.6555313,121.923059 92.6786433,121.211557 92.4638069,120.169817 L41.3665672,120.169817 L41.3665672,125.968849 L40.5295936,125.968849 L40.5295936,119.341384 L92.4638069,119.341384 L92.4638069,119.341384 Z M101.628668,62.1380804 L101.628668,66.3216674 L108.324457,66.3216674 L108.324457,80.4050297 L101.628668,80.4050297 L101.628668,106.086455 L121.716035,106.086455 L121.716035,125.968849 L120.879061,125.968849 L120.879061,106.914888 L100.791694,106.914888 L100.791694,79.5765967 L107.487483,79.5765967 L107.487483,67.1501005 L100.791694,67.1501005 L100.791694,62.1380804 C99.7392155,61.9254362 99.0203781,60.9585165 99.128343,59.9006797 C99.2363079,58.8428429 100.135999,58.0377594 101.210181,58.0377594 C102.284363,58.0377594 103.184055,58.8428429 103.29202,59.9006797 C103.399984,60.9585165 102.681147,61.9254362 101.628668,62.1380804 L101.628668,62.1380804 Z M22.9112988,7.50291903 C22.6964625,8.54465838 21.7195745,9.25616075 20.6508321,9.14929753 C19.5820898,9.04243431 18.7687065,8.15192327 18.7687065,7.08870249 C18.7687065,6.02548171 19.5820898,5.13497066 20.6508321,5.02810744 C21.7195745,4.92124423 22.6964625,5.63274659 22.9112988,6.67448595 L27.1380156,6.67448595 L27.1380156,0.875454415 L20.4422266,0.875454415 L20.4422266,0.047021339 L27.9749892,0.047021339 L27.9749892,7.50291903 L22.9112988,7.50291903 Z M69.7818217,20.7578482 C69.5669854,21.7995876 68.5900974,22.51109 67.5213551,22.4042268 C66.4526127,22.2973635 65.6392294,21.4068525 65.6392294,20.3436317 C65.6392294,19.2804109 66.4526127,18.3898999 67.5213551,18.2830367 C68.5900974,18.1761734 69.5669854,18.8876758 69.7818217,19.9294152 L80.7043275,19.9294152 L80.7043275,0.047021339 L101.628668,0.047021339 L101.628668,0.875454415 L81.5413011,0.875454415 L81.5413011,20.7578482 L69.7818217,20.7578482 Z M49.6944548,0.875454415 C49.5449438,1.60058246 49.0159507,2.19167918 48.3067419,2.42608417 C47.5975331,2.66048915 46.8158544,2.50259069 46.2561565,2.01186763 C45.6964586,1.52114456 45.4437731,0.772149387 45.593284,0.047021339 L46.4595517,0.047021339 C46.2765907,0.561813583 46.4543651,1.13451446 46.8977924,1.45881483 C47.3412196,1.7831152 47.9465192,1.7831152 48.3899464,1.45881483 C48.8333737,1.13451446 49.0111481,0.561813583 48.8281871,0.047021339 L74.8455122,0.047021339 L74.8455122,14.1303836 L67.3127495,14.1303836 L67.3127495,9.11836352 C66.2602706,8.90571937 65.5414332,7.93879962 65.6493981,6.88096283 C65.757363,5.82312604 66.6570545,5.01804251 67.7312364,5.01804251 C68.8054182,5.01804251 69.7051098,5.82312604 69.8130747,6.88096283 C69.9210396,7.93879962 69.2022021,8.90571937 68.1497232,9.11836352 L68.1497232,13.3019506 L74.0085385,13.3019506 L74.0085385,0.875454415 L49.6944548,0.875454415 Z M49.6944548,40.6402421 C49.4796184,41.6819814 48.5027304,42.3934838 47.4339881,42.2866206 C46.3652458,42.1797574 45.5518624,41.2892463 45.5518624,40.2260255 C45.5518624,39.1628048 46.3652458,38.2722937 47.4339881,38.1654305 C48.5027304,38.0585673 49.4796184,38.7700696 49.6944548,39.811809 L57.6875529,39.811809 L71.0791309,26.5568798 L87.4001165,26.5568798 L87.4001165,9.11836352 C86.3476376,8.90571937 85.6288001,7.93879962 85.736765,6.88096283 C85.8447299,5.82312604 86.7444215,5.01804251 87.8186033,5.01804251 C88.8927851,5.01804251 89.7924767,5.82312604 89.9004416,6.88096283 C90.0084065,7.93879962 89.2895691,8.90571937 88.2370901,9.11836352 L88.2370901,27.3853129 L71.4264749,27.3853129 L58.0348969,40.6402421 L49.6944548,40.6402421 Z M61.4539342,77.9611522 C62.5064131,78.1737963 63.2252506,79.1407161 63.1172857,80.1985529 C63.0093208,81.2563896 62.1096292,82.0614732 61.0354474,82.0614732 C59.9612656,82.0614732 59.061574,81.2563896 58.9536091,80.1985529 C58.8456442,79.1407161 59.5644816,78.1737963 60.6169606,77.9611522 L60.6169606,46.2694448 L73.8369589,33.1843444 L94.0959055,33.1843444 L94.0959055,9.11836352 C93.0434266,8.90571937 92.3245891,7.93879962 92.432554,6.88096283 C92.5405189,5.82312604 93.4402105,5.01804251 94.5143923,5.01804251 C95.5885741,5.01804251 96.4882657,5.82312604 96.5962306,6.88096283 C96.7041955,7.93879962 95.9853581,8.90571937 94.9328791,9.11836352 L94.9328791,34.0127775 L74.1801181,34.0127775 L61.4539342,46.6091024 L61.4539342,77.9611522 Z M68.1497232,91.2160814 C69.2022021,91.4287255 69.9210396,92.3956453 69.8130747,93.4534821 C69.7051098,94.5113189 68.8054182,95.3164024 67.7312364,95.3164024 C66.6570545,95.3164024 65.757363,94.5113189 65.6493981,93.4534821 C65.5414332,92.3956453 66.2602706,91.4287255 67.3127495,91.2160814 L67.3127495,49.9973937 L77.6033402,39.811809 L125.942752,39.811809 C126.1104,38.9981681 126.752822,38.3623016 127.57485,38.1963645 L127.57485,39.0537927 C127.072271,39.2287864 126.73601,39.6986927 126.73601,40.2260255 C126.73601,40.7533583 127.072271,41.2232647 127.57485,41.3982583 L127.57485,42.2556866 C126.752822,42.0897495 126.1104,41.453883 125.942752,40.6402421 L77.9464994,40.6402421 L68.1497232,50.3370512 L68.1497232,91.2160814 Z M7.88762228,64.7062229 C8.94010122,64.9188671 9.65893866,65.8857868 9.55097377,66.9436236 C9.44300887,68.0014604 8.54331729,68.806544 7.46913547,68.806544 C6.39495365,68.806544 5.49526208,68.0014604 5.38729718,66.9436236 C5.27933228,65.8857868 5.99816972,64.9188671 7.05064866,64.7062229 L7.05064866,63.2523229 L27.1380156,43.3699291 L27.1380156,19.9294152 L40.5295936,19.9294152 L40.5295936,0.047021339 L41.3665672,0.047021339 L41.3665672,20.7578482 L27.9749892,20.7578482 L27.9749892,43.7095866 L7.88762228,63.5919805 L7.88762228,64.7062229 Z M21.2792003,22.3732927 L21.2792003,40.3958543 L1.1918333,60.2782481 L1.1918333,86.2040613 L12.1143391,86.2040613 C12.3291754,85.1623219 13.3060634,84.4508195 14.3748058,84.5576828 C15.4435481,84.664546 16.2569314,85.555057 16.2569314,86.6182778 C16.2569314,87.6814986 15.4435481,88.5720096 14.3748058,88.6788729 C13.3060634,88.7857361 12.3291754,88.0742337 12.1143391,87.0324943 L0.354859673,87.0324943 L0.354859673,59.9385906 L20.4422266,40.0561968 L20.4422266,22.3732927 C19.3897477,22.1606486 18.6709103,21.1937288 18.7788752,20.135892 C18.8868401,19.0780553 19.7865316,18.2729717 20.8607134,18.2729717 C21.9348953,18.2729717 22.8345868,19.0780553 22.9425517,20.135892 C23.0505166,21.1937288 22.3316792,22.1606486 21.2792003,22.3732927 L21.2792003,22.3732927 Z M14.5834113,29.0007574 L14.5834113,37.082122 L0.354859673,51.1654843 L0.354859673,49.9973937 L13.7464376,36.7424645 L13.7464376,29.0007574 C12.6939587,28.7881132 11.9751213,27.8211935 12.0830862,26.7633567 C12.1910511,25.7055199 13.0907426,24.9004363 14.1649245,24.9004363 C15.2391063,24.9004363 16.1387979,25.7055199 16.2467628,26.7633567 C16.3547277,27.8211935 15.6358902,28.7881132 14.5834113,29.0007574 Z M5.4185501,13.3019506 C5.63338646,12.2602112 6.61027445,11.5487088 7.67901678,11.6555721 C8.7477591,11.7624353 9.56114246,12.6529463 9.56114246,13.7161671 C9.56114246,14.7793879 8.7477591,15.6698989 7.67901678,15.7767621 C6.61027445,15.8836254 5.63338646,15.172123 5.4185501,14.1303836 L4.29282057,14.1303836 L0.354859673,18.0281613 L0.354859673,16.8642128 L3.94966139,13.3019506 L5.4185501,13.3019506 Z M116.652345,20.7578482 C116.437508,21.7995876 115.46062,22.51109 114.391878,22.4042268 C113.323136,22.2973635 112.509752,21.4068525 112.509752,20.3436317 C112.509752,19.2804109 113.323136,18.3898999 114.391878,18.2830367 C115.46062,18.1761734 116.437508,18.8876758 116.652345,19.9294152 L124.473863,19.9294152 L127.57485,16.8600706 L127.57485,18.0281613 L124.817022,20.7578482 L116.652345,20.7578482 L116.652345,20.7578482 Z M109.956556,87.0324943 C109.741719,88.0742337 108.764831,88.7857361 107.696089,88.6788729 C106.627347,88.5720096 105.813963,87.6814986 105.813963,86.6182778 C105.813963,85.555057 106.627347,84.664546 107.696089,84.5576828 C108.764831,84.4508195 109.741719,85.1623219 109.956556,86.2040613 L120.879061,86.2040613 L120.879061,56.6248583 L127.57485,49.9973937 L127.57485,51.1654843 L121.716035,56.9645158 L121.716035,87.0324943 L109.956556,87.0324943 L109.956556,87.0324943 Z M22.9112988,100.287424 C22.6964625,101.329163 21.7195745,102.040665 20.6508321,101.933802 C19.5820898,101.826939 18.7687065,100.936428 18.7687065,99.873207 C18.7687065,98.8099862 19.5820898,97.9194752 20.6508321,97.812612 C21.7195745,97.7057488 22.6964625,98.4172511 22.9112988,99.4589905 L27.1380156,99.4589905 L27.1380156,90.1018389 L17.3412394,80.4050297 L9.51972085,80.4050297 C9.30488449,81.4467691 8.3279965,82.1582715 7.25925417,82.0514082 C6.19051184,81.944545 5.37712849,81.054034 5.37712849,79.9908132 C5.37712849,78.9275924 6.19051184,78.0370814 7.25925417,77.9302182 C8.3279965,77.8233549 9.30488449,78.5348573 9.51972085,79.5765967 L17.6843985,79.5765967 L27.9749892,89.7621813 L27.9749892,100.287424 L22.9112988,100.287424 L22.9112988,100.287424 Z M85.7680179,106.086455 C85.9828543,105.044716 86.9597423,104.333213 88.0284846,104.440077 C89.097227,104.54694 89.9106103,105.437451 89.9106103,106.500672 C89.9106103,107.563892 89.097227,108.454403 88.0284846,108.561267 C86.9597423,108.66813 85.9828543,107.956628 85.7680179,106.914888 L40.5295936,106.914888 L40.5295936,83.4702321 L24.0412132,67.1501005 L16.2155098,67.1501005 C16.0006735,68.1918399 15.0237855,68.9033422 13.9550432,68.796479 C12.8863008,68.6896158 12.0729175,67.7991048 12.0729175,66.735884 C12.0729175,65.6726632 12.8863008,64.7821521 13.9550432,64.6752889 C15.0237855,64.5684257 16.0006735,65.2799281 16.2155098,66.3216674 L24.3760027,66.3216674 L41.3665672,83.1388589 L41.3665672,106.086455 L85.7680179,106.086455 L85.7680179,106.086455 Z M22.9112988,106.914888 C22.6964625,107.956628 21.7195745,108.66813 20.6508321,108.561267 C19.5820898,108.454403 18.7687065,107.563892 18.7687065,106.500672 C18.7687065,105.437451 19.5820898,104.54694 20.6508321,104.440077 C21.7195745,104.333213 22.6964625,105.044716 22.9112988,106.086455 L33.8338046,106.086455 L33.8338046,86.7881066 L20.6891339,73.7775651 L9.51972085,73.7775651 C9.30488449,74.8193045 8.3279965,75.5308068 7.25925417,75.4239436 C6.19051184,75.3170804 5.37712849,74.4265694 5.37712849,73.3633486 C5.37712849,72.3001278 6.19051184,71.4096168 7.25925417,71.3027535 C8.3279965,71.1958903 9.30488449,71.9073927 9.51972085,72.949132 L21.032293,72.949132 L34.6707782,86.448449 L34.6707782,106.914888 L22.9112988,106.914888 L22.9112988,106.914888 Z M14.5834113,16.5328396 L14.5834113,17.1997282 L4.29282057,27.3853129 L0.354859673,27.3853129 L0.354859673,26.5568798 L3.94966139,26.5568798 L13.7464376,16.8600706 L13.7464376,0.047021339 L14.5834113,0.047021339 L14.5834113,16.5328396 Z M1.1918333,124.353404 C2.01386223,124.519342 2.65628405,125.155208 2.82393186,125.968849 L1.95766416,125.968849 C1.84681307,125.657852 1.61561133,125.403224 1.3149816,125.261047 C1.01435187,125.118869 0.668952956,125.100805 0.354859673,125.210833 L0.354859673,106.086455 L7.88762228,106.086455 L7.88762228,125.968849 L7.05064866,125.968849 L7.05064866,106.914888 L1.1918333,106.914888 L1.1918333,124.353404 Z M14.5834113,99.873207 L14.5834113,125.968849 L13.7464376,125.968849 L13.7464376,100.287424 L0.354859673,100.287424 L0.354859673,99.4589905 L14.5834113,99.4589905 L14.5834113,99.873207 Z M7.46913547,7.50291903 L0.354859673,7.50291903 L0.354859673,6.67448595 L7.05064866,6.67448595 L7.05064866,0.047021339 L7.88762228,0.047021339 L7.88762228,7.50291903 L7.46913547,7.50291903 Z M121.716035,6.67448595 L127.57485,6.67448595 L127.57485,7.50291903 L120.879061,7.50291903 L120.879061,0.047021339 L121.716035,0.047021339 L121.716035,6.67448595 Z M108.324457,119.755601 L108.324457,125.968849 L107.487483,125.968849 L107.487483,120.169817 L101.628668,120.169817 L101.628668,125.968849 L100.791694,125.968849 L100.791694,119.341384 L108.324457,119.341384 L108.324457,119.755601 Z M0.354859673,38.1963645 C0.970127764,38.0751387 1.60793587,38.2324178 2.0938306,38.6251827 C2.57972534,39.0179476 2.86285597,39.605094 2.86578054,40.2260255 C2.86590881,40.8480187 2.58360362,41.4371362 2.09688341,41.8305683 C1.61016319,42.2240005 0.970568759,42.3800852 0.354859673,42.2556866 L0.354859673,41.3982583 C0.874959054,41.5793524 1.45356406,41.403392 1.78120774,40.9644895 C2.10885141,40.525587 2.10885141,39.926464 1.78120774,39.4875615 C1.45356406,39.0486591 0.874959054,38.8726986 0.354859673,39.0537927 L0.354859673,38.1963645 L0.354859673,38.1963645 Z M33.8338046,112.71392 L34.6707782,112.71392 L34.6707782,125.968849 L33.8338046,125.968849 L33.8338046,112.71392 Z M49.6944548,125.968849 L48.8281871,125.968849 C48.6513894,125.471398 48.1766386,125.138568 47.6438694,125.138568 C47.1111002,125.138568 46.6363494,125.471398 46.4595517,125.968849 L45.593284,125.968849 C45.7913088,125.00359 46.6487573,124.309906 47.6438694,124.309906 C48.6389815,124.309906 49.49643,125.00359 49.6944548,125.968849 L49.6944548,125.968849 Z M2.82393186,0.047021339 C2.96020239,0.727718768 2.74442949,1.43083976 2.24868687,1.92152377 C1.75294426,2.41220779 1.0425746,2.62577892 0.354859673,2.49089891 L0.354859673,1.63347068 C0.811147677,1.79358431 1.31978972,1.67975971 1.66211006,1.34093244 C2.0044304,1.00210516 2.11942844,0.498653342 1.95766416,0.047021339 L2.82393186,0.047021339 L2.82393186,0.047021339 Z M125.942752,0.047021339 L126.80902,0.047021339 C126.697858,0.357909588 126.716108,0.699784025 126.859751,0.997346105 C127.003394,1.29490818 127.260647,1.52375072 127.57485,1.63347068 L127.57485,2.49089891 C127.030946,2.38114279 126.553392,2.06196833 126.247295,1.60362427 C125.941198,1.14528022 125.831647,0.585331941 125.942752,0.047021339 L125.942752,0.047021339 Z M127.57485,124.353404 L127.57485,125.210833 C127.216928,125.335922 126.935399,125.614579 126.80902,125.968849 L125.942752,125.968849 C126.1104,125.155208 126.752822,124.519342 127.57485,124.353404 L127.57485,124.353404 Z M40.9480804,41.4686752 C41.3966132,41.4686752 41.8110747,41.2318275 42.0353411,40.8473504 C42.2596075,40.4628732 42.2596075,39.9891778 42.0353411,39.6047007 C41.8110747,39.2202236 41.3966132,38.9833759 40.9480804,38.9833759 C40.2547088,38.9833759 39.69262,39.5397291 39.69262,40.2260255 C39.69262,40.912322 40.2547088,41.4686752 40.9480804,41.4686752 L40.9480804,41.4686752 Z M40.9480804,34.8412105 C41.6414521,34.8412105 42.2035408,34.2848574 42.2035408,33.5985609 C42.2035408,32.9122645 41.6414521,32.3559113 40.9480804,32.3559113 C40.2547088,32.3559113 39.69262,32.9122645 39.69262,33.5985609 C39.69262,34.2848574 40.2547088,34.8412105 40.9480804,34.8412105 L40.9480804,34.8412105 Z M47.6438694,41.4686752 C48.0924022,41.4686752 48.5068637,41.2318275 48.7311301,40.8473504 C48.9553965,40.4628732 48.9553965,39.9891778 48.7311301,39.6047007 C48.5068637,39.2202236 48.0924022,38.9833759 47.6438694,38.9833759 C46.9504977,38.9833759 46.388409,39.5397291 46.388409,40.2260255 C46.388409,40.912322 46.9504977,41.4686752 47.6438694,41.4686752 L47.6438694,41.4686752 Z M54.3396584,48.0961398 C55.03303,48.0961398 55.5951188,47.5397866 55.5951188,46.8534901 C55.5951188,46.1671937 55.03303,45.6108405 54.3396584,45.6108405 C53.6462867,45.6108405 53.0841979,46.1671937 53.0841979,46.8534901 C53.0841979,47.5397866 53.6462867,48.0961398 54.3396584,48.0961398 Z M54.3396584,54.7236044 C55.03303,54.7236044 55.5951188,54.1672512 55.5951188,53.4809548 C55.5951188,52.7946583 55.03303,52.2383051 54.3396584,52.2383051 C53.6462867,52.2383051 53.0841979,52.7946583 53.0841979,53.4809548 C53.0841979,54.1672512 53.6462867,54.7236044 54.3396584,54.7236044 Z M34.2522914,67.9785336 C34.9456631,67.9785336 35.5077519,67.4221804 35.5077519,66.735884 C35.5077519,66.0495875 34.9456631,65.4932344 34.2522914,65.4932344 C33.5589198,65.4932344 32.996831,66.0495875 32.996831,66.735884 C32.996831,67.4221804 33.5589198,67.9785336 34.2522914,67.9785336 Z M40.9480804,74.6059982 C41.6414521,74.6059982 42.2035408,74.049645 42.2035408,73.3633486 C42.2035408,72.6770522 41.6414521,72.120699 40.9480804,72.120699 C40.2547088,72.120699 39.69262,72.6770522 39.69262,73.3633486 C39.69262,74.049645 40.2547088,74.6059982 40.9480804,74.6059982 L40.9480804,74.6059982 Z M54.3396584,94.488392 C55.03303,94.488392 55.5951188,93.9320388 55.5951188,93.2457424 C55.5951188,92.559446 55.03303,92.0030928 54.3396584,92.0030928 C53.6462867,92.0030928 53.0841979,92.559446 53.0841979,93.2457424 C53.0841979,93.9320388 53.6462867,94.488392 54.3396584,94.488392 Z M47.6438694,101.115857 C48.337241,101.115857 48.8993298,100.559503 48.8993298,99.873207 C48.8993298,99.1869106 48.337241,98.6305574 47.6438694,98.6305574 C46.9504977,98.6305574 46.388409,99.1869106 46.388409,99.873207 C46.388409,100.559503 46.9504977,101.115857 47.6438694,101.115857 Z M61.0354474,94.488392 C61.728819,94.488392 62.2909078,93.9320388 62.2909078,93.2457424 C62.2909078,92.559446 61.728819,92.0030928 61.0354474,92.0030928 C60.3420757,92.0030928 59.7799869,92.559446 59.7799869,93.2457424 C59.7799869,93.9320388 60.3420757,94.488392 61.0354474,94.488392 Z M61.0354474,81.2334628 C61.728819,81.2334628 62.2909078,80.6771096 62.2909078,79.9908132 C62.2909078,79.3045168 61.728819,78.7481636 61.0354474,78.7481636 C60.3420757,78.7481636 59.7799869,79.3045168 59.7799869,79.9908132 C59.7799869,80.6771096 60.3420757,81.2334628 61.0354474,81.2334628 Z M67.7312364,94.488392 C68.424608,94.488392 68.9866968,93.9320388 68.9866968,93.2457424 C68.9866968,92.559446 68.424608,92.0030928 67.7312364,92.0030928 C67.0378647,92.0030928 66.4757759,92.559446 66.4757759,93.2457424 C66.4757759,93.9320388 67.0378647,94.488392 67.7312364,94.488392 Z M81.1228143,101.115857 C81.816186,101.115857 82.3782748,100.559503 82.3782748,99.873207 C82.3782748,99.1869106 81.816186,98.6305574 81.1228143,98.6305574 C80.4294427,98.6305574 79.8673539,99.1869106 79.8673539,99.873207 C79.8673539,100.559503 80.4294427,101.115857 81.1228143,101.115857 Z M81.1228143,94.488392 C81.816186,94.488392 82.3782748,93.9320388 82.3782748,93.2457424 C82.3782748,92.559446 81.816186,92.0030928 81.1228143,92.0030928 C80.4294427,92.0030928 79.8673539,92.559446 79.8673539,93.2457424 C79.8673539,93.9320388 80.4294427,94.488392 81.1228143,94.488392 Z M74.4270253,67.9785336 C75.120397,67.9785336 75.6824858,67.4221804 75.6824858,66.735884 C75.6824858,66.0495875 75.120397,65.4932344 74.4270253,65.4932344 C73.7336537,65.4932344 73.1715649,66.0495875 73.1715649,66.735884 C73.1715649,67.4221804 73.7336537,67.9785336 74.4270253,67.9785336 Z M81.1228143,67.9785336 C81.816186,67.9785336 82.3782748,67.4221804 82.3782748,66.735884 C82.3782748,66.0495875 81.816186,65.4932344 81.1228143,65.4932344 C80.4294427,65.4932344 79.8673539,66.0495875 79.8673539,66.735884 C79.8673539,67.4221804 80.4294427,67.9785336 81.1228143,67.9785336 Z M87.8186033,107.743321 C88.511975,107.743321 89.0740638,107.186968 89.0740638,106.500672 C89.0740638,105.814375 88.511975,105.258022 87.8186033,105.258022 C87.1252317,105.258022 86.5631429,105.814375 86.5631429,106.500672 C86.5631429,107.186968 87.1252317,107.743321 87.8186033,107.743321 L87.8186033,107.743321 Z M87.8186033,114.370786 C88.511975,114.370786 89.0740638,113.814433 89.0740638,113.128136 C89.0740638,112.44184 88.511975,111.885487 87.8186033,111.885487 C87.1252317,111.885487 86.5631429,112.44184 86.5631429,113.128136 C86.5631429,113.814433 87.1252317,114.370786 87.8186033,114.370786 L87.8186033,114.370786 Z M94.5143923,120.99825 C95.207764,120.99825 95.7698527,120.441897 95.7698527,119.755601 C95.7698527,119.069304 95.207764,118.512951 94.5143923,118.512951 C93.8210207,118.512951 93.2589319,119.069304 93.2589319,119.755601 C93.2589319,120.441897 93.8210207,120.99825 94.5143923,120.99825 Z M101.210181,61.351069 C101.903553,61.351069 102.465642,60.7947158 102.465642,60.1084194 C102.465642,59.4221229 101.903553,58.8657698 101.210181,58.8657698 C100.51681,58.8657698 99.9547209,59.4221229 99.9547209,60.1084194 C99.9547209,60.7947158 100.51681,61.351069 101.210181,61.351069 Z M101.210181,74.6059982 C101.903553,74.6059982 102.465642,74.049645 102.465642,73.3633486 C102.465642,72.6770522 101.903553,72.120699 101.210181,72.120699 C100.51681,72.120699 99.9547209,72.6770522 99.9547209,73.3633486 C99.9547209,74.049645 100.51681,74.6059982 101.210181,74.6059982 Z M107.90597,61.351069 C108.599342,61.351069 109.161431,60.7947158 109.161431,60.1084194 C109.161431,59.4221229 108.599342,58.8657698 107.90597,58.8657698 C107.212599,58.8657698 106.65051,59.4221229 106.65051,60.1084194 C106.65051,60.7947158 107.212599,61.351069 107.90597,61.351069 Z M114.601759,54.7236044 C115.295131,54.7236044 115.85722,54.1672512 115.85722,53.4809548 C115.85722,52.7946583 115.295131,52.2383051 114.601759,52.2383051 C113.908388,52.2383051 113.346299,52.7946583 113.346299,53.4809548 C113.346299,54.1672512 113.908388,54.7236044 114.601759,54.7236044 Z M74.4270253,54.7236044 C75.120397,54.7236044 75.6824858,54.1672512 75.6824858,53.4809548 C75.6824858,52.7946583 75.120397,52.2383051 74.4270253,52.2383051 C73.7336537,52.2383051 73.1715649,52.7946583 73.1715649,53.4809548 C73.1715649,54.1672512 73.7336537,54.7236044 74.4270253,54.7236044 Z M74.4270253,61.351069 C75.120397,61.351069 75.6824858,60.7947158 75.6824858,60.1084194 C75.6824858,59.4221229 75.120397,58.8657698 74.4270253,58.8657698 C73.7336537,58.8657698 73.1715649,59.4221229 73.1715649,60.1084194 C73.1715649,60.7947158 73.7336537,61.351069 74.4270253,61.351069 Z M81.1228143,48.0961398 C81.816186,48.0961398 82.3782748,47.5397866 82.3782748,46.8534901 C82.3782748,46.1671937 81.816186,45.6108405 81.1228143,45.6108405 C80.4294427,45.6108405 79.8673539,46.1671937 79.8673539,46.8534901 C79.8673539,47.5397866 80.4294427,48.0961398 81.1228143,48.0961398 Z M121.297548,48.0961398 C121.99092,48.0961398 122.553009,47.5397866 122.553009,46.8534901 C122.553009,46.1671937 121.99092,45.6108405 121.297548,45.6108405 C120.604177,45.6108405 120.042088,46.1671937 120.042088,46.8534901 C120.042088,47.5397866 120.604177,48.0961398 121.297548,48.0961398 Z M114.601759,21.5862813 C115.295131,21.5862813 115.85722,21.0299281 115.85722,20.3436317 C115.85722,19.6573353 115.295131,19.1009821 114.601759,19.1009821 C113.908388,19.1009821 113.346299,19.6573353 113.346299,20.3436317 C113.346299,21.0299281 113.908388,21.5862813 114.601759,21.5862813 Z M121.297548,14.9588167 C121.99092,14.9588167 122.553009,14.4024635 122.553009,13.7161671 C122.553009,13.0298707 121.99092,12.4735175 121.297548,12.4735175 C120.604177,12.4735175 120.042088,13.0298707 120.042088,13.7161671 C120.042088,14.4024635 120.604177,14.9588167 121.297548,14.9588167 Z M107.90597,14.9588167 C108.599342,14.9588167 109.161431,14.4024635 109.161431,13.7161671 C109.161431,13.0298707 108.599342,12.4735175 107.90597,12.4735175 C107.212599,12.4735175 106.65051,13.0298707 106.65051,13.7161671 C106.65051,14.4024635 107.212599,14.9588167 107.90597,14.9588167 Z M107.90597,8.3313521 C108.599342,8.3313521 109.161431,7.77499892 109.161431,7.08870249 C109.161431,6.40240606 108.599342,5.84605287 107.90597,5.84605287 C107.212599,5.84605287 106.65051,6.40240606 106.65051,7.08870249 C106.65051,7.77499892 107.212599,8.3313521 107.90597,8.3313521 Z M101.210181,8.3313521 C101.903553,8.3313521 102.465642,7.77499892 102.465642,7.08870249 C102.465642,6.40240606 101.903553,5.84605287 101.210181,5.84605287 C100.51681,5.84605287 99.9547209,6.40240606 99.9547209,7.08870249 C99.9547209,7.77499892 100.51681,8.3313521 101.210181,8.3313521 L101.210181,8.3313521 Z M94.5143923,8.3313521 C95.207764,8.3313521 95.7698527,7.77499892 95.7698527,7.08870249 C95.7698527,6.40240606 95.207764,5.84605287 94.5143923,5.84605287 C93.8210207,5.84605287 93.2589319,6.40240606 93.2589319,7.08870249 C93.2589319,7.77499892 93.8210207,8.3313521 94.5143923,8.3313521 L94.5143923,8.3313521 Z M87.8186033,8.3313521 C88.511975,8.3313521 89.0740638,7.77499892 89.0740638,7.08870249 C89.0740638,6.40240606 88.511975,5.84605287 87.8186033,5.84605287 C87.1252317,5.84605287 86.5631429,6.40240606 86.5631429,7.08870249 C86.5631429,7.77499892 87.1252317,8.3313521 87.8186033,8.3313521 Z M20.8607134,14.9588167 C21.5540851,14.9588167 22.1161739,14.4024635 22.1161739,13.7161671 C22.1161739,13.0298707 21.5540851,12.4735175 20.8607134,12.4735175 C20.1673418,12.4735175 19.605253,13.0298707 19.605253,13.7161671 C19.605253,14.4024635 20.1673418,14.9588167 20.8607134,14.9588167 Z M7.46913547,14.9588167 C8.16250712,14.9588167 8.72459591,14.4024635 8.72459591,13.7161671 C8.72459591,13.0298707 8.16250712,12.4735175 7.46913547,12.4735175 C6.77576382,12.4735175 6.21367504,13.0298707 6.21367504,13.7161671 C6.21367504,14.4024635 6.77576382,14.9588167 7.46913547,14.9588167 Z M20.8607134,21.5862813 C21.5540851,21.5862813 22.1161739,21.0299281 22.1161739,20.3436317 C22.1161739,19.6573353 21.5540851,19.1009821 20.8607134,19.1009821 C20.1673418,19.1009821 19.605253,19.6573353 19.605253,20.3436317 C19.605253,21.0299281 20.1673418,21.5862813 20.8607134,21.5862813 Z M14.1649245,28.2137459 C14.8582961,28.2137459 15.4203849,27.6573927 15.4203849,26.9710963 C15.4203849,26.2847999 14.8582961,25.7284467 14.1649245,25.7284467 C13.4715528,25.7284467 12.909464,26.2847999 12.909464,26.9710963 C12.909464,27.6573927 13.4715528,28.2137459 14.1649245,28.2137459 L14.1649245,28.2137459 Z M20.8607134,8.3313521 C21.5540851,8.3313521 22.1161739,7.77499892 22.1161739,7.08870249 C22.1161739,6.40240606 21.5540851,5.84605287 20.8607134,5.84605287 C20.1673418,5.84605287 19.605253,6.40240606 19.605253,7.08870249 C19.605253,7.77499892 20.1673418,8.3313521 20.8607134,8.3313521 Z M20.8607134,107.743321 C21.5540851,107.743321 22.1161739,107.186968 22.1161739,106.500672 C22.1161739,105.814375 21.5540851,105.258022 20.8607134,105.258022 C20.1673418,105.258022 19.605253,105.814375 19.605253,106.500672 C19.605253,107.186968 20.1673418,107.743321 20.8607134,107.743321 L20.8607134,107.743321 Z M27.5565024,120.99825 C28.2498741,120.99825 28.8119629,120.441897 28.8119629,119.755601 C28.8119629,119.069304 28.2498741,118.512951 27.5565024,118.512951 C26.8631308,118.512951 26.301042,119.069304 26.301042,119.755601 C26.301042,120.441897 26.8631308,120.99825 27.5565024,120.99825 Z M20.8607134,94.488392 C21.5540851,94.488392 22.1161739,93.9320388 22.1161739,93.2457424 C22.1161739,92.559446 21.5540851,92.0030928 20.8607134,92.0030928 C20.1673418,92.0030928 19.605253,92.559446 19.605253,93.2457424 C19.605253,93.9320388 20.1673418,94.488392 20.8607134,94.488392 Z M20.8607134,101.115857 C21.5540851,101.115857 22.1161739,100.559503 22.1161739,99.873207 C22.1161739,99.1869106 21.5540851,98.6305574 20.8607134,98.6305574 C20.1673418,98.6305574 19.605253,99.1869106 19.605253,99.873207 C19.605253,100.559503 20.1673418,101.115857 20.8607134,101.115857 Z M14.1649245,87.8609274 C14.8582961,87.8609274 15.4203849,87.3045742 15.4203849,86.6182778 C15.4203849,85.9319814 14.8582961,85.3756282 14.1649245,85.3756282 C13.4715528,85.3756282 12.909464,85.9319814 12.909464,86.6182778 C12.909464,87.3045742 13.4715528,87.8609274 14.1649245,87.8609274 L14.1649245,87.8609274 Z M47.6438694,14.9588167 C48.337241,14.9588167 48.8993298,14.4024635 48.8993298,13.7161671 C48.8993298,13.0298707 48.337241,12.4735175 47.6438694,12.4735175 C46.9504977,12.4735175 46.388409,13.0298707 46.388409,13.7161671 C46.388409,14.4024635 46.9504977,14.9588167 47.6438694,14.9588167 Z M54.3396584,14.9588167 C55.03303,14.9588167 55.5951188,14.4024635 55.5951188,13.7161671 C55.5951188,13.0298707 55.03303,12.4735175 54.3396584,12.4735175 C53.6462867,12.4735175 53.0841979,13.0298707 53.0841979,13.7161671 C53.0841979,14.4024635 53.6462867,14.9588167 54.3396584,14.9588167 Z M47.6438694,8.3313521 C48.337241,8.3313521 48.8993298,7.77499892 48.8993298,7.08870249 C48.8993298,6.40240606 48.337241,5.84605287 47.6438694,5.84605287 C46.9504977,5.84605287 46.388409,6.40240606 46.388409,7.08870249 C46.388409,7.77499892 46.9504977,8.3313521 47.6438694,8.3313521 Z M61.0354474,28.2137459 C61.728819,28.2137459 62.2909078,27.6573927 62.2909078,26.9710963 C62.2909078,26.2847999 61.728819,25.7284467 61.0354474,25.7284467 C60.3420757,25.7284467 59.7799869,26.2847999 59.7799869,26.9710963 C59.7799869,27.6573927 60.3420757,28.2137459 61.0354474,28.2137459 Z M67.7312364,21.5862813 C68.424608,21.5862813 68.9866968,21.0299281 68.9866968,20.3436317 C68.9866968,19.6573353 68.424608,19.1009821 67.7312364,19.1009821 C67.0378647,19.1009821 66.4757759,19.6573353 66.4757759,20.3436317 C66.4757759,21.0299281 67.0378647,21.5862813 67.7312364,21.5862813 Z M67.7312364,8.3313521 C68.424608,8.3313521 68.9866968,7.77499892 68.9866968,7.08870249 C68.9866968,6.40240606 68.424608,5.84605287 67.7312364,5.84605287 C67.0378647,5.84605287 66.4757759,6.40240606 66.4757759,7.08870249 C66.4757759,7.77499892 67.0378647,8.3313521 67.7312364,8.3313521 L67.7312364,8.3313521 Z M114.601759,81.2334628 C115.295131,81.2334628 115.85722,80.6771096 115.85722,79.9908132 C115.85722,79.3045168 115.295131,78.7481636 114.601759,78.7481636 C113.908388,78.7481636 113.346299,79.3045168 113.346299,79.9908132 C113.346299,80.6771096 113.908388,81.2334628 114.601759,81.2334628 Z M107.90597,87.8609274 C108.599342,87.8609274 109.161431,87.3045742 109.161431,86.6182778 C109.161431,85.9319814 108.599342,85.3756282 107.90597,85.3756282 C107.212599,85.3756282 106.65051,85.9319814 106.65051,86.6182778 C106.65051,87.3045742 107.212599,87.8609274 107.90597,87.8609274 L107.90597,87.8609274 Z M107.90597,94.488392 C108.599342,94.488392 109.161431,93.9320388 109.161431,93.2457424 C109.161431,92.559446 108.599342,92.0030928 107.90597,92.0030928 C107.212599,92.0030928 106.65051,92.559446 106.65051,93.2457424 C106.65051,93.9320388 107.212599,94.488392 107.90597,94.488392 Z M107.90597,101.115857 C108.599342,101.115857 109.161431,100.559503 109.161431,99.873207 C109.161431,99.1869106 108.599342,98.6305574 107.90597,98.6305574 C107.212599,98.6305574 106.65051,99.1869106 106.65051,99.873207 C106.65051,100.559503 107.212599,101.115857 107.90597,101.115857 Z M7.46913547,74.6059982 C8.16250712,74.6059982 8.72459591,74.049645 8.72459591,73.3633486 C8.72459591,72.6770522 8.16250712,72.120699 7.46913547,72.120699 C6.77576382,72.120699 6.21367504,72.6770522 6.21367504,73.3633486 C6.21367504,74.049645 6.77576382,74.6059982 7.46913547,74.6059982 Z M7.46913547,81.2334628 C8.16250712,81.2334628 8.72459591,80.6771096 8.72459591,79.9908132 C8.72459591,79.3045168 8.16250712,78.7481636 7.46913547,78.7481636 C6.77576382,78.7481636 6.21367504,79.3045168 6.21367504,79.9908132 C6.21367504,80.6771096 6.77576382,81.2334628 7.46913547,81.2334628 Z M7.46913547,67.9785336 C8.16250712,67.9785336 8.72459591,67.4221804 8.72459591,66.735884 C8.72459591,66.0495875 8.16250712,65.4932344 7.46913547,65.4932344 C6.77576382,65.4932344 6.21367504,66.0495875 6.21367504,66.735884 C6.21367504,67.4221804 6.77576382,67.9785336 7.46913547,67.9785336 Z M14.1649245,67.9785336 C14.8582961,67.9785336 15.4203849,67.4221804 15.4203849,66.735884 C15.4203849,66.0495875 14.8582961,65.4932344 14.1649245,65.4932344 C13.4715528,65.4932344 12.909464,66.0495875 12.909464,66.735884 C12.909464,67.4221804 13.4715528,67.9785336 14.1649245,67.9785336 Z M7.46913547,34.8412105 C8.16250712,34.8412105 8.72459591,34.2848574 8.72459591,33.5985609 C8.72459591,32.9122645 8.16250712,32.3559113 7.46913547,32.3559113 C6.77576382,32.3559113 6.21367504,32.9122645 6.21367504,33.5985609 C6.21367504,34.2848574 6.77576382,34.8412105 7.46913547,34.8412105 Z M20.8607134,61.351069 C21.5540851,61.351069 22.1161739,60.7947158 22.1161739,60.1084194 C22.1161739,59.4221229 21.5540851,58.8657698 20.8607134,58.8657698 C20.1673418,58.8657698 19.605253,59.4221229 19.605253,60.1084194 C19.605253,60.7947158 20.1673418,61.351069 20.8607134,61.351069 Z M27.5565024,54.7236044 C28.2498741,54.7236044 28.8119629,54.1672512 28.8119629,53.4809548 C28.8119629,52.7946583 28.2498741,52.2383051 27.5565024,52.2383051 C26.8631308,52.2383051 26.301042,52.7946583 26.301042,53.4809548 C26.301042,54.1672512 26.8631308,54.7236044 27.5565024,54.7236044 Z"></path>
                                    </g>
                                </g>
                            </g>
                            <g id="circuit-board" transform="translate(19.325873, 41.278545) scale(-1, 1) translate(-19.325873, -41.278545) translate(0.325873, 2.778545)">
                                <mask id="mask-4" fill="white">
                                    <use xlink:href="#path-3"></use>
                                </mask>
                                <g id="Mask"></g>
                                <g opacity="0.30321558" mask="url(#mask-4)" id="Shape" fill-rule="nonzero" fill="#FFFFFF">
                                    <g transform="translate(-28.597826, -17.285302)">
                                        <path d="M18.8101281,92.8315259 C19.0249644,91.7897865 20.0018524,91.0782842 21.0705948,91.1851474 C22.1393371,91.2920106 22.9527204,92.1825216 22.9527204,93.2457424 C22.9527204,94.3089632 22.1393371,95.1994742 21.0705948,95.3063375 C20.0018524,95.4132007 19.0249644,94.7016983 18.8101281,93.659959 L0.354859673,93.659959 L0.354859673,92.8315259 L18.8101281,92.8315259 Z M85.7680179,112.71392 C85.9828543,111.67218 86.9597423,110.960678 88.0284846,111.067541 C89.097227,111.174404 89.9106103,112.064915 89.9106103,113.128136 C89.9106103,114.191357 89.097227,115.081868 88.0284846,115.188731 C86.9597423,115.295595 85.9828543,114.584092 85.7680179,113.542353 L34.6707782,113.542353 L34.6707782,112.71392 L85.7680179,112.71392 Z M109.956556,93.659959 C109.741719,94.7016983 108.764831,95.4132007 107.696089,95.3063375 C106.627347,95.1994742 105.813963,94.3089632 105.813963,93.2457424 C105.813963,92.1825216 106.627347,91.2920106 107.696089,91.1851474 C108.764831,91.0782842 109.741719,91.7897865 109.956556,92.8315259 L127.57485,92.8315259 L127.57485,93.659959 L109.956556,93.659959 L109.956556,93.659959 Z M109.956556,100.287424 C109.741719,101.329163 108.764831,102.040665 107.696089,101.933802 C106.627347,101.826939 105.813963,100.936428 105.813963,99.873207 C105.813963,98.8099862 106.627347,97.9194752 107.696089,97.812612 C108.764831,97.7057488 109.741719,98.4172511 109.956556,99.4589905 L127.57485,99.4589905 L127.57485,100.287424 L109.956556,100.287424 Z M112.551174,53.0667382 C112.76601,52.0249989 113.742898,51.3134965 114.811641,51.4203597 C115.880383,51.5272229 116.693766,52.417734 116.693766,53.4809548 C116.693766,54.5441755 115.880383,55.4346866 114.811641,55.5415498 C113.742898,55.648413 112.76601,54.9369107 112.551174,53.8951713 L76.4776107,53.8951713 C76.2627744,54.9369107 75.2858864,55.648413 74.217144,55.5415498 C73.1484017,55.4346866 72.3350184,54.5441755 72.3350184,53.4809548 C72.3350184,52.417734 73.1484017,51.5272229 74.217144,51.4203597 C75.2858864,51.3134965 76.2627744,52.0249989 76.4776107,53.0667382 L112.551174,53.0667382 Z M5.4185501,33.1843444 C5.63338646,32.142605 6.61027445,31.4311027 7.67901678,31.5379659 C8.7477591,31.6448291 9.56114246,32.5353401 9.56114246,33.5985609 C9.56114246,34.6617817 8.7477591,35.5522928 7.67901678,35.659156 C6.61027445,35.7660192 5.63338646,35.0545168 5.4185501,34.0127775 L0.354859673,34.0127775 L0.354859673,33.1843444 L5.4185501,33.1843444 L5.4185501,33.1843444 Z M83.1733997,47.2677067 C82.9585633,48.309446 81.9816754,49.0209484 80.912933,48.9140852 C79.8441907,48.807222 79.0308073,47.9167109 79.0308073,46.8534901 C79.0308073,45.7902694 79.8441907,44.8997583 80.912933,44.7928951 C81.9816754,44.6860319 82.9585633,45.3975343 83.1733997,46.4392736 L119.246963,46.4392736 C119.461799,45.3975343 120.438687,44.6860319 121.50743,44.7928951 C122.576172,44.8997583 123.389555,45.7902694 123.389555,46.8534901 C123.389555,47.9167109 122.576172,48.807222 121.50743,48.9140852 C120.438687,49.0209484 119.461799,48.309446 119.246963,47.2677067 L83.1733997,47.2677067 L83.1733997,47.2677067 Z M108.324457,5.05904145 C109.376936,5.27168561 110.095773,6.23860535 109.987809,7.29644214 C109.879844,8.35427894 108.980152,9.15936246 107.90597,9.15936246 C106.831788,9.15936246 105.932097,8.35427894 105.824132,7.29644214 C105.716167,6.23860535 106.435005,5.27168561 107.487483,5.05904145 L107.487483,0.047021339 L108.324457,0.047021339 L108.324457,5.05904145 Z M81.5413011,91.2160814 C82.5937801,91.4287255 83.3126175,92.3956453 83.2046526,93.4534821 C83.0966877,94.5113189 82.1969962,95.3164024 81.1228143,95.3164024 C80.0486325,95.3164024 79.1489409,94.5113189 79.040976,93.4534821 C78.9330111,92.3956453 79.6518486,91.4287255 80.7043275,91.2160814 L80.7043275,68.765545 C79.6518486,68.5529009 78.9330111,67.5859811 79.040976,66.5281443 C79.1489409,65.4703075 80.0486325,64.665224 81.1228143,64.665224 C82.1969962,64.665224 83.0966877,65.4703075 83.2046526,66.5281443 C83.3126175,67.5859811 82.5937801,68.5529009 81.5413011,68.765545 L81.5413011,91.2160814 L81.5413011,91.2160814 Z M101.628668,9.11836352 L101.628668,33.1843444 L127.57485,33.1843444 L127.57485,34.0127775 L100.791694,34.0127775 L100.791694,9.11836352 C99.7392155,8.90571937 99.0203781,7.93879962 99.128343,6.88096283 C99.2363079,5.82312604 100.135999,5.01804251 101.210181,5.01804251 C102.284363,5.01804251 103.184055,5.82312604 103.29202,6.88096283 C103.399984,7.93879962 102.681147,8.90571937 101.628668,9.11836352 L101.628668,9.11836352 Z M108.324457,15.7458281 L108.324457,26.5568798 L127.57485,26.5568798 L127.57485,27.3853129 L107.487483,27.3853129 L107.487483,15.7458281 C106.435005,15.533184 105.716167,14.5662642 105.824132,13.5084274 C105.932097,12.4505906 106.831788,11.6455071 107.90597,11.6455071 C108.980152,11.6455071 109.879844,12.4505906 109.987809,13.5084274 C110.095773,14.5662642 109.376936,15.533184 108.324457,15.7458281 L108.324457,15.7458281 Z M54.7581452,55.5106158 L54.7581452,86.2040613 L61.4539342,86.2040613 L61.4539342,91.2160814 C62.5064131,91.4287255 63.2252506,92.3956453 63.1172857,93.4534821 C63.0093208,94.5113189 62.1096292,95.3164024 61.0354474,95.3164024 C59.9612656,95.3164024 59.061574,94.5113189 58.9536091,93.4534821 C58.8456442,92.3956453 59.5644816,91.4287255 60.6169606,91.2160814 L60.6169606,87.0324943 L53.9211716,87.0324943 L53.9211716,55.5106158 C52.8686926,55.2979716 52.1498552,54.3310519 52.2578201,53.2732151 C52.365785,52.2153783 53.2654766,51.4102948 54.3396584,51.4102948 C55.4138402,51.4102948 56.3135318,52.2153783 56.4214967,53.2732151 C56.5294616,54.3310519 55.8106241,55.2979716 54.7581452,55.5106158 Z M52.289073,46.4392736 C52.5039094,45.3975343 53.4807974,44.6860319 54.5495397,44.7928951 C55.618282,44.8997583 56.4316654,45.7902694 56.4316654,46.8534901 C56.4316654,47.9167109 55.618282,48.807222 54.5495397,48.9140852 C53.4807974,49.0209484 52.5039094,48.309446 52.289073,47.2677067 L48.0623562,47.2677067 L48.0623562,67.1501005 L36.3028768,67.1501005 C36.0880404,68.1918399 35.1111524,68.9033422 34.0424101,68.796479 C32.9736678,68.6896158 32.1602844,67.7991048 32.1602844,66.735884 C32.1602844,65.6726632 32.9736678,64.7821521 34.0424101,64.6752889 C35.1111524,64.5684257 36.0880404,65.2799281 36.3028768,66.3216674 L47.2253826,66.3216674 L47.2253826,46.4392736 L52.289073,46.4392736 Z M49.6944548,100.287424 C49.4796184,101.329163 48.5027304,102.040665 47.4339881,101.933802 C46.3652458,101.826939 45.5518624,100.936428 45.5518624,99.873207 C45.5518624,98.8099862 46.3652458,97.9194752 47.4339881,97.812612 C48.5027304,97.7057488 49.4796184,98.4172511 49.6944548,99.4589905 L74.0085385,99.4589905 L74.0085385,68.765545 C72.9560596,68.5529009 72.2372222,67.5859811 72.3451871,66.5281443 C72.453152,65.4703075 73.3528435,64.665224 74.4270253,64.665224 C75.5012072,64.665224 76.4008987,65.4703075 76.5088636,66.5281443 C76.6168285,67.5859811 75.8979911,68.5529009 74.8455122,68.765545 L74.8455122,100.287424 L49.6944548,100.287424 L49.6944548,100.287424 Z M42.9986658,73.7775651 C42.7838294,74.8193045 41.8069414,75.5308068 40.7381991,75.4239436 C39.6694568,75.3170804 38.8560734,74.4265694 38.8560734,73.3633486 C38.8560734,72.3001278 39.6694568,71.4096168 40.7381991,71.3027535 C41.8069414,71.1958903 42.7838294,71.9073927 42.9986658,72.949132 L48.0623562,72.949132 L48.0623562,92.8315259 L52.289073,92.8315259 C52.5039094,91.7897865 53.4807974,91.0782842 54.5495397,91.1851474 C55.618282,91.2920106 56.4316654,92.1825216 56.4316654,93.2457424 C56.4316654,94.3089632 55.618282,95.1994742 54.5495397,95.3063375 C53.4807974,95.4132007 52.5039094,94.7016983 52.289073,93.659959 L47.2253826,93.659959 L47.2253826,73.7775651 L42.9986658,73.7775651 L42.9986658,73.7775651 Z M27.9749892,117.72594 C29.0274682,117.938584 29.7463056,118.905504 29.6383407,119.963341 C29.5303758,121.021177 28.6306843,121.826261 27.5565024,121.826261 C26.4823206,121.826261 25.582629,121.021177 25.4746641,119.963341 C25.3666992,118.905504 26.0855367,117.938584 27.1380156,117.72594 L27.1380156,113.542353 L21.2792003,113.542353 L21.2792003,125.968849 L20.4422266,125.968849 L20.4422266,112.71392 L27.9749892,112.71392 L27.9749892,117.72594 Z M99.1595959,72.949132 C99.3744323,71.9073927 100.35132,71.1958903 101.420063,71.3027535 C102.488805,71.4096168 103.302188,72.3001278 103.302188,73.3633486 C103.302188,74.4265694 102.488805,75.3170804 101.420063,75.4239436 C100.35132,75.5308068 99.3744323,74.8193045 99.1595959,73.7775651 L94.9328791,73.7775651 L94.9328791,112.71392 L115.020246,112.71392 L115.020246,125.968849 L114.183272,125.968849 L114.183272,113.542353 L94.0959055,113.542353 L94.0959055,72.949132 L99.1595959,72.949132 Z M109.956556,60.5226359 C109.741719,61.5643753 108.764831,62.2758776 107.696089,62.1690144 C106.627347,62.0621512 105.813963,61.1716401 105.813963,60.1084194 C105.813963,59.0451986 106.627347,58.1546875 107.696089,58.0478243 C108.764831,57.9409611 109.741719,58.6524635 109.956556,59.6942028 L115.020246,59.6942028 L115.020246,77.9611522 C116.072725,78.1737963 116.791562,79.1407161 116.683598,80.1985529 C116.575633,81.2563896 115.675941,82.0614732 114.601759,82.0614732 C113.527577,82.0614732 112.627886,81.2563896 112.519921,80.1985529 C112.411956,79.1407161 113.130794,78.1737963 114.183272,77.9611522 L114.183272,60.5226359 L109.956556,60.5226359 Z M83.1733997,100.287424 C82.9585633,101.329163 81.9816754,102.040665 80.912933,101.933802 C79.8441907,101.826939 79.0308073,100.936428 79.0308073,99.873207 C79.0308073,98.8099862 79.8441907,97.9194752 80.912933,97.812612 C81.9816754,97.7057488 82.9585633,98.4172511 83.1733997,99.4589905 L87.4001165,99.4589905 L87.4001165,66.3216674 L94.0959055,66.3216674 L94.0959055,60.5226359 L76.4776107,60.5226359 C76.2627744,61.5643753 75.2858864,62.2758776 74.217144,62.1690144 C73.1484017,62.0621512 72.3350184,61.1716401 72.3350184,60.1084194 C72.3350184,59.0451986 73.1484017,58.1546875 74.217144,58.0478243 C75.2858864,57.9409611 76.2627744,58.6524635 76.4776107,59.6942028 L94.9328791,59.6942028 L94.9328791,67.1501005 L88.2370901,67.1501005 L88.2370901,100.287424 L83.1733997,100.287424 L83.1733997,100.287424 Z M119.246963,13.3019506 C119.461799,12.2602112 120.438687,11.5487088 121.50743,11.6555721 C122.576172,11.7624353 123.389555,12.6529463 123.389555,13.7161671 C123.389555,14.7793879 122.576172,15.6698989 121.50743,15.7767621 C120.438687,15.8836254 119.461799,15.172123 119.246963,14.1303836 L114.183272,14.1303836 L114.183272,0.047021339 L115.020246,0.047021339 L115.020246,13.3019506 L119.246963,13.3019506 L119.246963,13.3019506 Z M41.3665672,42.2556866 L41.3665672,60.5226359 L22.9112988,60.5226359 C22.6964625,61.5643753 21.7195745,62.2758776 20.6508321,62.1690144 C19.5820898,62.0621512 18.7687065,61.1716401 18.7687065,60.1084194 C18.7687065,59.0451986 19.5820898,58.1546875 20.6508321,58.0478243 C21.7195745,57.9409611 22.6964625,58.6524635 22.9112988,59.6942028 L40.5295936,59.6942028 L40.5295936,42.2556866 C39.4771147,42.0430424 38.7582772,41.0761227 38.8662421,40.0182859 C38.974207,38.9604491 39.8738986,38.1553656 40.9480804,38.1553656 C42.0222622,38.1553656 42.9219538,38.9604491 43.0299187,40.0182859 C43.1378836,41.0761227 42.4190462,42.0430424 41.3665672,42.2556866 Z M22.9112988,14.1303836 C22.6964625,15.172123 21.7195745,15.8836254 20.6508321,15.7767621 C19.5820898,15.6698989 18.7687065,14.7793879 18.7687065,13.7161671 C18.7687065,12.6529463 19.5820898,11.7624353 20.6508321,11.6555721 C21.7195745,11.5487088 22.6964625,12.2602112 22.9112988,13.3019506 L33.8338046,13.3019506 L33.8338046,0.047021339 L34.6707782,0.047021339 L34.6707782,14.1303836 L22.9112988,14.1303836 Z M48.0623562,15.7458281 L48.0623562,27.3853129 L34.6707782,27.3853129 L34.6707782,53.8951713 L29.6070878,53.8951713 C29.3922514,54.9369107 28.4153635,55.648413 27.3466211,55.5415498 C26.2778788,55.4346866 25.4644954,54.5441755 25.4644954,53.4809548 C25.4644954,52.417734 26.2778788,51.5272229 27.3466211,51.4203597 C28.4153635,51.3134965 29.3922514,52.0249989 29.6070878,53.0667382 L33.8338046,53.0667382 L33.8338046,26.5568798 L47.2253826,26.5568798 L47.2253826,15.7458281 C46.1729036,15.533184 45.4540662,14.5662642 45.5620311,13.5084274 C45.669996,12.4505906 46.5696876,11.6455071 47.6438694,11.6455071 C48.7180512,11.6455071 49.6177428,12.4505906 49.7257077,13.5084274 C49.8336726,14.5662642 49.1148351,15.533184 48.0623562,15.7458281 Z M42.9986658,34.0127775 C42.7838294,35.0545168 41.8069414,35.7660192 40.7381991,35.659156 C39.6694568,35.5522928 38.8560734,34.6617817 38.8560734,33.5985609 C38.8560734,32.5353401 39.6694568,31.6448291 40.7381991,31.5379659 C41.8069414,31.4311027 42.7838294,32.142605 42.9986658,33.1843444 L53.9211716,33.1843444 L53.9211716,15.7458281 C52.8686926,15.533184 52.1498552,14.5662642 52.2578201,13.5084274 C52.365785,12.4505906 53.2654766,11.6455071 54.3396584,11.6455071 C55.4138402,11.6455071 56.3135318,12.4505906 56.4214967,13.5084274 C56.5294616,14.5662642 55.8106241,15.533184 54.7581452,15.7458281 L54.7581452,34.0127775 L42.9986658,34.0127775 Z M49.6944548,7.50291903 C49.4796184,8.54465838 48.5027304,9.25616075 47.4339881,9.14929753 C46.3652458,9.04243431 45.5518624,8.15192327 45.5518624,7.08870249 C45.5518624,6.02548171 46.3652458,5.13497066 47.4339881,5.02810744 C48.5027304,4.92124423 49.4796184,5.63274659 49.6944548,6.67448595 L61.4539342,6.67448595 L61.4539342,24.9414353 C62.5064131,25.1540794 63.2252506,26.1209992 63.1172857,27.178836 C63.0093208,28.2366728 62.1096292,29.0417563 61.0354474,29.0417563 C59.9612656,29.0417563 59.061574,28.2366728 58.9536091,27.178836 C58.8456442,26.1209992 59.5644816,25.1540794 60.6169606,24.9414353 L60.6169606,7.50291903 L49.6944548,7.50291903 Z M92.4638069,119.341384 C92.6786433,118.299645 93.6555313,117.588143 94.7242736,117.695006 C95.7930159,117.801869 96.6063993,118.69238 96.6063993,119.755601 C96.6063993,120.818822 95.7930159,121.709333 94.7242736,121.816196 C93.6555313,121.923059 92.6786433,121.211557 92.4638069,120.169817 L41.3665672,120.169817 L41.3665672,125.968849 L40.5295936,125.968849 L40.5295936,119.341384 L92.4638069,119.341384 L92.4638069,119.341384 Z M101.628668,62.1380804 L101.628668,66.3216674 L108.324457,66.3216674 L108.324457,80.4050297 L101.628668,80.4050297 L101.628668,106.086455 L121.716035,106.086455 L121.716035,125.968849 L120.879061,125.968849 L120.879061,106.914888 L100.791694,106.914888 L100.791694,79.5765967 L107.487483,79.5765967 L107.487483,67.1501005 L100.791694,67.1501005 L100.791694,62.1380804 C99.7392155,61.9254362 99.0203781,60.9585165 99.128343,59.9006797 C99.2363079,58.8428429 100.135999,58.0377594 101.210181,58.0377594 C102.284363,58.0377594 103.184055,58.8428429 103.29202,59.9006797 C103.399984,60.9585165 102.681147,61.9254362 101.628668,62.1380804 L101.628668,62.1380804 Z M22.9112988,7.50291903 C22.6964625,8.54465838 21.7195745,9.25616075 20.6508321,9.14929753 C19.5820898,9.04243431 18.7687065,8.15192327 18.7687065,7.08870249 C18.7687065,6.02548171 19.5820898,5.13497066 20.6508321,5.02810744 C21.7195745,4.92124423 22.6964625,5.63274659 22.9112988,6.67448595 L27.1380156,6.67448595 L27.1380156,0.875454415 L20.4422266,0.875454415 L20.4422266,0.047021339 L27.9749892,0.047021339 L27.9749892,7.50291903 L22.9112988,7.50291903 Z M69.7818217,20.7578482 C69.5669854,21.7995876 68.5900974,22.51109 67.5213551,22.4042268 C66.4526127,22.2973635 65.6392294,21.4068525 65.6392294,20.3436317 C65.6392294,19.2804109 66.4526127,18.3898999 67.5213551,18.2830367 C68.5900974,18.1761734 69.5669854,18.8876758 69.7818217,19.9294152 L80.7043275,19.9294152 L80.7043275,0.047021339 L101.628668,0.047021339 L101.628668,0.875454415 L81.5413011,0.875454415 L81.5413011,20.7578482 L69.7818217,20.7578482 Z M49.6944548,0.875454415 C49.5449438,1.60058246 49.0159507,2.19167918 48.3067419,2.42608417 C47.5975331,2.66048915 46.8158544,2.50259069 46.2561565,2.01186763 C45.6964586,1.52114456 45.4437731,0.772149387 45.593284,0.047021339 L46.4595517,0.047021339 C46.2765907,0.561813583 46.4543651,1.13451446 46.8977924,1.45881483 C47.3412196,1.7831152 47.9465192,1.7831152 48.3899464,1.45881483 C48.8333737,1.13451446 49.0111481,0.561813583 48.8281871,0.047021339 L74.8455122,0.047021339 L74.8455122,14.1303836 L67.3127495,14.1303836 L67.3127495,9.11836352 C66.2602706,8.90571937 65.5414332,7.93879962 65.6493981,6.88096283 C65.757363,5.82312604 66.6570545,5.01804251 67.7312364,5.01804251 C68.8054182,5.01804251 69.7051098,5.82312604 69.8130747,6.88096283 C69.9210396,7.93879962 69.2022021,8.90571937 68.1497232,9.11836352 L68.1497232,13.3019506 L74.0085385,13.3019506 L74.0085385,0.875454415 L49.6944548,0.875454415 Z M49.6944548,40.6402421 C49.4796184,41.6819814 48.5027304,42.3934838 47.4339881,42.2866206 C46.3652458,42.1797574 45.5518624,41.2892463 45.5518624,40.2260255 C45.5518624,39.1628048 46.3652458,38.2722937 47.4339881,38.1654305 C48.5027304,38.0585673 49.4796184,38.7700696 49.6944548,39.811809 L57.6875529,39.811809 L71.0791309,26.5568798 L87.4001165,26.5568798 L87.4001165,9.11836352 C86.3476376,8.90571937 85.6288001,7.93879962 85.736765,6.88096283 C85.8447299,5.82312604 86.7444215,5.01804251 87.8186033,5.01804251 C88.8927851,5.01804251 89.7924767,5.82312604 89.9004416,6.88096283 C90.0084065,7.93879962 89.2895691,8.90571937 88.2370901,9.11836352 L88.2370901,27.3853129 L71.4264749,27.3853129 L58.0348969,40.6402421 L49.6944548,40.6402421 Z M61.4539342,77.9611522 C62.5064131,78.1737963 63.2252506,79.1407161 63.1172857,80.1985529 C63.0093208,81.2563896 62.1096292,82.0614732 61.0354474,82.0614732 C59.9612656,82.0614732 59.061574,81.2563896 58.9536091,80.1985529 C58.8456442,79.1407161 59.5644816,78.1737963 60.6169606,77.9611522 L60.6169606,46.2694448 L73.8369589,33.1843444 L94.0959055,33.1843444 L94.0959055,9.11836352 C93.0434266,8.90571937 92.3245891,7.93879962 92.432554,6.88096283 C92.5405189,5.82312604 93.4402105,5.01804251 94.5143923,5.01804251 C95.5885741,5.01804251 96.4882657,5.82312604 96.5962306,6.88096283 C96.7041955,7.93879962 95.9853581,8.90571937 94.9328791,9.11836352 L94.9328791,34.0127775 L74.1801181,34.0127775 L61.4539342,46.6091024 L61.4539342,77.9611522 Z M68.1497232,91.2160814 C69.2022021,91.4287255 69.9210396,92.3956453 69.8130747,93.4534821 C69.7051098,94.5113189 68.8054182,95.3164024 67.7312364,95.3164024 C66.6570545,95.3164024 65.757363,94.5113189 65.6493981,93.4534821 C65.5414332,92.3956453 66.2602706,91.4287255 67.3127495,91.2160814 L67.3127495,49.9973937 L77.6033402,39.811809 L125.942752,39.811809 C126.1104,38.9981681 126.752822,38.3623016 127.57485,38.1963645 L127.57485,39.0537927 C127.072271,39.2287864 126.73601,39.6986927 126.73601,40.2260255 C126.73601,40.7533583 127.072271,41.2232647 127.57485,41.3982583 L127.57485,42.2556866 C126.752822,42.0897495 126.1104,41.453883 125.942752,40.6402421 L77.9464994,40.6402421 L68.1497232,50.3370512 L68.1497232,91.2160814 Z M7.88762228,64.7062229 C8.94010122,64.9188671 9.65893866,65.8857868 9.55097377,66.9436236 C9.44300887,68.0014604 8.54331729,68.806544 7.46913547,68.806544 C6.39495365,68.806544 5.49526208,68.0014604 5.38729718,66.9436236 C5.27933228,65.8857868 5.99816972,64.9188671 7.05064866,64.7062229 L7.05064866,63.2523229 L27.1380156,43.3699291 L27.1380156,19.9294152 L40.5295936,19.9294152 L40.5295936,0.047021339 L41.3665672,0.047021339 L41.3665672,20.7578482 L27.9749892,20.7578482 L27.9749892,43.7095866 L7.88762228,63.5919805 L7.88762228,64.7062229 Z M21.2792003,22.3732927 L21.2792003,40.3958543 L1.1918333,60.2782481 L1.1918333,86.2040613 L12.1143391,86.2040613 C12.3291754,85.1623219 13.3060634,84.4508195 14.3748058,84.5576828 C15.4435481,84.664546 16.2569314,85.555057 16.2569314,86.6182778 C16.2569314,87.6814986 15.4435481,88.5720096 14.3748058,88.6788729 C13.3060634,88.7857361 12.3291754,88.0742337 12.1143391,87.0324943 L0.354859673,87.0324943 L0.354859673,59.9385906 L20.4422266,40.0561968 L20.4422266,22.3732927 C19.3897477,22.1606486 18.6709103,21.1937288 18.7788752,20.135892 C18.8868401,19.0780553 19.7865316,18.2729717 20.8607134,18.2729717 C21.9348953,18.2729717 22.8345868,19.0780553 22.9425517,20.135892 C23.0505166,21.1937288 22.3316792,22.1606486 21.2792003,22.3732927 L21.2792003,22.3732927 Z M14.5834113,29.0007574 L14.5834113,37.082122 L0.354859673,51.1654843 L0.354859673,49.9973937 L13.7464376,36.7424645 L13.7464376,29.0007574 C12.6939587,28.7881132 11.9751213,27.8211935 12.0830862,26.7633567 C12.1910511,25.7055199 13.0907426,24.9004363 14.1649245,24.9004363 C15.2391063,24.9004363 16.1387979,25.7055199 16.2467628,26.7633567 C16.3547277,27.8211935 15.6358902,28.7881132 14.5834113,29.0007574 Z M5.4185501,13.3019506 C5.63338646,12.2602112 6.61027445,11.5487088 7.67901678,11.6555721 C8.7477591,11.7624353 9.56114246,12.6529463 9.56114246,13.7161671 C9.56114246,14.7793879 8.7477591,15.6698989 7.67901678,15.7767621 C6.61027445,15.8836254 5.63338646,15.172123 5.4185501,14.1303836 L4.29282057,14.1303836 L0.354859673,18.0281613 L0.354859673,16.8642128 L3.94966139,13.3019506 L5.4185501,13.3019506 Z M116.652345,20.7578482 C116.437508,21.7995876 115.46062,22.51109 114.391878,22.4042268 C113.323136,22.2973635 112.509752,21.4068525 112.509752,20.3436317 C112.509752,19.2804109 113.323136,18.3898999 114.391878,18.2830367 C115.46062,18.1761734 116.437508,18.8876758 116.652345,19.9294152 L124.473863,19.9294152 L127.57485,16.8600706 L127.57485,18.0281613 L124.817022,20.7578482 L116.652345,20.7578482 L116.652345,20.7578482 Z M109.956556,87.0324943 C109.741719,88.0742337 108.764831,88.7857361 107.696089,88.6788729 C106.627347,88.5720096 105.813963,87.6814986 105.813963,86.6182778 C105.813963,85.555057 106.627347,84.664546 107.696089,84.5576828 C108.764831,84.4508195 109.741719,85.1623219 109.956556,86.2040613 L120.879061,86.2040613 L120.879061,56.6248583 L127.57485,49.9973937 L127.57485,51.1654843 L121.716035,56.9645158 L121.716035,87.0324943 L109.956556,87.0324943 L109.956556,87.0324943 Z M22.9112988,100.287424 C22.6964625,101.329163 21.7195745,102.040665 20.6508321,101.933802 C19.5820898,101.826939 18.7687065,100.936428 18.7687065,99.873207 C18.7687065,98.8099862 19.5820898,97.9194752 20.6508321,97.812612 C21.7195745,97.7057488 22.6964625,98.4172511 22.9112988,99.4589905 L27.1380156,99.4589905 L27.1380156,90.1018389 L17.3412394,80.4050297 L9.51972085,80.4050297 C9.30488449,81.4467691 8.3279965,82.1582715 7.25925417,82.0514082 C6.19051184,81.944545 5.37712849,81.054034 5.37712849,79.9908132 C5.37712849,78.9275924 6.19051184,78.0370814 7.25925417,77.9302182 C8.3279965,77.8233549 9.30488449,78.5348573 9.51972085,79.5765967 L17.6843985,79.5765967 L27.9749892,89.7621813 L27.9749892,100.287424 L22.9112988,100.287424 L22.9112988,100.287424 Z M85.7680179,106.086455 C85.9828543,105.044716 86.9597423,104.333213 88.0284846,104.440077 C89.097227,104.54694 89.9106103,105.437451 89.9106103,106.500672 C89.9106103,107.563892 89.097227,108.454403 88.0284846,108.561267 C86.9597423,108.66813 85.9828543,107.956628 85.7680179,106.914888 L40.5295936,106.914888 L40.5295936,83.4702321 L24.0412132,67.1501005 L16.2155098,67.1501005 C16.0006735,68.1918399 15.0237855,68.9033422 13.9550432,68.796479 C12.8863008,68.6896158 12.0729175,67.7991048 12.0729175,66.735884 C12.0729175,65.6726632 12.8863008,64.7821521 13.9550432,64.6752889 C15.0237855,64.5684257 16.0006735,65.2799281 16.2155098,66.3216674 L24.3760027,66.3216674 L41.3665672,83.1388589 L41.3665672,106.086455 L85.7680179,106.086455 L85.7680179,106.086455 Z M22.9112988,106.914888 C22.6964625,107.956628 21.7195745,108.66813 20.6508321,108.561267 C19.5820898,108.454403 18.7687065,107.563892 18.7687065,106.500672 C18.7687065,105.437451 19.5820898,104.54694 20.6508321,104.440077 C21.7195745,104.333213 22.6964625,105.044716 22.9112988,106.086455 L33.8338046,106.086455 L33.8338046,86.7881066 L20.6891339,73.7775651 L9.51972085,73.7775651 C9.30488449,74.8193045 8.3279965,75.5308068 7.25925417,75.4239436 C6.19051184,75.3170804 5.37712849,74.4265694 5.37712849,73.3633486 C5.37712849,72.3001278 6.19051184,71.4096168 7.25925417,71.3027535 C8.3279965,71.1958903 9.30488449,71.9073927 9.51972085,72.949132 L21.032293,72.949132 L34.6707782,86.448449 L34.6707782,106.914888 L22.9112988,106.914888 L22.9112988,106.914888 Z M14.5834113,16.5328396 L14.5834113,17.1997282 L4.29282057,27.3853129 L0.354859673,27.3853129 L0.354859673,26.5568798 L3.94966139,26.5568798 L13.7464376,16.8600706 L13.7464376,0.047021339 L14.5834113,0.047021339 L14.5834113,16.5328396 Z M1.1918333,124.353404 C2.01386223,124.519342 2.65628405,125.155208 2.82393186,125.968849 L1.95766416,125.968849 C1.84681307,125.657852 1.61561133,125.403224 1.3149816,125.261047 C1.01435187,125.118869 0.668952956,125.100805 0.354859673,125.210833 L0.354859673,106.086455 L7.88762228,106.086455 L7.88762228,125.968849 L7.05064866,125.968849 L7.05064866,106.914888 L1.1918333,106.914888 L1.1918333,124.353404 Z M14.5834113,99.873207 L14.5834113,125.968849 L13.7464376,125.968849 L13.7464376,100.287424 L0.354859673,100.287424 L0.354859673,99.4589905 L14.5834113,99.4589905 L14.5834113,99.873207 Z M7.46913547,7.50291903 L0.354859673,7.50291903 L0.354859673,6.67448595 L7.05064866,6.67448595 L7.05064866,0.047021339 L7.88762228,0.047021339 L7.88762228,7.50291903 L7.46913547,7.50291903 Z M121.716035,6.67448595 L127.57485,6.67448595 L127.57485,7.50291903 L120.879061,7.50291903 L120.879061,0.047021339 L121.716035,0.047021339 L121.716035,6.67448595 Z M108.324457,119.755601 L108.324457,125.968849 L107.487483,125.968849 L107.487483,120.169817 L101.628668,120.169817 L101.628668,125.968849 L100.791694,125.968849 L100.791694,119.341384 L108.324457,119.341384 L108.324457,119.755601 Z M0.354859673,38.1963645 C0.970127764,38.0751387 1.60793587,38.2324178 2.0938306,38.6251827 C2.57972534,39.0179476 2.86285597,39.605094 2.86578054,40.2260255 C2.86590881,40.8480187 2.58360362,41.4371362 2.09688341,41.8305683 C1.61016319,42.2240005 0.970568759,42.3800852 0.354859673,42.2556866 L0.354859673,41.3982583 C0.874959054,41.5793524 1.45356406,41.403392 1.78120774,40.9644895 C2.10885141,40.525587 2.10885141,39.926464 1.78120774,39.4875615 C1.45356406,39.0486591 0.874959054,38.8726986 0.354859673,39.0537927 L0.354859673,38.1963645 L0.354859673,38.1963645 Z M33.8338046,112.71392 L34.6707782,112.71392 L34.6707782,125.968849 L33.8338046,125.968849 L33.8338046,112.71392 Z M49.6944548,125.968849 L48.8281871,125.968849 C48.6513894,125.471398 48.1766386,125.138568 47.6438694,125.138568 C47.1111002,125.138568 46.6363494,125.471398 46.4595517,125.968849 L45.593284,125.968849 C45.7913088,125.00359 46.6487573,124.309906 47.6438694,124.309906 C48.6389815,124.309906 49.49643,125.00359 49.6944548,125.968849 L49.6944548,125.968849 Z M2.82393186,0.047021339 C2.96020239,0.727718768 2.74442949,1.43083976 2.24868687,1.92152377 C1.75294426,2.41220779 1.0425746,2.62577892 0.354859673,2.49089891 L0.354859673,1.63347068 C0.811147677,1.79358431 1.31978972,1.67975971 1.66211006,1.34093244 C2.0044304,1.00210516 2.11942844,0.498653342 1.95766416,0.047021339 L2.82393186,0.047021339 L2.82393186,0.047021339 Z M125.942752,0.047021339 L126.80902,0.047021339 C126.697858,0.357909588 126.716108,0.699784025 126.859751,0.997346105 C127.003394,1.29490818 127.260647,1.52375072 127.57485,1.63347068 L127.57485,2.49089891 C127.030946,2.38114279 126.553392,2.06196833 126.247295,1.60362427 C125.941198,1.14528022 125.831647,0.585331941 125.942752,0.047021339 L125.942752,0.047021339 Z M127.57485,124.353404 L127.57485,125.210833 C127.216928,125.335922 126.935399,125.614579 126.80902,125.968849 L125.942752,125.968849 C126.1104,125.155208 126.752822,124.519342 127.57485,124.353404 L127.57485,124.353404 Z M40.9480804,41.4686752 C41.3966132,41.4686752 41.8110747,41.2318275 42.0353411,40.8473504 C42.2596075,40.4628732 42.2596075,39.9891778 42.0353411,39.6047007 C41.8110747,39.2202236 41.3966132,38.9833759 40.9480804,38.9833759 C40.2547088,38.9833759 39.69262,39.5397291 39.69262,40.2260255 C39.69262,40.912322 40.2547088,41.4686752 40.9480804,41.4686752 L40.9480804,41.4686752 Z M40.9480804,34.8412105 C41.6414521,34.8412105 42.2035408,34.2848574 42.2035408,33.5985609 C42.2035408,32.9122645 41.6414521,32.3559113 40.9480804,32.3559113 C40.2547088,32.3559113 39.69262,32.9122645 39.69262,33.5985609 C39.69262,34.2848574 40.2547088,34.8412105 40.9480804,34.8412105 L40.9480804,34.8412105 Z M47.6438694,41.4686752 C48.0924022,41.4686752 48.5068637,41.2318275 48.7311301,40.8473504 C48.9553965,40.4628732 48.9553965,39.9891778 48.7311301,39.6047007 C48.5068637,39.2202236 48.0924022,38.9833759 47.6438694,38.9833759 C46.9504977,38.9833759 46.388409,39.5397291 46.388409,40.2260255 C46.388409,40.912322 46.9504977,41.4686752 47.6438694,41.4686752 L47.6438694,41.4686752 Z M54.3396584,48.0961398 C55.03303,48.0961398 55.5951188,47.5397866 55.5951188,46.8534901 C55.5951188,46.1671937 55.03303,45.6108405 54.3396584,45.6108405 C53.6462867,45.6108405 53.0841979,46.1671937 53.0841979,46.8534901 C53.0841979,47.5397866 53.6462867,48.0961398 54.3396584,48.0961398 Z M54.3396584,54.7236044 C55.03303,54.7236044 55.5951188,54.1672512 55.5951188,53.4809548 C55.5951188,52.7946583 55.03303,52.2383051 54.3396584,52.2383051 C53.6462867,52.2383051 53.0841979,52.7946583 53.0841979,53.4809548 C53.0841979,54.1672512 53.6462867,54.7236044 54.3396584,54.7236044 Z M34.2522914,67.9785336 C34.9456631,67.9785336 35.5077519,67.4221804 35.5077519,66.735884 C35.5077519,66.0495875 34.9456631,65.4932344 34.2522914,65.4932344 C33.5589198,65.4932344 32.996831,66.0495875 32.996831,66.735884 C32.996831,67.4221804 33.5589198,67.9785336 34.2522914,67.9785336 Z M40.9480804,74.6059982 C41.6414521,74.6059982 42.2035408,74.049645 42.2035408,73.3633486 C42.2035408,72.6770522 41.6414521,72.120699 40.9480804,72.120699 C40.2547088,72.120699 39.69262,72.6770522 39.69262,73.3633486 C39.69262,74.049645 40.2547088,74.6059982 40.9480804,74.6059982 L40.9480804,74.6059982 Z M54.3396584,94.488392 C55.03303,94.488392 55.5951188,93.9320388 55.5951188,93.2457424 C55.5951188,92.559446 55.03303,92.0030928 54.3396584,92.0030928 C53.6462867,92.0030928 53.0841979,92.559446 53.0841979,93.2457424 C53.0841979,93.9320388 53.6462867,94.488392 54.3396584,94.488392 Z M47.6438694,101.115857 C48.337241,101.115857 48.8993298,100.559503 48.8993298,99.873207 C48.8993298,99.1869106 48.337241,98.6305574 47.6438694,98.6305574 C46.9504977,98.6305574 46.388409,99.1869106 46.388409,99.873207 C46.388409,100.559503 46.9504977,101.115857 47.6438694,101.115857 Z M61.0354474,94.488392 C61.728819,94.488392 62.2909078,93.9320388 62.2909078,93.2457424 C62.2909078,92.559446 61.728819,92.0030928 61.0354474,92.0030928 C60.3420757,92.0030928 59.7799869,92.559446 59.7799869,93.2457424 C59.7799869,93.9320388 60.3420757,94.488392 61.0354474,94.488392 Z M61.0354474,81.2334628 C61.728819,81.2334628 62.2909078,80.6771096 62.2909078,79.9908132 C62.2909078,79.3045168 61.728819,78.7481636 61.0354474,78.7481636 C60.3420757,78.7481636 59.7799869,79.3045168 59.7799869,79.9908132 C59.7799869,80.6771096 60.3420757,81.2334628 61.0354474,81.2334628 Z M67.7312364,94.488392 C68.424608,94.488392 68.9866968,93.9320388 68.9866968,93.2457424 C68.9866968,92.559446 68.424608,92.0030928 67.7312364,92.0030928 C67.0378647,92.0030928 66.4757759,92.559446 66.4757759,93.2457424 C66.4757759,93.9320388 67.0378647,94.488392 67.7312364,94.488392 Z M81.1228143,101.115857 C81.816186,101.115857 82.3782748,100.559503 82.3782748,99.873207 C82.3782748,99.1869106 81.816186,98.6305574 81.1228143,98.6305574 C80.4294427,98.6305574 79.8673539,99.1869106 79.8673539,99.873207 C79.8673539,100.559503 80.4294427,101.115857 81.1228143,101.115857 Z M81.1228143,94.488392 C81.816186,94.488392 82.3782748,93.9320388 82.3782748,93.2457424 C82.3782748,92.559446 81.816186,92.0030928 81.1228143,92.0030928 C80.4294427,92.0030928 79.8673539,92.559446 79.8673539,93.2457424 C79.8673539,93.9320388 80.4294427,94.488392 81.1228143,94.488392 Z M74.4270253,67.9785336 C75.120397,67.9785336 75.6824858,67.4221804 75.6824858,66.735884 C75.6824858,66.0495875 75.120397,65.4932344 74.4270253,65.4932344 C73.7336537,65.4932344 73.1715649,66.0495875 73.1715649,66.735884 C73.1715649,67.4221804 73.7336537,67.9785336 74.4270253,67.9785336 Z M81.1228143,67.9785336 C81.816186,67.9785336 82.3782748,67.4221804 82.3782748,66.735884 C82.3782748,66.0495875 81.816186,65.4932344 81.1228143,65.4932344 C80.4294427,65.4932344 79.8673539,66.0495875 79.8673539,66.735884 C79.8673539,67.4221804 80.4294427,67.9785336 81.1228143,67.9785336 Z M87.8186033,107.743321 C88.511975,107.743321 89.0740638,107.186968 89.0740638,106.500672 C89.0740638,105.814375 88.511975,105.258022 87.8186033,105.258022 C87.1252317,105.258022 86.5631429,105.814375 86.5631429,106.500672 C86.5631429,107.186968 87.1252317,107.743321 87.8186033,107.743321 L87.8186033,107.743321 Z M87.8186033,114.370786 C88.511975,114.370786 89.0740638,113.814433 89.0740638,113.128136 C89.0740638,112.44184 88.511975,111.885487 87.8186033,111.885487 C87.1252317,111.885487 86.5631429,112.44184 86.5631429,113.128136 C86.5631429,113.814433 87.1252317,114.370786 87.8186033,114.370786 L87.8186033,114.370786 Z M94.5143923,120.99825 C95.207764,120.99825 95.7698527,120.441897 95.7698527,119.755601 C95.7698527,119.069304 95.207764,118.512951 94.5143923,118.512951 C93.8210207,118.512951 93.2589319,119.069304 93.2589319,119.755601 C93.2589319,120.441897 93.8210207,120.99825 94.5143923,120.99825 Z M101.210181,61.351069 C101.903553,61.351069 102.465642,60.7947158 102.465642,60.1084194 C102.465642,59.4221229 101.903553,58.8657698 101.210181,58.8657698 C100.51681,58.8657698 99.9547209,59.4221229 99.9547209,60.1084194 C99.9547209,60.7947158 100.51681,61.351069 101.210181,61.351069 Z M101.210181,74.6059982 C101.903553,74.6059982 102.465642,74.049645 102.465642,73.3633486 C102.465642,72.6770522 101.903553,72.120699 101.210181,72.120699 C100.51681,72.120699 99.9547209,72.6770522 99.9547209,73.3633486 C99.9547209,74.049645 100.51681,74.6059982 101.210181,74.6059982 Z M107.90597,61.351069 C108.599342,61.351069 109.161431,60.7947158 109.161431,60.1084194 C109.161431,59.4221229 108.599342,58.8657698 107.90597,58.8657698 C107.212599,58.8657698 106.65051,59.4221229 106.65051,60.1084194 C106.65051,60.7947158 107.212599,61.351069 107.90597,61.351069 Z M114.601759,54.7236044 C115.295131,54.7236044 115.85722,54.1672512 115.85722,53.4809548 C115.85722,52.7946583 115.295131,52.2383051 114.601759,52.2383051 C113.908388,52.2383051 113.346299,52.7946583 113.346299,53.4809548 C113.346299,54.1672512 113.908388,54.7236044 114.601759,54.7236044 Z M74.4270253,54.7236044 C75.120397,54.7236044 75.6824858,54.1672512 75.6824858,53.4809548 C75.6824858,52.7946583 75.120397,52.2383051 74.4270253,52.2383051 C73.7336537,52.2383051 73.1715649,52.7946583 73.1715649,53.4809548 C73.1715649,54.1672512 73.7336537,54.7236044 74.4270253,54.7236044 Z M74.4270253,61.351069 C75.120397,61.351069 75.6824858,60.7947158 75.6824858,60.1084194 C75.6824858,59.4221229 75.120397,58.8657698 74.4270253,58.8657698 C73.7336537,58.8657698 73.1715649,59.4221229 73.1715649,60.1084194 C73.1715649,60.7947158 73.7336537,61.351069 74.4270253,61.351069 Z M81.1228143,48.0961398 C81.816186,48.0961398 82.3782748,47.5397866 82.3782748,46.8534901 C82.3782748,46.1671937 81.816186,45.6108405 81.1228143,45.6108405 C80.4294427,45.6108405 79.8673539,46.1671937 79.8673539,46.8534901 C79.8673539,47.5397866 80.4294427,48.0961398 81.1228143,48.0961398 Z M121.297548,48.0961398 C121.99092,48.0961398 122.553009,47.5397866 122.553009,46.8534901 C122.553009,46.1671937 121.99092,45.6108405 121.297548,45.6108405 C120.604177,45.6108405 120.042088,46.1671937 120.042088,46.8534901 C120.042088,47.5397866 120.604177,48.0961398 121.297548,48.0961398 Z M114.601759,21.5862813 C115.295131,21.5862813 115.85722,21.0299281 115.85722,20.3436317 C115.85722,19.6573353 115.295131,19.1009821 114.601759,19.1009821 C113.908388,19.1009821 113.346299,19.6573353 113.346299,20.3436317 C113.346299,21.0299281 113.908388,21.5862813 114.601759,21.5862813 Z M121.297548,14.9588167 C121.99092,14.9588167 122.553009,14.4024635 122.553009,13.7161671 C122.553009,13.0298707 121.99092,12.4735175 121.297548,12.4735175 C120.604177,12.4735175 120.042088,13.0298707 120.042088,13.7161671 C120.042088,14.4024635 120.604177,14.9588167 121.297548,14.9588167 Z M107.90597,14.9588167 C108.599342,14.9588167 109.161431,14.4024635 109.161431,13.7161671 C109.161431,13.0298707 108.599342,12.4735175 107.90597,12.4735175 C107.212599,12.4735175 106.65051,13.0298707 106.65051,13.7161671 C106.65051,14.4024635 107.212599,14.9588167 107.90597,14.9588167 Z M107.90597,8.3313521 C108.599342,8.3313521 109.161431,7.77499892 109.161431,7.08870249 C109.161431,6.40240606 108.599342,5.84605287 107.90597,5.84605287 C107.212599,5.84605287 106.65051,6.40240606 106.65051,7.08870249 C106.65051,7.77499892 107.212599,8.3313521 107.90597,8.3313521 Z M101.210181,8.3313521 C101.903553,8.3313521 102.465642,7.77499892 102.465642,7.08870249 C102.465642,6.40240606 101.903553,5.84605287 101.210181,5.84605287 C100.51681,5.84605287 99.9547209,6.40240606 99.9547209,7.08870249 C99.9547209,7.77499892 100.51681,8.3313521 101.210181,8.3313521 L101.210181,8.3313521 Z M94.5143923,8.3313521 C95.207764,8.3313521 95.7698527,7.77499892 95.7698527,7.08870249 C95.7698527,6.40240606 95.207764,5.84605287 94.5143923,5.84605287 C93.8210207,5.84605287 93.2589319,6.40240606 93.2589319,7.08870249 C93.2589319,7.77499892 93.8210207,8.3313521 94.5143923,8.3313521 L94.5143923,8.3313521 Z M87.8186033,8.3313521 C88.511975,8.3313521 89.0740638,7.77499892 89.0740638,7.08870249 C89.0740638,6.40240606 88.511975,5.84605287 87.8186033,5.84605287 C87.1252317,5.84605287 86.5631429,6.40240606 86.5631429,7.08870249 C86.5631429,7.77499892 87.1252317,8.3313521 87.8186033,8.3313521 Z M20.8607134,14.9588167 C21.5540851,14.9588167 22.1161739,14.4024635 22.1161739,13.7161671 C22.1161739,13.0298707 21.5540851,12.4735175 20.8607134,12.4735175 C20.1673418,12.4735175 19.605253,13.0298707 19.605253,13.7161671 C19.605253,14.4024635 20.1673418,14.9588167 20.8607134,14.9588167 Z M7.46913547,14.9588167 C8.16250712,14.9588167 8.72459591,14.4024635 8.72459591,13.7161671 C8.72459591,13.0298707 8.16250712,12.4735175 7.46913547,12.4735175 C6.77576382,12.4735175 6.21367504,13.0298707 6.21367504,13.7161671 C6.21367504,14.4024635 6.77576382,14.9588167 7.46913547,14.9588167 Z M20.8607134,21.5862813 C21.5540851,21.5862813 22.1161739,21.0299281 22.1161739,20.3436317 C22.1161739,19.6573353 21.5540851,19.1009821 20.8607134,19.1009821 C20.1673418,19.1009821 19.605253,19.6573353 19.605253,20.3436317 C19.605253,21.0299281 20.1673418,21.5862813 20.8607134,21.5862813 Z M14.1649245,28.2137459 C14.8582961,28.2137459 15.4203849,27.6573927 15.4203849,26.9710963 C15.4203849,26.2847999 14.8582961,25.7284467 14.1649245,25.7284467 C13.4715528,25.7284467 12.909464,26.2847999 12.909464,26.9710963 C12.909464,27.6573927 13.4715528,28.2137459 14.1649245,28.2137459 L14.1649245,28.2137459 Z M20.8607134,8.3313521 C21.5540851,8.3313521 22.1161739,7.77499892 22.1161739,7.08870249 C22.1161739,6.40240606 21.5540851,5.84605287 20.8607134,5.84605287 C20.1673418,5.84605287 19.605253,6.40240606 19.605253,7.08870249 C19.605253,7.77499892 20.1673418,8.3313521 20.8607134,8.3313521 Z M20.8607134,107.743321 C21.5540851,107.743321 22.1161739,107.186968 22.1161739,106.500672 C22.1161739,105.814375 21.5540851,105.258022 20.8607134,105.258022 C20.1673418,105.258022 19.605253,105.814375 19.605253,106.500672 C19.605253,107.186968 20.1673418,107.743321 20.8607134,107.743321 L20.8607134,107.743321 Z M27.5565024,120.99825 C28.2498741,120.99825 28.8119629,120.441897 28.8119629,119.755601 C28.8119629,119.069304 28.2498741,118.512951 27.5565024,118.512951 C26.8631308,118.512951 26.301042,119.069304 26.301042,119.755601 C26.301042,120.441897 26.8631308,120.99825 27.5565024,120.99825 Z M20.8607134,94.488392 C21.5540851,94.488392 22.1161739,93.9320388 22.1161739,93.2457424 C22.1161739,92.559446 21.5540851,92.0030928 20.8607134,92.0030928 C20.1673418,92.0030928 19.605253,92.559446 19.605253,93.2457424 C19.605253,93.9320388 20.1673418,94.488392 20.8607134,94.488392 Z M20.8607134,101.115857 C21.5540851,101.115857 22.1161739,100.559503 22.1161739,99.873207 C22.1161739,99.1869106 21.5540851,98.6305574 20.8607134,98.6305574 C20.1673418,98.6305574 19.605253,99.1869106 19.605253,99.873207 C19.605253,100.559503 20.1673418,101.115857 20.8607134,101.115857 Z M14.1649245,87.8609274 C14.8582961,87.8609274 15.4203849,87.3045742 15.4203849,86.6182778 C15.4203849,85.9319814 14.8582961,85.3756282 14.1649245,85.3756282 C13.4715528,85.3756282 12.909464,85.9319814 12.909464,86.6182778 C12.909464,87.3045742 13.4715528,87.8609274 14.1649245,87.8609274 L14.1649245,87.8609274 Z M47.6438694,14.9588167 C48.337241,14.9588167 48.8993298,14.4024635 48.8993298,13.7161671 C48.8993298,13.0298707 48.337241,12.4735175 47.6438694,12.4735175 C46.9504977,12.4735175 46.388409,13.0298707 46.388409,13.7161671 C46.388409,14.4024635 46.9504977,14.9588167 47.6438694,14.9588167 Z M54.3396584,14.9588167 C55.03303,14.9588167 55.5951188,14.4024635 55.5951188,13.7161671 C55.5951188,13.0298707 55.03303,12.4735175 54.3396584,12.4735175 C53.6462867,12.4735175 53.0841979,13.0298707 53.0841979,13.7161671 C53.0841979,14.4024635 53.6462867,14.9588167 54.3396584,14.9588167 Z M47.6438694,8.3313521 C48.337241,8.3313521 48.8993298,7.77499892 48.8993298,7.08870249 C48.8993298,6.40240606 48.337241,5.84605287 47.6438694,5.84605287 C46.9504977,5.84605287 46.388409,6.40240606 46.388409,7.08870249 C46.388409,7.77499892 46.9504977,8.3313521 47.6438694,8.3313521 Z M61.0354474,28.2137459 C61.728819,28.2137459 62.2909078,27.6573927 62.2909078,26.9710963 C62.2909078,26.2847999 61.728819,25.7284467 61.0354474,25.7284467 C60.3420757,25.7284467 59.7799869,26.2847999 59.7799869,26.9710963 C59.7799869,27.6573927 60.3420757,28.2137459 61.0354474,28.2137459 Z M67.7312364,21.5862813 C68.424608,21.5862813 68.9866968,21.0299281 68.9866968,20.3436317 C68.9866968,19.6573353 68.424608,19.1009821 67.7312364,19.1009821 C67.0378647,19.1009821 66.4757759,19.6573353 66.4757759,20.3436317 C66.4757759,21.0299281 67.0378647,21.5862813 67.7312364,21.5862813 Z M67.7312364,8.3313521 C68.424608,8.3313521 68.9866968,7.77499892 68.9866968,7.08870249 C68.9866968,6.40240606 68.424608,5.84605287 67.7312364,5.84605287 C67.0378647,5.84605287 66.4757759,6.40240606 66.4757759,7.08870249 C66.4757759,7.77499892 67.0378647,8.3313521 67.7312364,8.3313521 L67.7312364,8.3313521 Z M114.601759,81.2334628 C115.295131,81.2334628 115.85722,80.6771096 115.85722,79.9908132 C115.85722,79.3045168 115.295131,78.7481636 114.601759,78.7481636 C113.908388,78.7481636 113.346299,79.3045168 113.346299,79.9908132 C113.346299,80.6771096 113.908388,81.2334628 114.601759,81.2334628 Z M107.90597,87.8609274 C108.599342,87.8609274 109.161431,87.3045742 109.161431,86.6182778 C109.161431,85.9319814 108.599342,85.3756282 107.90597,85.3756282 C107.212599,85.3756282 106.65051,85.9319814 106.65051,86.6182778 C106.65051,87.3045742 107.212599,87.8609274 107.90597,87.8609274 L107.90597,87.8609274 Z M107.90597,94.488392 C108.599342,94.488392 109.161431,93.9320388 109.161431,93.2457424 C109.161431,92.559446 108.599342,92.0030928 107.90597,92.0030928 C107.212599,92.0030928 106.65051,92.559446 106.65051,93.2457424 C106.65051,93.9320388 107.212599,94.488392 107.90597,94.488392 Z M107.90597,101.115857 C108.599342,101.115857 109.161431,100.559503 109.161431,99.873207 C109.161431,99.1869106 108.599342,98.6305574 107.90597,98.6305574 C107.212599,98.6305574 106.65051,99.1869106 106.65051,99.873207 C106.65051,100.559503 107.212599,101.115857 107.90597,101.115857 Z M7.46913547,74.6059982 C8.16250712,74.6059982 8.72459591,74.049645 8.72459591,73.3633486 C8.72459591,72.6770522 8.16250712,72.120699 7.46913547,72.120699 C6.77576382,72.120699 6.21367504,72.6770522 6.21367504,73.3633486 C6.21367504,74.049645 6.77576382,74.6059982 7.46913547,74.6059982 Z M7.46913547,81.2334628 C8.16250712,81.2334628 8.72459591,80.6771096 8.72459591,79.9908132 C8.72459591,79.3045168 8.16250712,78.7481636 7.46913547,78.7481636 C6.77576382,78.7481636 6.21367504,79.3045168 6.21367504,79.9908132 C6.21367504,80.6771096 6.77576382,81.2334628 7.46913547,81.2334628 Z M7.46913547,67.9785336 C8.16250712,67.9785336 8.72459591,67.4221804 8.72459591,66.735884 C8.72459591,66.0495875 8.16250712,65.4932344 7.46913547,65.4932344 C6.77576382,65.4932344 6.21367504,66.0495875 6.21367504,66.735884 C6.21367504,67.4221804 6.77576382,67.9785336 7.46913547,67.9785336 Z M14.1649245,67.9785336 C14.8582961,67.9785336 15.4203849,67.4221804 15.4203849,66.735884 C15.4203849,66.0495875 14.8582961,65.4932344 14.1649245,65.4932344 C13.4715528,65.4932344 12.909464,66.0495875 12.909464,66.735884 C12.909464,67.4221804 13.4715528,67.9785336 14.1649245,67.9785336 Z M7.46913547,34.8412105 C8.16250712,34.8412105 8.72459591,34.2848574 8.72459591,33.5985609 C8.72459591,32.9122645 8.16250712,32.3559113 7.46913547,32.3559113 C6.77576382,32.3559113 6.21367504,32.9122645 6.21367504,33.5985609 C6.21367504,34.2848574 6.77576382,34.8412105 7.46913547,34.8412105 Z M20.8607134,61.351069 C21.5540851,61.351069 22.1161739,60.7947158 22.1161739,60.1084194 C22.1161739,59.4221229 21.5540851,58.8657698 20.8607134,58.8657698 C20.1673418,58.8657698 19.605253,59.4221229 19.605253,60.1084194 C19.605253,60.7947158 20.1673418,61.351069 20.8607134,61.351069 Z M27.5565024,54.7236044 C28.2498741,54.7236044 28.8119629,54.1672512 28.8119629,53.4809548 C28.8119629,52.7946583 28.2498741,52.2383051 27.5565024,52.2383051 C26.8631308,52.2383051 26.301042,52.7946583 26.301042,53.4809548 C26.301042,54.1672512 26.8631308,54.7236044 27.5565024,54.7236044 Z"></path>
                                    </g>
                                </g>
                            </g>
                        </g>
                    </g>
                    <ellipse id="Oval" fill="#FFFFFF" cx="55.076505" cy="67.2855006" rx="5.07650495" ry="4.07139157"></ellipse>
                </g>
            </g>
        </g>
    </g>
</svg>