<svg width="162" height="158" viewBox="0 0 162 158" fill="none" xmlns="http://www.w3.org/2000/svg">
<path fill-rule="evenodd" clip-rule="evenodd" d="M80.5173 -8.1114e-07C36.0547 -8.1114e-07 0 36.0467 0 80.5173C0 116.091 23.0707 146.272 55.0627 156.919C59.0867 157.664 60.564 155.172 60.564 153.045C60.564 151.127 60.4893 144.783 60.4547 138.055C38.0547 142.925 33.328 128.555 33.328 128.555C29.6653 119.249 24.388 116.773 24.388 116.773C17.0827 111.776 24.9387 111.879 24.9387 111.879C33.024 112.447 37.2813 120.177 37.2813 120.177C44.4627 132.485 56.1173 128.927 60.712 126.869C61.436 121.667 63.5213 118.113 65.824 116.103C47.94 114.068 29.14 107.163 29.14 76.3107C29.14 67.5213 32.2853 60.3373 37.436 54.6987C36.6 52.6707 33.844 44.4813 38.2173 33.3907C38.2173 33.3907 44.9787 31.228 60.364 41.6453C66.7867 39.8613 73.6747 38.9667 80.5173 38.9347C87.36 38.9667 94.2533 39.8613 100.688 41.6453C116.056 31.228 122.808 33.3907 122.808 33.3907C127.191 44.4813 124.435 52.6707 123.599 54.6987C128.761 60.3373 131.884 67.5213 131.884 76.3107C131.884 107.237 113.048 114.045 95.1187 116.039C98.0067 118.537 100.58 123.437 100.58 130.949C100.58 141.723 100.488 150.393 100.488 153.045C100.488 155.189 101.936 157.699 106.017 156.909C137.993 146.251 161.035 116.08 161.035 80.5173C161.035 36.0467 124.985 -8.1114e-07 80.5173 -8.1114e-07Z" fill="#1B1817"/>
<path d="M30.4965 115.604C30.3192 116.006 29.6898 116.126 29.1165 115.851C28.5312 115.587 28.2045 115.042 28.3938 114.64C28.5672 114.23 29.1965 114.115 29.7805 114.39C30.3645 114.652 30.6978 115.203 30.4965 115.604Z" fill="#1B1817"/>
<path d="M33.7582 119.242C33.3742 119.598 32.6222 119.433 32.1142 118.87C31.5862 118.309 31.4889 117.557 31.8782 117.197C32.2742 116.841 33.0022 117.008 33.5289 117.569C34.0569 118.137 34.1596 118.881 33.7582 119.242Z" fill="#1B1817"/>
<path d="M36.9328 123.879C36.4395 124.223 35.6315 123.902 35.1328 123.186C34.6395 122.468 34.6395 121.61 35.1448 121.266C35.6435 120.922 36.4395 121.232 36.9448 121.942C37.4368 122.67 37.4368 123.528 36.9328 123.879Z" fill="#1B1817"/>
<path d="M41.2817 128.359C40.8404 128.846 39.9004 128.715 39.2124 128.05C38.5084 127.402 38.3124 126.481 38.7537 125.994C39.2017 125.506 40.147 125.643 40.8404 126.302C41.539 126.95 41.751 127.878 41.2817 128.359Z" fill="#1B1817"/>
<path d="M47.2817 130.961C47.0857 131.592 46.1817 131.877 45.2697 131.609C44.3591 131.333 43.7631 130.596 43.9471 129.958C44.1364 129.324 45.0457 129.025 45.9644 129.312C46.8737 129.586 47.4711 130.32 47.2817 130.961Z" fill="#1B1817"/>
<path d="M53.8716 131.443C53.8943 132.107 53.1209 132.657 52.1636 132.669C51.2009 132.691 50.4209 132.153 50.4103 131.5C50.4103 130.829 51.1676 130.285 52.1289 130.268C53.0863 130.249 53.8716 130.784 53.8716 131.443Z" fill="#1B1817"/>
<path d="M60.0031 130.4C60.1178 131.046 59.4524 131.712 58.5018 131.889C57.5671 132.061 56.7018 131.66 56.5831 131.018C56.4671 130.354 57.1431 129.689 58.0778 129.517C59.0298 129.352 59.8818 129.741 60.0031 130.4Z" fill="#1B1817"/>
</svg>
