<svg width="400" height="400" xmlns="http://www.w3.org/2000/svg">
 <defs>
  <style>.cls-1{fill:none;}.cls-2{fill:#1da1f2;}</style>
 </defs>
 <title>Twitter_Logo_Blue</title>
 <g>
  <title>background</title>
  <rect fill="none" id="canvas_background" height="402" width="582" y="-1" x="-1"/>
 </g>
 <g>
  <title>Layer 1</title>
  <rect id="svg_1" height="400" width="400" class="cls-1"/>
  <path stroke="null" id="svg_2" d="m126.163016,361.697776c150.189281,0 232.336481,-124.430721 232.336481,-232.336481c0,-3.53424 0,-7.05256 -0.2388,-10.55496a166.141121,166.141121 0 0 0 40.73928,-42.2676a162.988961,162.988961 0 0 1 -46.90032,12.84744a81.94024,81.94024 0 0 0 35.8996,-45.16504a163.641681,163.641681 0 0 1 -51.85144,19.8204a81.73328,81.73328 0 0 0 -139.156721,74.47376a231.827041,231.827041 0 0 1 -168.290321,-85.31528a81.71736,81.71736 0 0 0 25.28096,109.004241a81.04872,81.04872 0 0 1 -37.06176,-10.22064c0,0.33432 0,0.68456 0,1.0348a81.68552,81.68552 0 0 0 65.5108,80.04576a81.52632,81.52632 0 0 1 -36.87072,1.40096a81.7492,81.7492 0 0 0 76.28864,56.70704a163.848641,163.848641 0 0 1 -101.4104,35.024a166.220721,166.220721 0 0 1 -19.43832,-1.17808a231.174321,231.174321 0 0 0 125.163041,36.616" class="cls-2"/>
 </g>
</svg>